<?xml version="1.0" encoding="utf-8"?>
<!-- Generator: Adobe Illustrator 19.0.0, SVG Export Plug-In . SVG Version: 6.00 Build 0)  -->
<svg version="1.1" id="Livello_1" xmlns="http://www.w3.org/2000/svg" xmlns:xlink="http://www.w3.org/1999/xlink" x="0px" y="0px"
	 viewBox="0 0 40 40" enable-background="new 0 0 40 40" xml:space="preserve">
<g id="Livello_2_2_">
</g>
<g id="New_Symbol_232">
</g>
<path fill="#1A171B" d="M34.869,26.793c-0.433-0.379-0.842-0.737-1.054-1.121l-0.061-0.109c-0.689-1.094-0.974-3.6-1.186-5.861
	l-0.078-0.852c-0.365-2.5-1.275-6.188-3.509-9.214c-1.513-2.042-3.384-3.437-5.561-4.144L23.137,5.4l-0.053-0.295
	c-0.269-1.496-1.566-2.582-3.086-2.582c-1.521,0-2.816,1.087-3.081,2.585l-0.052,0.296l-0.286,0.093
	c-2.159,0.703-4.083,2.134-5.562,4.139c-2.238,3.032-3.146,6.717-3.514,9.273l-0.079,0.802c-0.208,2.253-0.489,4.755-1.191,5.88
	l-0.035,0.054c-0.27,0.453-0.679,0.807-1.074,1.149c-1.029,0.907-2.932,2.584-1.312,5.589c0.283,0.529,0.83,0.857,1.429,0.857h5.508
	l0.04,0.457c0.186,2.119,1.998,3.779,4.127,3.779c2.127,0,3.94-1.66,4.127-3.779l0.04-0.456h15.672c0.602,0,1.15-0.328,1.434-0.856
	C37.813,29.371,35.898,27.694,34.869,26.793z M17.916,33.822c-0.241,1.481-1.504,2.556-3.001,2.556c-1.494,0-2.756-1.075-3-2.555
	l-0.096-0.581h6.191L17.916,33.822z M35.221,31.866l-0.208,0.263l-0.259,0.014H4.941l-0.165-0.276
	c-1.117-2.079-0.172-3.153,1.079-4.246c0.489-0.431,0.985-0.867,1.291-1.411c0.845-1.371,1.131-3.806,1.374-6.396l0.085-0.803
	c0.337-2.382,1.191-5.872,3.298-8.719c1.516-2.049,3.416-3.374,5.647-3.935l0.418-0.104V5.655c0-1.122,0.911-2.035,2.03-2.035
	c1.123,0,2.036,0.913,2.036,2.035v0.598l0.414,0.103c2.234,0.563,4.134,1.887,5.648,3.935c2.092,2.832,2.954,6.328,3.31,8.762
	l0.07,0.762c0.246,2.601,0.536,5.045,1.354,6.349c0.326,0.591,0.802,1.008,1.305,1.449C35.397,28.713,36.341,29.788,35.221,31.866z"
	/>
</svg>
