<?xml version="1.0" encoding="utf-8"?>
<!-- Generator: Adobe Illustrator 19.0.0, SVG Export Plug-In . SVG Version: 6.00 Build 0)  -->
<svg version="1.1" id="Livello_1" xmlns="http://www.w3.org/2000/svg" xmlns:xlink="http://www.w3.org/1999/xlink" x="0px" y="0px"
	 viewBox="0 0 40 40" enable-background="new 0 0 40 40" xml:space="preserve">
<g id="Livello_2_2_">
</g>
<g id="New_Symbol_232">
</g>
<g>
	<path fill="#000200" d="M31.191,8.847c-3.698,0-6.695,2.998-6.695,6.695c0,3.698,2.998,6.695,6.695,6.695
		c3.698,0,6.695-2.998,6.695-6.695C37.887,11.845,34.889,8.847,31.191,8.847z M30.549,11.605h1.312v5.448h-1.312V11.605z
		 M31.964,18.97c-0.044,0.103-0.104,0.191-0.178,0.265c-0.074,0.074-0.162,0.134-0.263,0.178c-0.101,0.044-0.208,0.066-0.321,0.066
		c-0.117,0-0.227-0.022-0.329-0.066c-0.103-0.044-0.192-0.104-0.268-0.178c-0.076-0.074-0.137-0.163-0.183-0.265
		c-0.046-0.103-0.069-0.212-0.069-0.329c0-0.113,0.023-0.219,0.069-0.319c0.046-0.099,0.107-0.186,0.183-0.26
		c0.076-0.074,0.166-0.134,0.268-0.178c0.103-0.044,0.212-0.066,0.329-0.066c0.113,0,0.22,0.022,0.321,0.066
		c0.101,0.044,0.188,0.104,0.263,0.178c0.074,0.074,0.134,0.161,0.178,0.26c0.044,0.099,0.066,0.205,0.066,0.319
		C32.03,18.758,32.008,18.867,31.964,18.97z"/>
	<path d="M30.266,25.039l-0.005-0.005c-0.316-0.277-0.615-0.539-0.764-0.809l-0.049-0.089c-0.507-0.804-0.719-2.679-0.877-4.373
		l-0.06-0.65c-0.282-1.931-0.975-4.715-2.674-7.018c-1.16-1.564-2.594-2.633-4.263-3.175l-0.145-0.046l-0.026-0.149
		c-0.214-1.19-1.246-2.054-2.455-2.054c-1.209,0-2.24,0.865-2.451,2.057L16.47,8.876l-0.144,0.047
		c-1.656,0.539-3.131,1.635-4.265,3.171c-1.706,2.312-2.398,5.117-2.679,7.069l-0.06,0.606c-0.156,1.689-0.366,3.561-0.881,4.386
		l-0.029,0.045c-0.192,0.323-0.491,0.582-0.787,0.839c-0.8,0.706-2.29,2.018-1.019,4.375c0.236,0.44,0.692,0.714,1.19,0.714h4.047
		l0.021,0.231c0.146,1.665,1.57,2.969,3.242,2.969c1.672,0,3.096-1.304,3.243-2.97l0.021-0.23h11.726c0.5,0,0.958-0.273,1.193-0.712
		C32.564,27.052,31.069,25.742,30.266,25.039z M17.299,30.13l-0.048,0.294c-0.172,1.058-1.074,1.826-2.144,1.826
		c-1.067,0-1.969-0.768-2.143-1.826l-0.048-0.293H17.299z M30.344,28.897l-0.115,0.146L7.642,29.049l-0.085-0.143
		c-0.802-1.492-0.149-2.237,0.791-3.057c0.373-0.329,0.758-0.668,0.997-1.093c0.651-1.057,0.871-2.915,1.056-4.885l0.063-0.602
		c0.255-1.802,0.89-4.397,2.469-6.531c1.127-1.525,2.54-2.509,4.197-2.926l0.41-0.102V9.161c0-0.779,0.632-1.413,1.409-1.413
		c0.779,0,1.413,0.634,1.413,1.413v0.55l0.407,0.1c1.659,0.418,3.071,1.403,4.198,2.927c1.564,2.118,2.211,4.738,2.477,6.557
		l0.053,0.576c0.188,1.98,0.408,3.842,1.038,4.845c0.256,0.465,0.622,0.786,1.013,1.129C30.485,26.665,31.141,27.41,30.344,28.897z"
		/>
</g>
</svg>
