<?xml version="1.0" encoding="utf-8"?>
<!-- Generator: Adobe Illustrator 19.0.0, SVG Export Plug-In . SVG Version: 6.00 Build 0)  -->
<svg version="1.1" id="Livello_1" xmlns="http://www.w3.org/2000/svg" xmlns:xlink="http://www.w3.org/1999/xlink" x="0px" y="0px"
	 viewBox="0 0 40 40" enable-background="new 0 0 40 40" xml:space="preserve">
<g>
	<g>
		<path fill="#1A171B" d="M36.086,34.48H3.918c-0.554,0-1.072-0.299-1.351-0.78c-0.283-0.483-0.283-1.065-0.001-1.556l16.09-27.848
			C18.932,3.818,19.447,3.52,20,3.52c0.55,0,1.067,0.296,1.347,0.773l16.05,27.782c0.164,0.265,0.248,0.547,0.248,0.847
			C37.645,33.781,36.946,34.48,36.086,34.48z M20,4.42c-0.229,0-0.451,0.128-0.565,0.327L3.346,32.594
			c-0.122,0.213-0.123,0.446-0.001,0.654c0.119,0.205,0.339,0.332,0.573,0.332h32.168c0.358,0,0.659-0.302,0.659-0.657
			c0-0.131-0.038-0.253-0.12-0.386L20.57,4.747C20.453,4.546,20.233,4.42,20,4.42z"/>
	</g>
	<g>
		<g>
			<path fill="#1A171B" d="M20.001,26.153c-0.249,0-0.45-0.201-0.45-0.45V9.878c0-0.249,0.201-0.45,0.45-0.45
				c0.249,0,0.45,0.201,0.45,0.45v15.826C20.451,25.952,20.25,26.153,20.001,26.153z"/>
		</g>
		<g>
			<path fill="#1A171B" d="M19.998,29.472c-0.249,0-0.45-0.201-0.45-0.45v-1.22c0-0.249,0.201-0.45,0.45-0.45
				c0.249,0,0.45,0.201,0.45,0.45v1.22C20.448,29.271,20.247,29.472,19.998,29.472z"/>
		</g>
	</g>
</g>
<g id="Livello_2_2_">
</g>
<g id="New_Symbol_232">
</g>
</svg>
