<?xml version="1.0" encoding="utf-8"?>
<!-- Generator: Adobe Illustrator 19.0.0, SVG Export Plug-In . SVG Version: 6.00 Build 0)  -->
<svg version="1.1" id="Livello_1" xmlns="http://www.w3.org/2000/svg" xmlns:xlink="http://www.w3.org/1999/xlink" x="0px" y="0px"
	 viewBox="0 0 40 40" enable-background="new 0 0 40 40" xml:space="preserve">
<g id="Livello_2_2_">
</g>
<g id="New_Symbol_232">
</g>
<path d="M35.236,22.043c-0.043-0.014-0.133-0.045-0.087-0.203c0.127-0.451,0.169-0.916,0.169-1.372c0-3.096-2.517-5.615-5.614-5.615
	c-1.221,0-2.383,0.385-3.358,1.115c-0.769,0.576-1.371,1.356-1.762,2.228c-0.522-0.679-1.239-1.21-2.086-1.484
	c-0.043-0.014-0.133-0.045-0.087-0.203c0.127-0.451,0.169-0.916,0.169-1.372c0-3.096-2.517-5.615-5.614-5.615
	c-1.221,0-2.383,0.385-3.358,1.115c-0.943,0.707-1.654,1.712-2.004,2.83c-0.009,0.036-0.049,0.122-0.211,0.095
	c-0.013-0.002-0.028,0-0.044-0.002c-0.053-0.005-0.109-0.007-0.168-0.007c-1.836,0-3.474,1.188-4.103,2.963
	c-0.009,0.026-0.037,0.09-0.112,0.074c-0.009-0.002-0.017-0.002-0.024-0.005c-0.279-0.055-0.564-0.083-0.847-0.083
	c-2.384,0-4.322,1.938-4.322,4.322c0,2.383,1.938,4.322,4.322,4.322h8.547c-0.078,0.325-0.131,0.66-0.131,1.008
	c0,2.384,1.938,4.322,4.322,4.322h15.074c2.381,0,4.322-1.938,4.322-4.322C38.228,24.286,37.005,22.615,35.236,22.043z
	 M6.094,24.343c-1.942,0-3.518-1.578-3.518-3.518c0-1.94,1.577-3.518,3.518-3.518c0.238,0,0.475,0.024,0.708,0.071
	c0.077,0.015,0.153,0.025,0.228,0.025c0.374,0,0.669-0.207,0.783-0.552c0.498-1.491,1.849-2.493,3.368-2.493
	c0.048,0,0.101,0.002,0.159,0.007c0.062,0.005,0.125,0.008,0.194,0.009h0.013c0.465,0,0.742-0.215,0.82-0.636
	c0.003-0.013,0.005-0.025,0.005-0.031c0.631-2.023,2.475-3.381,4.594-3.381c2.653,0,4.81,2.158,4.81,4.811
	c0,0.456-0.065,0.915-0.197,1.369c-0.063,0.22-0.051,0.416,0.042,0.583c0.138,0.248,0.387,0.316,0.504,0.35l0.019,0.005
	c0.819,0.237,1.495,0.766,1.946,1.447c-0.001,0-0.002,0-0.003,0c-0.053-0.004-0.109-0.007-0.168-0.007
	c-1.836,0-3.474,1.188-4.103,2.963c-0.009,0.026-0.037,0.09-0.112,0.074c-0.009-0.002-0.017-0.002-0.024-0.005
	c-0.279-0.055-0.564-0.083-0.847-0.083c-1.735,0-3.223,1.032-3.91,2.51H6.094z M33.906,29.673H18.832
	c-1.942,0-3.518-1.578-3.518-3.518c0-0.353,0.068-0.687,0.165-1.008c0.086-0.285,0.202-0.554,0.353-0.804
	c0.617-1.018,1.725-1.706,3-1.706c0.238,0,0.475,0.024,0.708,0.071c0.077,0.015,0.153,0.025,0.228,0.025
	c0.374,0,0.669-0.207,0.783-0.552c0.498-1.491,1.849-2.493,3.368-2.493c0.048,0,0.101,0.002,0.159,0.007
	c0.062,0.004,0.125,0.008,0.194,0.009h0.013c0.076,0,0.139-0.015,0.206-0.026c0.335-0.058,0.546-0.256,0.612-0.605
	c0-0.002,0.001-0.003,0.002-0.005c0.003-0.013,0.005-0.025,0.005-0.031c0.631-2.023,2.475-3.381,4.594-3.381
	c2.653,0,4.81,2.158,4.81,4.811c0,0.456-0.065,0.915-0.197,1.369c-0.063,0.22-0.051,0.416,0.042,0.583
	c0.138,0.248,0.387,0.316,0.504,0.35l0.019,0.005c1.497,0.433,2.543,1.822,2.543,3.38C37.423,28.095,35.845,29.673,33.906,29.673z"
	/>
</svg>
