<?xml version="1.0" encoding="utf-8"?>
<!-- Generator: Adobe Illustrator 19.0.0, SVG Export Plug-In . SVG Version: 6.00 Build 0)  -->
<svg version="1.1" id="Livello_1" xmlns="http://www.w3.org/2000/svg" xmlns:xlink="http://www.w3.org/1999/xlink" x="0px" y="0px"
	 viewBox="0 0 40 40" enable-background="new 0 0 40 40" xml:space="preserve">
<g id="Livello_2_2_">
</g>
<g id="New_Symbol_232">
</g>
<g>
	<path fill="#000200" d="M33.817,34.485V17.588c0-2.212-1.61-2.796-2.461-2.796h-4.848V7.327c0-2.212-1.61-2.796-2.461-2.796H12.856
		c-0.876,0-1.578,0.263-2.016,0.837c-0.673,0.882-0.573,2.656-0.573,2.656v1.354H9.009c-1.195,0-2.122,0.37-2.757,1.098
		c-1.036,1.191-0.886,2.92-0.852,3.205v20.804H3.267v0.984h5.086h7.013h21.368v-0.984H33.817z M32.832,17.588v16.897H22.005V18.244
		l-0.008-0.089c-0.002-0.012-0.213-1.22,0.355-1.9c0.27-0.322,0.681-0.479,1.257-0.479h7.743
		C31.599,15.78,32.832,15.886,32.832,17.588z M25.524,13.342h-7.336c-0.032-0.757-0.177-1.37-0.394-1.865h7.73V13.342z
		 M21.021,21.891h-2.825v-1.865h2.825V21.891z M21.021,18.285v0.756h-2.825v-1.865h2.802C20.943,17.698,20.998,18.138,21.021,18.285
		z M18.195,22.875h2.825v11.61h-2.825V22.875z M23.609,14.792c-0.876,0-1.555,0.282-2.016,0.837
		c-0.145,0.175-0.258,0.366-0.345,0.563h-3.053v-1.865h7.328v0.465H23.609z M11.597,5.997c0.215-0.363,0.681-0.482,1.259-0.482
		h11.188c0.247,0.004,1.48,0.11,1.48,1.812v3.166h-8.365c-1.007-1.093-2.387-1.115-2.409-1.115h-3.499V7.983
		C11.251,7.983,11.236,6.604,11.597,5.997z M9.337,34.485v-7.013h5.044v7.013H9.337z M8.352,26.488v7.997H6.384V13.651l-0.005-0.068
		c-0.002-0.015-0.189-1.536,0.616-2.46c0.439-0.504,1.116-0.76,2.014-0.76h5.742c0.101,0,2.461,0.037,2.461,3.288v20.835h-1.846
		v-7.997H8.352z"/>
	<rect x="8.844" y="12.54" fill="#000200" width="1.867" height="2.11"/>
	<rect x="8.844" y="15.821" fill="#000200" width="1.867" height="2.11"/>
	<rect x="8.844" y="19.102" fill="#000200" width="1.867" height="2.11"/>
	<rect x="8.844" y="22.383" fill="#000200" width="1.867" height="2.11"/>
	<rect x="24.641" y="18.516" fill="#000200" width="1.867" height="2.11"/>
	<rect x="24.641" y="22.946" fill="#000200" width="1.867" height="2.11"/>
	<rect x="24.641" y="27.375" fill="#000200" width="1.867" height="2.11"/>
	<rect x="28.578" y="18.516" fill="#000200" width="1.867" height="2.11"/>
	<rect x="28.578" y="22.946" fill="#000200" width="1.867" height="2.11"/>
	<rect x="28.578" y="27.375" fill="#000200" width="1.867" height="2.11"/>
</g>
</svg>
