<?xml version="1.0" encoding="utf-8"?>
<!-- Generator: Adobe Illustrator 19.0.0, SVG Export Plug-In . SVG Version: 6.00 Build 0)  -->
<svg version="1.1" id="Livello_1" xmlns="http://www.w3.org/2000/svg" xmlns:xlink="http://www.w3.org/1999/xlink" x="0px" y="0px"
	 viewBox="0 0 40 40" enable-background="new 0 0 40 40" xml:space="preserve">
<g id="Livello_2_2_">
</g>
<g id="New_Symbol_232">
</g>
<g>
	<g>
		<path fill="#1A171B" d="M20,36.6c-9.153,0-16.6-7.446-16.6-16.6S10.847,3.4,20,3.4S36.6,10.847,36.6,20S29.153,36.6,20,36.6z
			 M20,4.6C11.508,4.6,4.6,11.509,4.6,20S11.508,35.4,20,35.4S35.4,28.491,35.4,20S28.492,4.6,20,4.6z"/>
	</g>
	<g>
		<path fill="#1A171B" d="M20,30.21c-5.63,0-10.211-4.58-10.211-10.21S14.37,9.79,20,9.79c5.63,0,10.21,4.58,10.21,10.21
			S25.63,30.21,20,30.21z M20,10.989c-4.969,0-9.011,4.042-9.011,9.011s4.042,9.011,9.011,9.011c4.968,0,9.01-4.042,9.01-9.011
			S24.968,10.989,20,10.989z"/>
	</g>
	<g>
		<circle fill="#1A171B" cx="20" cy="20" r="3.313"/>
	</g>
</g>
</svg>
