<?xml version="1.0" encoding="utf-8"?>
<!-- Generator: Adobe Illustrator 19.0.0, SVG Export Plug-In . SVG Version: 6.00 Build 0)  -->
<svg version="1.1" id="Livello_1" xmlns="http://www.w3.org/2000/svg" xmlns:xlink="http://www.w3.org/1999/xlink" x="0px" y="0px"
	 viewBox="0 0 40 40" enable-background="new 0 0 40 40" xml:space="preserve">
<g id="Livello_2_2_">
</g>
<g id="New_Symbol_232">
</g>
<g>
	<path d="M21.41,10.603c-5.179-0.778-10.03,2.805-10.808,7.987c-0.376,2.511,0.247,5.017,1.756,7.059
		c1.509,2.041,3.722,3.373,6.232,3.749c0.476,0.071,0.948,0.106,1.416,0.106c4.622,0,8.686-3.388,9.392-8.094
		c0.376-2.511-0.247-5.017-1.756-7.059C26.133,12.311,23.92,10.979,21.41,10.603z M28.409,21.262
		c-0.696,4.636-5.032,7.84-9.67,7.147c-2.246-0.337-4.227-1.528-5.577-3.355c-1.35-1.826-1.908-4.069-1.571-6.315
		c0.632-4.211,4.268-7.242,8.404-7.242c0.417,0,0.841,0.031,1.266,0.095c2.246,0.337,4.227,1.528,5.577,3.355
		C28.188,16.772,28.746,19.016,28.409,21.262z"/>
	<path d="M27.657,12.267c0.794,0.788,1.462,1.691,1.982,2.681l1.504-3.185L27.657,12.267z"/>
	<path d="M30.881,19.946c0.002,0.552-0.024,1.108-0.108,1.67c-0.084,0.562-0.223,1.102-0.387,1.628l3.317-1.189L30.881,19.946z"/>
	<path d="M9.227,18.384c0.084-0.562,0.223-1.102,0.387-1.628l-3.317,1.189l2.822,2.11C9.117,19.502,9.143,18.946,9.227,18.384z"/>
	<path d="M16.755,30.386l1.189,3.317l2.11-2.822c-0.552,0.002-1.108-0.024-1.67-0.108C17.822,30.689,17.282,30.55,16.755,30.386z"/>
	<path d="M8.857,28.236l3.486-0.504c-0.794-0.788-1.462-1.691-1.982-2.681L8.857,28.236z"/>
	<path d="M14.949,10.361l-3.185-1.504l0.504,3.486C13.055,11.549,13.959,10.881,14.949,10.361z"/>
	<path d="M25.051,29.639l3.185,1.504l-0.504-3.486C26.945,28.451,26.041,29.119,25.051,29.639z"/>
	<path d="M23.245,9.614l-1.189-3.317l-2.11,2.822c0.552-0.002,1.108,0.024,1.67,0.108S22.718,9.45,23.245,9.614z"/>
</g>
</svg>
