<?xml version="1.0" encoding="utf-8"?>
<!-- Generator: Adobe Illustrator 19.0.0, SVG Export Plug-In . SVG Version: 6.00 Build 0)  -->
<svg version="1.1" id="Livello_1" xmlns="http://www.w3.org/2000/svg" xmlns:xlink="http://www.w3.org/1999/xlink" x="0px" y="0px"
	 viewBox="0 0 40 40" enable-background="new 0 0 40 40" xml:space="preserve">
<g id="Livello_2_2_">
</g>
<g id="New_Symbol_232">
</g>
<g>
	<path d="M32.977,19.29c-0.049-0.016-0.152-0.051-0.099-0.231c0.145-0.514,0.193-1.044,0.193-1.565c0-3.531-2.871-6.403-6.403-6.403
		c-1.392,0-2.717,0.439-3.829,1.271c-1.076,0.806-1.886,1.952-2.286,3.227c-0.01,0.041-0.056,0.139-0.24,0.108
		c-0.014-0.002-0.032,0-0.05-0.002c-0.061-0.005-0.124-0.008-0.192-0.008c-2.094,0-3.961,1.355-4.679,3.379
		c-0.01,0.03-0.042,0.103-0.128,0.085c-0.01-0.002-0.019-0.003-0.028-0.006c-0.318-0.062-0.643-0.095-0.966-0.095
		c-2.719,0-4.928,2.21-4.928,4.929c0,2.718,2.21,4.929,4.928,4.929H31.46c2.716,0,4.928-2.211,4.928-4.929
		C36.389,21.849,34.995,19.943,32.977,19.29z M31.46,27.992H14.27c-2.214,0-4.012-1.8-4.012-4.012c0-2.212,1.798-4.012,4.012-4.012
		c0.272,0,0.542,0.027,0.807,0.081c0.088,0.017,0.174,0.028,0.26,0.028c0.427,0,0.762-0.236,0.893-0.629
		c0.568-1.7,2.108-2.843,3.84-2.843c0.054,0,0.115,0.003,0.182,0.008c0.07,0.005,0.142,0.009,0.222,0.01h0.014
		c0.531,0,0.846-0.245,0.935-0.726c0.003-0.015,0.006-0.028,0.006-0.035c0.72-2.307,2.822-3.855,5.239-3.855
		c3.025,0,5.485,2.461,5.485,5.487c0,0.52-0.075,1.044-0.224,1.561c-0.072,0.251-0.058,0.474,0.047,0.665
		c0.158,0.282,0.441,0.36,0.575,0.399l0.022,0.006c1.707,0.493,2.9,2.077,2.9,3.855C35.471,26.192,33.672,27.992,31.46,27.992z"/>
	<path d="M11.339,19.427c-0.246-0.868-0.313-1.784-0.175-2.702c0.254-1.695,1.154-3.19,2.533-4.209
		c1.116-0.825,2.438-1.259,3.801-1.259c0.32,0,0.644,0.024,0.966,0.072c1.195,0.18,2.286,0.685,3.185,1.447
		c0.23-0.246,0.477-0.475,0.741-0.685c-1.057-0.927-2.355-1.538-3.778-1.751c-1.958-0.296-3.917,0.193-5.51,1.37
		c-1.594,1.178-2.634,2.905-2.928,4.865c-0.18,1.203-0.064,2.404,0.323,3.521C10.755,19.848,11.036,19.623,11.339,19.427z"/>
	<path d="M6.98,16.098l2.169,1.621c-0.002-0.424,0.018-0.851,0.083-1.284c0.065-0.432,0.171-0.847,0.297-1.252L6.98,16.098z"/>
	<path d="M13.629,10.27l-2.448-1.156l0.387,2.679C12.174,11.183,12.868,10.67,13.629,10.27z"/>
	<path d="M20.005,9.696l-0.914-2.549L17.47,9.316c0.424-0.002,0.851,0.018,1.284,0.083C19.185,9.464,19.6,9.57,20.005,9.696z"/>
</g>
</svg>
