<?xml version="1.0" encoding="utf-8"?>
<!-- Generator: Adobe Illustrator 19.0.0, SVG Export Plug-In . SVG Version: 6.00 Build 0)  -->
<svg version="1.1" id="Livello_1" xmlns="http://www.w3.org/2000/svg" xmlns:xlink="http://www.w3.org/1999/xlink" x="0px" y="0px"
	 viewBox="0 0 40 40" enable-background="new 0 0 40 40" xml:space="preserve">
<g id="Livello_2_2_">
</g>
<g id="New_Symbol_232">
</g>
<g>
	<g>
		<path fill="#000200" d="M33.828,18.247c-0.945-0.806-1.879-1.626-2.833-2.422c-0.219-0.183-0.288-0.371-0.287-0.642
			c0.008-2.216,0.005-4.433,0.004-6.649c0-0.584-0.249-0.834-0.827-0.834c-1.039-0.001-2.077-0.002-3.116-0.002
			c-0.835,0-1.669-0.004-2.504,0.005c-0.518,0.006-0.744,0.244-0.749,0.754c-0.002,0.204,0.003,0.408-0.002,0.612
			c-0.002,0.08,0.041,0.189-0.039,0.233c-0.09,0.049-0.141-0.062-0.2-0.112c-0.936-0.802-1.87-1.608-2.805-2.411
			c-0.326-0.28-0.617-0.288-0.949-0.012c-0.456,0.38-0.904,0.769-1.355,1.155c-4.01,3.443-8.019,6.887-12.03,10.328
			c-0.143,0.123-0.269,0.254-0.357,0.42c0,0.13,0,0.26,0,0.39c0.326,0.51,0.687,0.564,1.145,0.169
			c0.295-0.254,0.588-0.51,0.886-0.762c0.06-0.05,0.114-0.154,0.205-0.106c0.085,0.045,0.044,0.152,0.044,0.231
			c0.003,2.16,0.004,4.321,0.004,6.481c0,2.652-0.001,5.303-0.002,7.955c0,0.341,0.07,0.646,0.39,0.836c7.68,0,15.36,0,23.04,0
			c0.326-0.18,0.405-0.468,0.405-0.82c-0.005-4.794-0.004-9.588-0.002-14.382c0-0.116-0.031-0.237,0.044-0.377
			c0.289,0.246,0.569,0.484,0.848,0.723c0.106,0.09,0.207,0.186,0.316,0.272c0.479,0.379,0.906,0.23,1.116-0.386
			c0-0.019,0-0.037,0-0.056C34.167,18.588,34.018,18.409,33.828,18.247z M24.766,9.281c-0.015-0.246,0.058-0.34,0.324-0.338
			c1.343,0.013,2.686,0.011,4.029,0.001c0.243-0.002,0.323,0.076,0.32,0.319c-0.012,0.815-0.005,1.63-0.005,2.445
			s0.001,1.63-0.002,2.445c0,0.078,0.036,0.186-0.062,0.222c-0.077,0.028-0.126-0.061-0.18-0.108
			c-1.378-1.181-2.753-2.365-4.138-3.539c-0.211-0.178-0.311-0.365-0.289-0.642C24.787,9.819,24.783,9.549,24.766,9.281z
			 M30.278,32.637c-3.431-0.008-6.861-0.005-10.292-0.005V32.63c-3.412,0-6.824,0-10.237-0.001c-0.405,0-0.406-0.004-0.406-0.395
			c0-4.859,0.003-9.717-0.007-14.576c-0.001-0.366,0.107-0.606,0.39-0.848c3.342-2.853,6.672-5.72,10.001-8.589
			c0.191-0.165,0.313-0.171,0.512,0.001c2.145,1.856,4.3,3.7,6.452,5.548c1.238,1.063,2.474,2.128,3.716,3.186
			c0.171,0.145,0.238,0.304,0.237,0.528c-0.005,4.933-0.006,9.866,0.002,14.799C30.647,32.574,30.548,32.637,30.278,32.637z"/>
	</g>
	<path d="M25.736,26.856c0.067-0.122,0.081-0.26,0.042-0.39c-0.038-0.129-0.123-0.236-0.243-0.302l-0.704-0.387l0.898-0.261
		c0.13-0.039,0.238-0.125,0.304-0.244s0.081-0.256,0.043-0.389c-0.081-0.266-0.37-0.423-0.631-0.347l-1.879,0.545l-2.656-1.46
		l2.619-1.587l1.855,0.455c0.132,0.033,0.27,0.012,0.386-0.059c0.117-0.07,0.199-0.182,0.232-0.314
		c0.033-0.132,0.011-0.27-0.059-0.386c-0.073-0.117-0.185-0.199-0.316-0.231l-0.863-0.212l0.66-0.4
		c0.117-0.071,0.199-0.183,0.231-0.315c0.033-0.133,0.012-0.271-0.059-0.386c-0.069-0.116-0.182-0.199-0.315-0.232
		c-0.134-0.033-0.27-0.011-0.386,0.059l-0.687,0.416l0.223-0.907c0.066-0.272-0.096-0.549-0.375-0.618
		c-0.273-0.067-0.549,0.101-0.617,0.373l-0.465,1.899l-2.593,1.569l-0.064-3.061l1.321-1.379c0.095-0.098,0.145-0.228,0.142-0.364
		c-0.003-0.136-0.058-0.263-0.156-0.356c-0.099-0.097-0.229-0.148-0.364-0.143c-0.137,0.002-0.264,0.058-0.358,0.157l-0.615,0.641
		l-0.016-0.772c-0.003-0.136-0.058-0.263-0.157-0.358c-0.1-0.099-0.231-0.146-0.365-0.141c-0.281,0.007-0.504,0.24-0.498,0.521
		l0.017,0.804l-0.675-0.647c-0.202-0.193-0.526-0.188-0.72,0.015c-0.094,0.098-0.145,0.228-0.141,0.364
		c0.003,0.137,0.058,0.264,0.157,0.358l1.41,1.353l0.064,3.03l-2.685-1.476l-0.533-1.834c-0.079-0.266-0.362-0.422-0.632-0.347
		c-0.131,0.038-0.239,0.125-0.304,0.244c-0.065,0.119-0.081,0.256-0.043,0.389l0.248,0.852l-0.676-0.372
		c-0.246-0.135-0.557-0.046-0.693,0.201s-0.045,0.558,0.201,0.693l0.705,0.387l-0.898,0.261c-0.268,0.079-0.424,0.362-0.346,0.633
		c0.076,0.252,0.386,0.42,0.632,0.347l1.877-0.546l2.656,1.46l-2.621,1.587l-1.854-0.455c-0.132-0.032-0.269-0.011-0.386,0.06
		c-0.116,0.071-0.198,0.182-0.23,0.314c-0.067,0.272,0.1,0.547,0.373,0.619l0.863,0.211l-0.658,0.399
		c-0.116,0.069-0.198,0.18-0.232,0.314c-0.033,0.134-0.011,0.271,0.059,0.388c0.141,0.23,0.468,0.311,0.701,0.171l0.688-0.416
		l-0.223,0.907c-0.055,0.224,0.047,0.457,0.249,0.568c0.039,0.021,0.08,0.037,0.125,0.049c0.132,0.032,0.269,0.011,0.386-0.06
		c0.116-0.071,0.198-0.183,0.229-0.314l0.467-1.899l2.591-1.57l0.065,3.064l-1.322,1.376c-0.194,0.205-0.187,0.529,0.015,0.721
		c0.094,0.093,0.221,0.144,0.358,0.142c0.138-0.001,0.271-0.059,0.366-0.157l0.614-0.641l0.016,0.769
		c0.001,0.131,0.056,0.257,0.155,0.353c0.098,0.095,0.231,0.15,0.366,0.149c0.137-0.004,0.264-0.06,0.358-0.159
		s0.145-0.227,0.141-0.363l-0.017-0.804l0.675,0.646c0.092,0.093,0.22,0.143,0.357,0.141c0.137-0.002,0.27-0.059,0.364-0.156
		c0.094-0.099,0.144-0.228,0.141-0.364c-0.003-0.135-0.058-0.261-0.157-0.358l-1.412-1.352l-0.064-3.03l2.686,1.476l0.532,1.834
		c0.078,0.263,0.366,0.422,0.633,0.347c0.269-0.08,0.425-0.363,0.347-0.631l-0.248-0.855l0.676,0.372
		C25.29,27.193,25.6,27.102,25.736,26.856z"/>
</g>
</svg>
