<?xml version="1.0" encoding="utf-8"?>
<!-- Generator: Adobe Illustrator 19.0.0, SVG Export Plug-In . SVG Version: 6.00 Build 0)  -->
<svg version="1.1" id="Livello_1" xmlns="http://www.w3.org/2000/svg" xmlns:xlink="http://www.w3.org/1999/xlink" x="0px" y="0px"
	 viewBox="0 0 40 40" enable-background="new 0 0 40 40" xml:space="preserve">
<g id="Livello_2_2_">
</g>
<g id="New_Symbol_232">
</g>
<g>
	<path fill="#000200" d="M30.081,9.623h-2.179V8.924c0-0.945-0.774-1.713-1.726-1.713h-0.1c-0.952,0-1.727,0.769-1.727,1.713v0.699
		h-2.573V8.924c0-0.945-0.774-1.713-1.726-1.713h-0.1c-0.952,0-1.726,0.769-1.726,1.713v0.699H15.3V8.924
		c0-0.945-0.774-1.713-1.725-1.713h-0.1c-0.952,0-1.726,0.769-1.726,1.713v0.699H9.919c-1.282,0-2.325,1.035-2.325,2.307v18.552
		c0,1.272,1.043,2.307,2.325,2.307h20.162c1.282,0,2.325-1.035,2.325-2.307V11.93C32.406,10.658,31.363,9.623,30.081,9.623z
		 M25.406,8.924c0-0.362,0.301-0.657,0.67-0.657h0.1c0.369,0,0.67,0.295,0.67,0.657v0.699v0.528v0.945c0,0.362-0.3,0.657-0.67,0.657
		h-0.1c-0.369,0-0.67-0.295-0.67-0.657v-0.945V9.623V8.924z M19.28,8.924c0-0.362,0.3-0.657,0.67-0.657h0.1
		c0.369,0,0.67,0.295,0.67,0.657v0.699v0.528v0.945c0,0.362-0.3,0.657-0.67,0.657h-0.1c-0.369,0-0.67-0.295-0.67-0.657v-0.945V9.623
		V8.924z M12.805,8.924c0-0.362,0.3-0.657,0.669-0.657h0.1c0.369,0,0.669,0.295,0.669,0.657v0.699v0.528v0.945
		c0,0.362-0.3,0.657-0.669,0.657h-0.1c-0.369,0-0.669-0.295-0.669-0.657v-0.945V9.623V8.924z M9.919,10.68h1.829v0.417
		c0,0.945,0.774,1.713,1.726,1.713h0.1c0.951,0,1.725-0.769,1.725-1.713V10.68h2.924v0.417c0,0.945,0.775,1.713,1.726,1.713h0.1
		c0.952,0,1.726-0.769,1.726-1.713V10.68h2.573v0.417c0,0.945,0.775,1.713,1.727,1.713h0.1c0.952,0,1.726-0.769,1.726-1.713V10.68
		h2.179c0.699,0,1.269,0.561,1.269,1.25v3.724H8.651V11.93C8.651,11.241,9.22,10.68,9.919,10.68z M30.081,31.733H9.919
		c-0.699,0-1.268-0.561-1.268-1.25V16.71h22.699v13.772C31.349,31.172,30.78,31.733,30.081,31.733z"/>
	<path fill="#000200" d="M17.483,19.328h-1.305l-2.836,2.411l0.502,0.688c0.034,0.047,0.087,0.089,0.158,0.125
		c0.071,0.037,0.149,0.055,0.235,0.055c0.056,0,0.112-0.009,0.17-0.026c0.058-0.017,0.115-0.049,0.17-0.096l1.338-1.119
		c-0.013,0.232-0.019,0.452-0.019,0.662v5.421H14.01v1.19h5.144v-1.19h-1.672V19.328z"/>
	<path fill="#000200" d="M26.099,27.16h-2.386c-0.18,0-0.369,0.016-0.566,0.048c-0.197,0.032-0.399,0.078-0.605,0.138l2.096-2.141
		c0.249-0.257,0.486-0.51,0.714-0.759c0.227-0.249,0.426-0.506,0.595-0.772c0.169-0.266,0.305-0.544,0.405-0.836
		c0.101-0.292,0.151-0.609,0.151-0.952c0-0.399-0.071-0.761-0.212-1.087c-0.141-0.326-0.339-0.605-0.591-0.836
		c-0.253-0.232-0.557-0.41-0.913-0.537c-0.356-0.126-0.748-0.19-1.177-0.19c-0.412,0-0.796,0.057-1.154,0.171
		c-0.358,0.114-0.675,0.283-0.952,0.508c-0.276,0.225-0.507,0.506-0.691,0.842c-0.184,0.337-0.309,0.728-0.373,1.174l0.836,0.148
		c0.077,0.013,0.148,0.019,0.212,0.019c0.146,0,0.266-0.035,0.36-0.106c0.094-0.071,0.165-0.187,0.212-0.351
		c0.099-0.326,0.271-0.585,0.518-0.778c0.247-0.193,0.56-0.289,0.942-0.289c0.206,0,0.391,0.029,0.556,0.087
		c0.165,0.058,0.308,0.145,0.428,0.26c0.12,0.116,0.212,0.258,0.276,0.428c0.064,0.169,0.096,0.366,0.096,0.588
		c0,0.244-0.033,0.477-0.1,0.698c-0.067,0.221-0.163,0.438-0.289,0.653c-0.126,0.214-0.283,0.431-0.469,0.649
		c-0.186,0.219-0.398,0.448-0.633,0.688l-2.823,2.829c-0.099,0.099-0.17,0.206-0.215,0.322c-0.045,0.116-0.068,0.227-0.068,0.334
		v0.527h6.379v-0.952c0-0.159-0.05-0.286-0.151-0.383C26.407,27.208,26.271,27.16,26.099,27.16z"/>
</g>
</svg>
