<?xml version="1.0" encoding="utf-8"?>
<!-- Generator: Adobe Illustrator 19.0.0, SVG Export Plug-In . SVG Version: 6.00 Build 0)  -->
<svg version="1.1" id="Livello_1" xmlns="http://www.w3.org/2000/svg" xmlns:xlink="http://www.w3.org/1999/xlink" x="0px" y="0px"
	 viewBox="0 0 40 40" enable-background="new 0 0 40 40" xml:space="preserve">
<g id="Livello_2_2_">
</g>
<g id="New_Symbol_232">
</g>
<path fill="#000200" d="M32.679,19.835c-0.033-0.335-0.315-0.59-0.651-0.59h-4.972c-0.319,0-0.592,0.231-0.645,0.546
	c-0.371,2.208-1.451,5.476-2.592,5.476c-1.225,0-2.598-3.364-3.601-5.821c-1.321-3.236-2.463-6.031-4.26-6.031
	c-2.197,0-3.23,4.273-3.562,6.031H8.602c0.004-2.005,0.678-8.428,8.94-10.354c3.778-0.881,7.211,0.071,10.204,2.828
	c1.141,1.051,2.001,2.181,2.577,3.049l-2.246-0.786c-0.341-0.119-0.714,0.061-0.834,0.401c-0.119,0.341,0.06,0.714,0.401,0.834
	l3.919,1.372c0.001,0,0.002,0.001,0.004,0.001l0.002,0.001c0.037,0.013,0.074,0.022,0.111,0.028
	c0.014,0.002,0.028,0.002,0.042,0.004c0.021,0.002,0.042,0.005,0.063,0.005c0.004,0,0.009-0.001,0.013-0.001
	c0.014,0,0.029-0.002,0.043-0.003c0.025-0.002,0.05-0.005,0.074-0.01c0.014-0.003,0.028-0.006,0.042-0.01
	c0.03-0.008,0.059-0.019,0.087-0.031c0.006-0.003,0.013-0.004,0.02-0.007c0.002-0.001,0.003-0.002,0.005-0.003
	c0.033-0.016,0.064-0.034,0.094-0.055c0.002-0.001,0.004-0.004,0.006-0.005c0.04-0.029,0.076-0.061,0.107-0.098
	c0.006-0.007,0.01-0.014,0.015-0.021c0.025-0.03,0.047-0.062,0.065-0.096c0.008-0.014,0.014-0.029,0.02-0.043
	c0.013-0.029,0.025-0.059,0.033-0.09c0.005-0.016,0.009-0.032,0.012-0.048c0.007-0.034,0.011-0.068,0.012-0.103
	c0-0.01,0.004-0.02,0.004-0.03v-4.056c0-0.361-0.293-0.654-0.654-0.654c-0.361,0-0.654,0.293-0.654,0.654v1.737
	c-2.058-2.909-6.672-7.72-13.887-6.038C6.484,10.327,7.312,20.067,7.321,20.165c0.033,0.335,0.315,0.59,0.651,0.59h4.972
	c0.322,0,0.596-0.234,0.646-0.552c0.521-3.278,1.644-5.48,2.366-5.48c0.918,0,2.149,3.016,3.049,5.217
	c1.393,3.412,2.709,6.634,4.813,6.634c2.342,0,3.433-4.27,3.782-6.022h3.798c-0.004,2.005-0.678,8.428-8.94,10.354
	c-3.778,0.881-7.211-0.071-10.204-2.828c-1.141-1.051-2.001-2.181-2.577-3.049l2.246,0.786c0.341,0.12,0.714-0.06,0.833-0.401
	c0.119-0.341-0.06-0.714-0.401-0.834L8.43,23.207c-0.005-0.002-0.01-0.002-0.015-0.003c-0.04-0.013-0.08-0.022-0.122-0.027
	c-0.017-0.002-0.034-0.002-0.051-0.003c-0.031-0.001-0.061-0.001-0.092,0.002c-0.018,0.002-0.036,0.004-0.054,0.008
	c-0.03,0.005-0.058,0.014-0.087,0.023c-0.018,0.006-0.035,0.011-0.052,0.019c-0.007,0.003-0.015,0.004-0.022,0.008
	c-0.025,0.012-0.047,0.027-0.07,0.042c-0.01,0.006-0.02,0.009-0.03,0.016c-0.002,0.002-0.004,0.004-0.006,0.005
	c-0.04,0.029-0.076,0.061-0.107,0.097c-0.006,0.007-0.01,0.015-0.016,0.022c-0.024,0.03-0.046,0.062-0.065,0.095
	c-0.008,0.014-0.014,0.029-0.02,0.043c-0.013,0.029-0.025,0.059-0.033,0.09c-0.005,0.016-0.009,0.032-0.012,0.049
	c-0.007,0.034-0.011,0.068-0.012,0.103c-0.001,0.01-0.004,0.02-0.004,0.03v4.056c0,0.361,0.293,0.654,0.654,0.654
	c0.361,0,0.654-0.293,0.654-0.654v-1.737c1.764,2.494,5.406,6.386,10.957,6.385c0.924,0,1.901-0.108,2.93-0.348
	C33.516,29.673,32.688,19.933,32.679,19.835z"/>
</svg>
