<?xml version="1.0" encoding="utf-8"?>
<!-- Generator: Adobe Illustrator 19.0.0, SVG Export Plug-In . SVG Version: 6.00 Build 0)  -->
<svg version="1.1" id="Livello_1" xmlns="http://www.w3.org/2000/svg" xmlns:xlink="http://www.w3.org/1999/xlink" x="0px" y="0px"
	 viewBox="0 0 40 40" enable-background="new 0 0 40 40" xml:space="preserve">
<g id="Livello_2_2_">
</g>
<g id="New_Symbol_232">
</g>
<g>
	<path fill="#000200" d="M11.196,14.467c1.761,0,3.193-1.508,3.193-3.361s-1.432-3.361-3.193-3.361s-3.193,1.508-3.193,3.361
		S9.435,14.467,11.196,14.467z M11.196,8.753c1.205,0,2.185,1.056,2.185,2.353s-0.98,2.353-2.185,2.353s-2.185-1.056-2.185-2.353
		S9.991,8.753,11.196,8.753z"/>
	<path fill="#000200" d="M20.187,12.955c1.993,0,3.613-1.702,3.613-3.795s-1.621-3.795-3.613-3.795
		c-1.992,0-3.613,1.702-3.613,3.795S18.195,12.955,20.187,12.955z M20.187,6.374c1.436,0,2.605,1.25,2.605,2.786
		s-1.169,2.786-2.605,2.786c-1.436,0-2.605-1.25-2.605-2.786S18.75,6.374,20.187,6.374z"/>
	<path fill="#000200" d="M14.799,26.366c-0.282-0.045-0.532,0.15-0.573,0.425l-0.821,5.561c-0.158,0.16-0.73,0.602-2.21,0.602
		c-0.825,0-1.191-0.207-1.353-0.382c-0.175-0.189-0.163-0.401-0.164-0.401c0.005-0.041,0.005-0.082,0-0.123l-0.672-5.545
		c-0.012-0.101-0.055-0.196-0.123-0.273l-1.328-1.507c-0.255-0.289-0.395-0.647-0.395-1.009v-4.643c0-1.208,0.273-2.082,0.81-2.599
		c0.364-0.35,0.769-0.452,0.996-0.483l2.193,2.375c0.191,0.207,0.55,0.207,0.741,0l2.353-2.548c0.189-0.205,0.176-0.524-0.028-0.712
		c-0.205-0.189-0.524-0.176-0.712,0.028l-1.982,2.147l-1.983-2.147c-0.088-0.096-0.21-0.154-0.34-0.161
		c-0.042-0.003-1.058-0.053-1.914,0.754c-0.757,0.713-1.141,1.839-1.141,3.346v4.643c0,0.608,0.23,1.203,0.647,1.676l1.225,1.39
		l0.647,5.343c-0.007,0.189,0.019,0.669,0.403,1.103c0.431,0.488,1.144,0.735,2.12,0.735c2.41,0,3.062-1.038,3.128-1.157
		c0.03-0.054,0.05-0.112,0.059-0.173l0.84-5.694C15.264,26.663,15.074,26.407,14.799,26.366z"/>
	<path fill="#000200" d="M28.804,14.467c1.761,0,3.193-1.508,3.193-3.361s-1.432-3.361-3.193-3.361
		c-1.761,0-3.193,1.508-3.193,3.361S27.044,14.467,28.804,14.467z M28.804,8.753c1.205,0,2.185,1.056,2.185,2.353
		s-0.98,2.353-2.185,2.353c-1.205,0-2.185-1.056-2.185-2.353S27.6,8.753,28.804,8.753z"/>
	<path fill="#000200" d="M32.705,15.726c-0.857-0.807-1.872-0.757-1.914-0.754c-0.13,0.007-0.252,0.065-0.34,0.161l-1.983,2.147
		l-1.982-2.147c-0.189-0.204-0.508-0.217-0.712-0.028c-0.204,0.189-0.217,0.508-0.028,0.712l2.353,2.548
		c0.095,0.103,0.229,0.162,0.37,0.162s0.275-0.059,0.37-0.162l2.193-2.375c0.225,0.03,0.624,0.131,0.983,0.469
		c0.547,0.515,0.824,1.394,0.824,2.612v4.643c0,0.362-0.14,0.721-0.395,1.009l-1.328,1.507c-0.067,0.076-0.11,0.171-0.123,0.273
		l-0.672,5.545c-0.005,0.041-0.004,0.082,0,0.123c0,0.001,0.01,0.203-0.152,0.387c-0.228,0.258-0.7,0.394-1.364,0.394
		c-1.496,0-2.064-0.452-2.209-0.598l-0.821-5.565c-0.04-0.275-0.292-0.463-0.573-0.425c-0.275,0.041-0.466,0.297-0.425,0.573
		l0.84,5.694c0.009,0.061,0.029,0.119,0.059,0.173c0.066,0.118,0.718,1.157,3.128,1.157c0.976,0,1.689-0.247,2.12-0.735
		c0.384-0.434,0.41-0.914,0.403-1.103l0.647-5.343l1.225-1.389c0.417-0.473,0.647-1.068,0.647-1.676v-4.643
		C33.846,17.565,33.463,16.439,32.705,15.726z"/>
	<path fill="#000200" d="M25.02,25.021c0.406-0.516,0.629-1.161,0.629-1.817v-5.207c0-1.757-0.419-3.04-1.247-3.813
		c-0.833-0.779-1.773-0.724-1.812-0.723c-0.127,0.008-0.245,0.064-0.332,0.156l-2.156,2.268l-2.156-2.268
		c-0.087-0.092-0.205-0.148-0.332-0.156c-0.039,0-0.979-0.056-1.812,0.723c-0.827,0.774-1.247,2.057-1.247,3.813v5.207
		c0,0.656,0.223,1.301,0.628,1.817l1.238,1.576l0.652,6.032c-0.008,0.199,0.012,0.769,0.457,1.266
		c0.439,0.491,1.134,0.74,2.066,0.74c0.18,0,0.345-0.008,0.504-0.02c0.159,0.012,0.324,0.02,0.504,0.02
		c0.932,0,1.627-0.249,2.066-0.74c0.445-0.497,0.465-1.066,0.457-1.266l0.652-6.032L25.02,25.021z M22.9,26.088
		c-0.059,0.074-0.095,0.163-0.105,0.258l-0.672,6.219c-0.004,0.036-0.004,0.073,0,0.11c0,0.003,0.018,0.304-0.201,0.549
		c-0.236,0.264-0.691,0.404-1.315,0.404c-0.167,0-0.319-0.009-0.465-0.02c-0.013-0.001-0.026-0.001-0.039-0.001
		c-0.013,0-0.026,0-0.039,0.001c-0.146,0.011-0.298,0.02-0.465,0.02c-0.615,0-1.067-0.136-1.306-0.394
		c-0.23-0.249-0.21-0.554-0.21-0.559c0.004-0.036,0.004-0.073,0-0.11l-0.673-6.219c-0.01-0.094-0.046-0.183-0.105-0.258l-1.328-1.69
		c-0.266-0.339-0.413-0.763-0.413-1.194v-5.207c0-1.431,0.315-2.489,0.909-3.06c0.339-0.326,0.697-0.426,0.903-0.457l2.36,2.484
		c0.19,0.201,0.541,0.201,0.731,0l2.36-2.483c0.207,0.031,0.564,0.132,0.903,0.457c0.595,0.571,0.909,1.629,0.909,3.06v5.207
		c0,0.431-0.147,0.855-0.413,1.194L22.9,26.088z"/>
</g>
</svg>
