<?xml version="1.0" encoding="utf-8"?>
<!-- Generator: Adobe Illustrator 19.0.0, SVG Export Plug-In . SVG Version: 6.00 Build 0)  -->
<svg version="1.1" id="Livello_1" xmlns="http://www.w3.org/2000/svg" xmlns:xlink="http://www.w3.org/1999/xlink" x="0px" y="0px"
	 viewBox="0 0 40 40" enable-background="new 0 0 40 40" xml:space="preserve">
<g id="Livello_2_2_">
</g>
<g id="New_Symbol_232">
</g>
<path fill="#1A171B" d="M35.957,14.528L25.13,3.702c-0.178-0.18-0.498-0.18-0.676,0L4.381,23.777
	c-0.087,0.086-0.137,0.202-0.141,0.324l-0.338,11.84c-0.004,0.137,0.051,0.268,0.15,0.362c0.09,0.084,0.207,0.13,0.328,0.13
	c0.015,0,0.029-0.001,0.043-0.002l11.164-1.014c0.111-0.01,0.216-0.06,0.295-0.139l20.073-20.074
	C36.144,15.018,36.144,14.715,35.957,14.528z M15.33,34.48L4.875,35.429l0.317-11.11L19.616,9.894l10.149,10.15L15.33,34.48z
	 M30.425,19.384L20.276,9.234l4.516-4.517l10.149,10.149L30.425,19.384z"/>
</svg>
