<?xml version="1.0" encoding="utf-8"?>
<!-- Generator: Adobe Illustrator 19.0.0, SVG Export Plug-In . SVG Version: 6.00 Build 0)  -->
<svg version="1.1" id="Livello_1" xmlns="http://www.w3.org/2000/svg" xmlns:xlink="http://www.w3.org/1999/xlink" x="0px" y="0px"
	 viewBox="0 0 40 40" enable-background="new 0 0 40 40" xml:space="preserve">
<g id="Livello_2_2_">
</g>
<g id="New_Symbol_232">
</g>
<g>
	<path fill="#000200" d="M8.18,18.326h7.964c0.154,0,0.281-0.126,0.281-0.281v-0.056c0-0.154-0.126-0.281-0.281-0.281H8.18
		c-0.154,0-0.281,0.126-0.281,0.281v0.056C7.899,18.2,8.025,18.326,8.18,18.326z"/>
	<path fill="#000200" d="M8.18,20h7.964c0.154,0,0.281-0.126,0.281-0.281v-0.056c0-0.154-0.126-0.281-0.281-0.281H8.18
		c-0.154,0-0.281,0.126-0.281,0.281v0.056C7.899,19.874,8.025,20,8.18,20z"/>
	<path fill="#000200" d="M16.424,21.461v-0.056c0-0.154-0.126-0.281-0.281-0.281H8.18c-0.154,0-0.281,0.126-0.281,0.281v0.056
		c0,0.154,0.126,0.281,0.281,0.281h7.964C16.298,21.742,16.424,21.615,16.424,21.461z"/>
	<path fill="#000200" d="M35.276,10.127L35.276,10.127c-0.088-0.288-0.373-0.468-0.667-0.426c-6.545,0.913-10.66,3.149-12.229,6.646
		c-1.864,4.15,0.479,8.634,1.242,9.908l0.029,0.049l-0.017,0.054c-0.822,2.599-3.379,5.378-6.499,5.408
		c-2.029,0.002-3.514-1.241-4.17-3.513c-0.034-0.118-0.091-0.52-0.091-0.52h1.388c0.734,0,1.129-0.281,1.332-0.517
		c0.324-0.376,0.329-0.812,0.315-0.981l0-0.613l0.106-0.017c0.796-0.119,1.44-0.451,1.915-0.987
		c0.938-1.057,0.858-2.549,0.833-2.838l0-6.562h1.207c0.336,0,0.609-0.273,0.609-0.609V14.28c0-0.336-0.273-0.608-0.609-0.608h-4.53
		l0.015-6.047c0-0.336-0.273-0.608-0.609-0.608s-0.609,0.272-0.609,0.608l-0.02,6.047H9.751L9.746,7.625
		c0-0.336-0.273-0.608-0.609-0.608S8.528,7.289,8.528,7.625v6.047H4.467c-0.336,0-0.609,0.272-0.609,0.608v0.329
		c0,0.336,0.273,0.609,0.609,0.609h1.208v6.551c-0.026,0.299-0.107,1.79,0.832,2.849c0.475,0.536,1.119,0.868,1.916,0.987
		l0.106,0.017v0.604c-0.014,0.18-0.011,0.613,0.314,0.99c0.203,0.236,0.598,0.518,1.332,0.518h1.324c0,0,0.229,0.626,0.296,0.856
		c0.805,2.792,2.734,4.394,5.292,4.394h0.061c3.214-0.03,6.403-2.573,7.58-6.046l0.03-0.089l0.093,0.004
		c4.169,0.165,7.245-0.96,9.139-3.349C37.831,18.657,35.383,10.473,35.276,10.127z M10.175,26.515c-0.125,0-0.21-0.013-0.263-0.022
		l-0.167-0.163c0.003-0.025,0.001-0.041,0.001-0.067v-1.214c0-0.336-0.273-0.608-0.609-0.608c-0.767,0-1.343-0.21-1.714-0.624
		c-0.629-0.702-0.547-1.809-0.536-1.933c0.004-0.03,0.005-0.055,0.005-0.078v-6.68h10.652v6.68c0,0.022,0.001,0.048,0.004,0.07
		c0.012,0.127,0.097,1.235-0.535,1.94c-0.371,0.414-0.947,0.624-1.714,0.624c-0.336,0-0.609,0.272-0.609,0.608v1.214
		c0,0.004-0.001,0.004-0.003,0c0.005,0.012,0.009,0.024,0.014,0.041l0.025,0.09l-0.08,0.05c-0.043,0.026-0.15,0.072-0.385,0.072
		H10.175z M33.033,22.75c-1.528,1.925-4.015,2.9-7.395,2.9c-0.118,0-0.236-0.002-0.356-0.004l-0.167-0.003l0.051-0.16
		c1.807-5.691,5.605-9.021,5.644-9.055c0.254-0.219,0.284-0.604,0.065-0.858c-0.106-0.123-0.254-0.198-0.416-0.211
		s-0.32,0.039-0.443,0.146c-0.153,0.132-3.776,3.285-5.762,8.863l-0.104,0.291l-0.128-0.281c-0.737-1.618-1.785-4.75-0.528-7.54
		c1.339-2.973,4.919-4.936,10.638-5.834l0.114-0.019l0.027,0.112C34.716,12.907,35.931,19.098,33.033,22.75z"/>
</g>
</svg>
