<?xml version="1.0" encoding="utf-8"?>
<!-- Generator: Adobe Illustrator 19.0.0, SVG Export Plug-In . SVG Version: 6.00 Build 0)  -->
<svg version="1.1" id="Livello_1" xmlns="http://www.w3.org/2000/svg" xmlns:xlink="http://www.w3.org/1999/xlink" x="0px" y="0px"
	 viewBox="0 0 40 40" enable-background="new 0 0 40 40" xml:space="preserve">
<g id="Livello_2_2_">
</g>
<g id="New_Symbol_232">
</g>
<g>
	<path fill="#000200" d="M29.842,21.665c-0.367,0-0.724,0.037-1.074,0.094c0.355-0.986,0.542-2.036,0.542-3.117
		c0-5.136-4.178-9.313-9.31-9.313c-0.079,0-0.157,0.009-0.235,0.012c-0.079-0.003-0.156-0.012-0.235-0.012
		c-5.132,0-9.31,4.178-9.31,9.313c0,2.857,1.301,5.503,3.577,7.295c0.042,0.061,0.095,0.117,0.159,0.16
		c0.015,0.009,1.221,0.821,1.221,2.377c0,0.024,0.025,0.04,0.025,0.063c0.004,0.022-0.017,0.04-0.011,0.06l1.528,6.98
		c0.059,0.267,0.295,0.458,0.57,0.458h1.921h1.112h1.921c0.275,0,0.511-0.191,0.57-0.458l0.963-4.4
		c1.064,2.288,3.378,3.878,6.068,3.878c3.698,0,6.695-2.998,6.695-6.695C36.537,24.663,33.539,21.665,29.842,21.665z M29.199,24.423
		h1.312v5.448h-1.312V24.423z M14.777,25.253c-0.036-0.047-0.078-0.09-0.129-0.128c-2.074-1.569-3.262-3.931-3.262-6.483
		c0-4.383,3.481-7.958,7.821-8.129v0.024c0.183-0.018,0.929-0.018,1.112,0v-0.024c4.34,0.17,7.821,3.746,7.821,8.129
		c0,1.24-0.285,2.433-0.812,3.515c-2.313,0.938-3.978,3.129-4.159,5.732h-6.868C16.096,26.454,15.172,25.573,14.777,25.253z
		 M21.771,34.869H20.32h-1.112h-1.451l-0.125-0.573h1.576h1.112h1.576L21.771,34.869z M22.152,33.126H20.32h-1.112h-1.832
		l-0.129-0.579h1.961h1.112h1.96L22.152,33.126z M22.535,31.378H20.32h-1.112h-2.215l-0.507-2.322h2.722h1.112h2.722L22.535,31.378z
		 M30.614,31.788c-0.044,0.103-0.104,0.191-0.178,0.265c-0.074,0.074-0.162,0.134-0.263,0.178c-0.101,0.044-0.208,0.066-0.321,0.066
		c-0.117,0-0.227-0.022-0.329-0.066c-0.103-0.044-0.192-0.104-0.268-0.178c-0.076-0.074-0.137-0.163-0.183-0.265
		c-0.046-0.103-0.069-0.212-0.069-0.329c0-0.113,0.023-0.219,0.069-0.319c0.046-0.099,0.107-0.186,0.183-0.26
		c0.076-0.074,0.166-0.134,0.268-0.178c0.103-0.044,0.212-0.066,0.329-0.066c0.113,0,0.22,0.022,0.321,0.066
		c0.101,0.044,0.188,0.104,0.263,0.178c0.074,0.074,0.134,0.161,0.178,0.26c0.044,0.099,0.066,0.205,0.066,0.319
		C30.68,31.576,30.658,31.685,30.614,31.788z"/>
	<path fill="#000200" d="M19.735,7.055c0.01,0,0.018-0.005,0.029-0.006c0.01,0.001,0.018,0.006,0.028,0.006
		c0.322,0,0.581-0.262,0.581-0.584V2.549c0-0.323-0.259-0.585-0.581-0.585c-0.01,0-0.018,0.005-0.028,0.006
		c-0.01-0.001-0.018-0.006-0.029-0.006c-0.322,0-0.581,0.261-0.581,0.585v3.922C19.154,6.792,19.413,7.055,19.735,7.055z"/>
	<path fill="#000200" d="M11.002,10.329c0.117,0.114,0.265,0.172,0.414,0.172c0.154,0,0.301-0.058,0.413-0.172
		c0.227-0.23,0.227-0.597,0-0.827L9.057,6.729C8.83,6.5,8.46,6.5,8.232,6.729c-0.225,0.229-0.225,0.597,0,0.828L11.002,10.329z"/>
	<path fill="#000200" d="M8.556,18.234c0-0.321-0.261-0.585-0.581-0.585H4.047c-0.322,0-0.584,0.263-0.584,0.585
		c0,0.322,0.261,0.585,0.584,0.585h3.928C8.295,18.819,8.556,18.557,8.556,18.234z"/>
	<path fill="#000200" d="M11.01,26.136l-2.779,2.777c-0.225,0.227-0.225,0.596,0,0.823c0.116,0.116,0.263,0.173,0.415,0.173
		c0.144,0,0.297-0.057,0.411-0.173l2.777-2.773c0.227-0.23,0.227-0.598,0-0.827C11.61,25.912,11.239,25.908,11.01,26.136z"/>
	<path fill="#000200" d="M28.112,10.501c0.149,0,0.298-0.058,0.414-0.172l2.771-2.772c0.225-0.231,0.225-0.599,0-0.828
		c-0.228-0.228-0.598-0.228-0.826,0l-2.772,2.773c-0.227,0.23-0.227,0.597,0,0.827C27.811,10.443,27.958,10.501,28.112,10.501z"/>
	<path fill="#000200" d="M30.972,18.234c0,0.322,0.261,0.585,0.581,0.585h3.928c0.322,0,0.584-0.262,0.584-0.585
		c0-0.321-0.261-0.585-0.584-0.585h-3.928C31.233,17.65,30.972,17.913,30.972,18.234z"/>
</g>
</svg>
