<?xml version="1.0" encoding="utf-8"?>
<!-- Generator: Adobe Illustrator 19.0.0, SVG Export Plug-In . SVG Version: 6.00 Build 0)  -->
<svg version="1.1" id="Livello_1" xmlns="http://www.w3.org/2000/svg" xmlns:xlink="http://www.w3.org/1999/xlink" x="0px" y="0px"
	 viewBox="0 0 40 40" enable-background="new 0 0 40 40" xml:space="preserve">
<g id="Livello_2_2_">
</g>
<g id="New_Symbol_232">
</g>
<g>
	<path fill="#000200" d="M33.515,29.352c-0.001-0.015-0.002-0.03-0.004-0.045c-0.005-0.03-0.012-0.058-0.021-0.086
		c-0.002-0.008-0.003-0.017-0.006-0.025l-2.648-7.062V9.715c0-1.29-1.049-2.34-2.339-2.34H11.504c-1.29,0-2.339,1.049-2.339,2.34
		v12.42l-2.648,7.062c-0.003,0.008-0.003,0.017-0.006,0.025c-0.009,0.028-0.016,0.056-0.021,0.086
		c-0.002,0.015-0.003,0.03-0.004,0.045c-0.001,0.013-0.004,0.025-0.004,0.038v0.894c0,1.291,1.05,2.341,2.34,2.341h22.358
		c1.29,0,2.34-1.05,2.34-2.341V29.39C33.519,29.377,33.516,29.365,33.515,29.352z M10.267,9.715c0-0.682,0.555-1.237,1.237-1.237
		h16.992c0.682,0,1.237,0.555,1.237,1.237v11.968H10.267V9.715z M10.098,22.786h19.803l2.27,6.053H7.828L10.098,22.786z
		 M32.416,30.284c0,0.683-0.555,1.238-1.237,1.238H8.821c-0.682,0-1.237-0.556-1.237-1.238v-0.342h24.832V30.284z"/>
	<path fill="#000200" d="M10.953,20.997h18.095V9.164H10.953V20.997z M12.055,10.266h15.89v9.628h-15.89V10.266z"/>
	<path fill="#000200" d="M16.026,24.366l-1.263,3.786h10.474l-1.263-3.786H16.026z M16.293,27.05l0.527-1.581h6.359l0.527,1.581
		H16.293z"/>
</g>
</svg>
