<?xml version="1.0" encoding="utf-8"?>
<!-- Generator: Adobe Illustrator 19.0.0, SVG Export Plug-In . SVG Version: 6.00 Build 0)  -->
<svg version="1.1" id="Livello_1" xmlns="http://www.w3.org/2000/svg" xmlns:xlink="http://www.w3.org/1999/xlink" x="0px" y="0px"
	 viewBox="0 0 40 40" enable-background="new 0 0 40 40" xml:space="preserve">
<g id="Livello_2_2_">
</g>
<g id="New_Symbol_232">
</g>
<path fill="#1A171B" d="M20,1.595c-10.201,0-18.5,8.299-18.5,18.5c0,10.201,8.299,18.5,18.5,18.5c10.201,0,18.5-8.299,18.5-18.5
	C38.5,9.894,30.201,1.595,20,1.595z M25.083,12.677c0.552,0,1,0.447,1,1c0,0.553-0.448,1-1,1c-0.552,0-1-0.447-1-1
	C24.083,13.125,24.531,12.677,25.083,12.677z M14.417,12.677c0.552,0,1,0.447,1,1c0,0.553-0.448,1-1,1c-0.552,0-1-0.447-1-1
	C13.417,13.125,13.864,12.677,14.417,12.677z M20.016,31.495c-3.851,0-7.36-1.957-9.389-5.235l0.851-0.525
	c1.845,2.981,5.037,4.761,8.538,4.761c3.477,0,6.658-1.761,8.508-4.711l0.848,0.531C27.337,29.558,23.84,31.495,20.016,31.495z"/>
</svg>
