<?xml version="1.0" encoding="utf-8"?>
<!-- Generator: Adobe Illustrator 19.0.0, SVG Export Plug-In . SVG Version: 6.00 Build 0)  -->
<svg version="1.1" id="Livello_1" xmlns="http://www.w3.org/2000/svg" xmlns:xlink="http://www.w3.org/1999/xlink" x="0px" y="0px"
	 viewBox="0 0 40 40" enable-background="new 0 0 40 40" xml:space="preserve">
<g id="Livello_2_2_">
</g>
<g id="New_Symbol_232">
</g>
<g>
	<path fill="#000200" d="M33.828,18.035c-0.945-0.806-1.879-1.626-2.833-2.422c-0.219-0.183-0.288-0.371-0.287-0.642
		c0.008-2.216,0.005-4.433,0.004-6.649c0-0.584-0.249-0.834-0.827-0.834c-1.039-0.001-2.077-0.002-3.116-0.002
		c-0.835,0-1.669-0.004-2.504,0.005c-0.518,0.006-0.745,0.244-0.749,0.754c-0.002,0.204,0.003,0.408-0.002,0.612
		c-0.002,0.08,0.041,0.189-0.039,0.233c-0.09,0.049-0.141-0.062-0.2-0.112c-0.936-0.802-1.87-1.608-2.805-2.411
		c-0.326-0.28-0.617-0.288-0.949-0.012c-0.456,0.38-0.904,0.768-1.355,1.155c-4.01,3.443-8.019,6.887-12.03,10.328
		c-0.143,0.123-0.269,0.254-0.357,0.42c0,0.13,0,0.26,0,0.39c0.326,0.51,0.687,0.564,1.145,0.169
		c0.295-0.254,0.588-0.51,0.886-0.762c0.06-0.05,0.114-0.154,0.205-0.106c0.085,0.045,0.044,0.152,0.044,0.231
		c0.002,2.16,0.004,4.321,0.004,6.481c0,2.652-0.001,5.303-0.002,7.955c0,0.341,0.07,0.646,0.39,0.836c7.68,0,15.36,0,23.04,0
		c0.326-0.18,0.405-0.468,0.405-0.82c-0.005-4.794-0.004-9.588-0.002-14.382c0-0.116-0.031-0.237,0.044-0.377
		c0.289,0.246,0.569,0.484,0.848,0.723c0.106,0.09,0.207,0.186,0.316,0.272c0.479,0.379,0.907,0.23,1.116-0.386
		c0-0.019,0-0.037,0-0.056C34.167,18.376,34.018,18.197,33.828,18.035z M24.766,9.069c-0.015-0.246,0.057-0.34,0.324-0.338
		c1.343,0.013,2.686,0.011,4.029,0.001c0.243-0.002,0.323,0.076,0.32,0.319c-0.012,0.815-0.005,1.63-0.005,2.445
		c0,0.815,0.001,1.63-0.002,2.445c0,0.078,0.036,0.186-0.062,0.222c-0.077,0.028-0.126-0.061-0.18-0.108
		c-1.378-1.181-2.753-2.365-4.138-3.539c-0.21-0.178-0.31-0.365-0.288-0.642C24.787,9.607,24.783,9.337,24.766,9.069z
		 M30.278,32.425c-3.431-0.008-6.861-0.005-10.292-0.005v-0.002c-3.412,0-6.824,0-10.237-0.001c-0.405,0-0.406-0.004-0.406-0.395
		c0-4.859,0.003-9.717-0.007-14.576c-0.001-0.366,0.107-0.606,0.39-0.848c3.342-2.853,6.672-5.72,10.001-8.589
		c0.191-0.165,0.313-0.171,0.512,0.001c2.145,1.856,4.3,3.7,6.452,5.548c1.238,1.063,2.474,2.128,3.716,3.186
		c0.171,0.145,0.238,0.304,0.237,0.528c-0.005,4.933-0.006,9.866,0.002,14.799C30.647,32.362,30.548,32.425,30.278,32.425z"/>
	<path fill="#000200" d="M23.149,18.245c-0.326,0.228-0.583-0.304-0.821-0.539c-1.223-1.21-2.639-2.138-4.198-2.839
		c-0.811-0.365-1.31-0.246-1.07,0.844c0.385,1.747-0.224,3.252-1.229,4.644c-0.392,0.543-0.815,1.071-1.147,1.651
		c-2.31,4.032,0.322,8.703,4.965,8.832c3.839,0.107,6.258-2.506,6.25-6.745c0.004-1.676-0.322-3.29-0.995-4.82
		C24.589,18.558,24.561,17.255,23.149,18.245z M20.624,29.375c-0.556,0.468-0.938,0.259-1.386-0.107
		c-1.62-1.324-1.728-3.949-0.175-5.922c0.378,0.941,0.848,1.733,2.045,1.202c0.243-0.108,0.382,0.051,0.504,0.277
		C22.28,26.059,21.735,28.44,20.624,29.375z M24.641,26.597c-0.374,1.217-1.107,2.173-2.576,2.736c0.77-1.8,0.823-3.455,0.318-5.124
		c-0.227-0.75-0.425-1.376-1.44-0.685c-0.911,0.619-0.838-0.28-0.97-0.802c-0.145-0.575,0.361-1.523-0.346-1.673
		c-0.801-0.17-1,0.861-1.334,1.442c-1.552,2.691-1.618,4.269-0.376,6.931c-1.902-0.412-3.53-2.898-3.194-4.865
		c0.193-1.127,0.691-2.111,1.351-3.03c1.697-2.364,1.843-2.747,2.133-5.495c1.621,0.586,2.834,1.661,3.973,2.844
		c0.389,0.404,0.669,1.009,1.417,0.524c0.346-0.224,0.434,0.151,0.526,0.388C24.981,22.003,25.355,24.271,24.641,26.597z"/>
</g>
</svg>
