<?xml version="1.0" encoding="utf-8"?>
<!-- Generator: Adobe Illustrator 19.0.0, SVG Export Plug-In . SVG Version: 6.00 Build 0)  -->
<svg version="1.1" id="Livello_1" xmlns="http://www.w3.org/2000/svg" xmlns:xlink="http://www.w3.org/1999/xlink" x="0px" y="0px"
	 viewBox="0 0 40 40" enable-background="new 0 0 40 40" xml:space="preserve">
<g id="Livello_2_2_">
</g>
<g id="New_Symbol_232">
</g>
<g>
	<path fill="#1A171B" d="M20.995,14.359c0.81,0,1.47-0.662,1.47-1.47v-1.474c0-0.804-0.66-1.469-1.47-1.469
		c-0.81,0-1.472,0.666-1.472,1.469v1.474C19.524,13.697,20.186,14.359,20.995,14.359L20.995,14.359z M20.995,14.359"/>
	<path fill="#1A171B" d="M18.056,20.241h1.467v8.333c0,0.808,0.662,1.47,1.472,1.47c0.81,0,1.47-0.662,1.47-1.47v-9.803
		c0-0.807-0.66-1.469-1.47-1.469h-2.939c-0.811,0-1.472,0.662-1.472,1.469C16.585,19.579,17.246,20.241,18.056,20.241L18.056,20.241
		z M18.056,20.241"/>
	<g>
		<path fill="#1A171B" d="M20,38.25c-10.063,0-18.25-8.187-18.25-18.249C1.75,9.938,9.937,1.75,20,1.75s18.25,8.188,18.25,18.251
			C38.25,30.063,30.063,38.25,20,38.25z M20,3.077c-9.331,0-16.923,7.592-16.923,16.924c0,9.331,7.592,16.921,16.923,16.921
			s16.923-7.59,16.923-16.921C36.923,10.669,29.331,3.077,20,3.077z"/>
	</g>
</g>
</svg>
