<?xml version="1.0" encoding="utf-8"?>
<!-- Generator: Adobe Illustrator 19.0.0, SVG Export Plug-In . SVG Version: 6.00 Build 0)  -->
<svg version="1.1" id="Livello_1" xmlns="http://www.w3.org/2000/svg" xmlns:xlink="http://www.w3.org/1999/xlink" x="0px" y="0px"
	 viewBox="0 0 40 40" enable-background="new 0 0 40 40" xml:space="preserve">
<g id="Livello_2_2_">
</g>
<g id="New_Symbol_232">
</g>
<g>
	<g>
		<path fill="#000200" d="M24.887,26.387l-4.509-4.509c-0.1-0.1-0.391-0.141-0.391-0.141c-0.135-0.001-0.267,0.041-0.367,0.141
			l-4.51,4.509c-0.207,0.207-0.196,0.555,0.026,0.776c0.22,0.221,0.568,0.232,0.774,0.025l3.02-3.018
			c0.161-0.141,0.476-0.065,0.474,0.084l-0.113,8.781c-0.006,0.442,0.282,0.805,0.642,0.81c0.359,0.006,0.655-0.351,0.661-0.793
			l0.112-8.781c0.002-0.131,0.24-0.207,0.363-0.101l3.019,3.018c0.206,0.207,0.555,0.197,0.776-0.025
			C25.086,26.942,25.095,26.595,24.887,26.387z"/>
	</g>
	<path fill="#000200" d="M20,15.541c-4.75,0-8.615,3.864-8.615,8.614c0,0.359,0.292,0.651,0.651,0.651
		c0.359,0,0.651-0.292,0.651-0.651c0-4.032,3.281-7.312,7.313-7.312c4.032,0,7.313,3.28,7.313,7.312
		c0,0.359,0.292,0.651,0.651,0.651c0.359,0,0.651-0.292,0.651-0.651C28.615,19.406,24.75,15.541,20,15.541z"/>
	<path fill="#000200" d="M19.729,13.307c0.32,0,0.581-0.262,0.581-0.583V6.738c0-0.321-0.261-0.583-0.581-0.583
		c-0.321,0-0.583,0.261-0.583,0.583v5.986C19.146,13.045,19.407,13.307,19.729,13.307z"/>
	<path fill="#000200" d="M37.417,23.572H31.43c-0.321,0-0.583,0.261-0.583,0.582c0,0.321,0.261,0.583,0.583,0.583h5.986
		c0.321,0,0.583-0.262,0.583-0.583C38,23.834,37.738,23.572,37.417,23.572z"/>
	<path fill="#000200" d="M8.569,23.572H2.582C2.261,23.572,2,23.834,2,24.155c0,0.321,0.261,0.583,0.582,0.583h5.986
		c0.322,0,0.583-0.262,0.583-0.583C9.152,23.834,8.89,23.572,8.569,23.572z"/>
	<path fill="#000200" d="M28.002,15.971L28.002,15.971l4.234-4.234c0.11-0.11,0.17-0.256,0.17-0.412c0-0.155-0.06-0.302-0.17-0.411
		c-0.11-0.111-0.257-0.172-0.413-0.172h0c-0.155,0-0.301,0.06-0.41,0.17l-4.235,4.234c-0.226,0.227-0.226,0.598,0.001,0.825
		C27.405,16.198,27.775,16.198,28.002,15.971z"/>
	<path fill="#000200" d="M10.417,16.756c0.22,0.22,0.604,0.22,0.824,0c0.226-0.227,0.226-0.596-0.001-0.823l-4.234-4.235
		c-0.109-0.11-0.255-0.17-0.411-0.17s-0.302,0.06-0.412,0.17c-0.11,0.11-0.17,0.257-0.17,0.412c0,0.155,0.06,0.301,0.17,0.411
		L10.417,16.756z"/>
</g>
</svg>
