<?xml version="1.0" encoding="utf-8"?>
<!-- Generator: Adobe Illustrator 19.0.0, SVG Export Plug-In . SVG Version: 6.00 Build 0)  -->
<svg version="1.1" id="Livello_1" xmlns="http://www.w3.org/2000/svg" xmlns:xlink="http://www.w3.org/1999/xlink" x="0px" y="0px"
	 viewBox="0 0 40 40" enable-background="new 0 0 40 40" xml:space="preserve">
<g id="Livello_2_2_">
</g>
<g id="New_Symbol_232">
</g>
<g>
	<path fill="#000200" d="M19.959,6.249c0.016-0.003,0.029-0.005,0.036-0.006c0.017,0,0.041,0.004,0.055,0.008
		c0.258-0.002,0.483-0.229,0.483-0.507V1.508c0-0.279-0.226-0.506-0.503-0.506c-0.004,0-0.031,0.006-0.036,0.006
		C19.974,1.007,19.958,1.002,19.949,1c-0.258,0.002-0.483,0.229-0.483,0.508v4.235C19.466,6.019,19.687,6.243,19.959,6.249z"/>
	<path fill="#000200" d="M10.626,9.82c0.202,0.195,0.53,0.189,0.717,0.001c0.198-0.201,0.198-0.516,0-0.717L8.35,6.11
		c-0.189-0.19-0.523-0.192-0.714,0C7.441,6.307,7.442,6.629,7.637,6.829L10.626,9.82z"/>
	<path fill="#000200" d="M7.27,17.939H3.028c-0.278,0-0.505,0.227-0.505,0.506s0.227,0.506,0.505,0.506H7.27
		c0.277,0,0.503-0.227,0.503-0.506S7.547,17.939,7.27,17.939z"/>
	<path fill="#000200" d="M10.635,27.066l-3,2.998c-0.193,0.196-0.193,0.516,0.001,0.713c0.192,0.192,0.527,0.193,0.713,0.001
		l3.001-2.996c0.195-0.198,0.195-0.519-0.001-0.716C11.15,26.87,10.831,26.871,10.635,27.066z"/>
	<path fill="#000200" d="M29.374,9.82l2.989-2.992c0.193-0.198,0.194-0.521,0-0.718c-0.095-0.095-0.222-0.148-0.356-0.148
		c-0.136,0-0.263,0.053-0.357,0.148l-2.992,2.994c-0.199,0.201-0.199,0.516,0,0.717C28.842,10.01,29.172,10.016,29.374,9.82z"/>
	<path fill="#000200" d="M36.971,17.939h-4.241c-0.276,0-0.502,0.227-0.502,0.506s0.226,0.506,0.502,0.506h4.241
		c0.279,0,0.506-0.227,0.506-0.506S37.25,17.939,36.971,17.939z"/>
	<path fill="#000200" d="M29.364,27.066c-0.099-0.098-0.228-0.147-0.357-0.147c-0.129,0-0.259,0.049-0.357,0.147
		c-0.195,0.196-0.195,0.518,0.001,0.716l2.998,2.994c0.193,0.196,0.523,0.192,0.715,0c0.194-0.197,0.194-0.517,0-0.713
		L29.364,27.066z"/>
	<path fill="#000200" d="M20.254,8.955c-0.048,0-0.095,0.003-0.142,0.006c-0.035,0.002-0.071,0.005-0.108,0.006
		c-0.045-0.001-0.081-0.004-0.117-0.006c-0.047-0.003-0.094-0.006-0.142-0.006c-5.475,0-9.928,4.455-9.928,9.932
		c0,3.036,1.391,5.871,3.814,7.779c0.01,0.007,0.019,0.017,0.025,0.027c0.04,0.057,0.087,0.104,0.14,0.14
		c0.01,0.006,1.361,0.9,1.373,2.648c0.013,0.021,0.026,0.052,0.026,0.091c0.005,0.019-0.003,0.044-0.01,0.063l1.645,7.512
		c0.052,0.233,0.256,0.396,0.494,0.396h5.349c0.235,0,0.443-0.167,0.494-0.396l1.645-7.513c-0.008-0.021-0.014-0.049-0.008-0.083
		c-0.002-0.023,0.014-0.052,0.024-0.07c0.012-1.747,1.364-2.642,1.378-2.65c0.049-0.033,0.096-0.081,0.134-0.137
		c0.008-0.011,0.017-0.02,0.026-0.028c2.424-1.908,3.814-4.743,3.814-7.779C30.182,13.41,25.729,8.955,20.254,8.955z M22.288,36.434
		c-0.013,0.057-0.063,0.098-0.122,0.098h-4.333c-0.059,0-0.109-0.041-0.122-0.098l-0.136-0.619
		c-0.008-0.037,0.001-0.076,0.024-0.105c0.024-0.03,0.06-0.047,0.098-0.047h4.604c0.038,0,0.073,0.017,0.098,0.047
		c0.023,0.029,0.032,0.068,0.024,0.105L22.288,36.434z M22.7,34.552c-0.013,0.058-0.063,0.098-0.122,0.098h-5.156
		c-0.059,0-0.109-0.041-0.122-0.098l-0.14-0.625c-0.008-0.037,0.001-0.076,0.024-0.105s0.06-0.047,0.098-0.047h5.435
		c0.038,0,0.074,0.017,0.098,0.047c0.023,0.029,0.032,0.068,0.024,0.105L22.7,34.552z M23.114,32.666
		c-0.013,0.057-0.063,0.098-0.122,0.098h-5.984c-0.059,0-0.109-0.041-0.122-0.098l-0.548-2.507
		c-0.008-0.037,0.001-0.076,0.024-0.105c0.024-0.029,0.06-0.046,0.098-0.046h7.079c0.038,0,0.073,0.017,0.098,0.046
		c0.023,0.03,0.032,0.068,0.024,0.105L23.114,32.666z M25.599,25.986C25.599,25.986,25.599,25.986,25.599,25.986
		c-0.044,0.033-0.082,0.07-0.115,0.114c-0.431,0.354-1.407,1.29-1.621,2.789c-0.009,0.062-0.062,0.107-0.124,0.107h-7.477
		c-0.062,0-0.115-0.046-0.124-0.107c-0.215-1.499-1.191-2.435-1.602-2.767c-0.054-0.065-0.092-0.103-0.135-0.135
		c-2.271-1.718-3.572-4.305-3.572-7.101c0-4.804,3.763-8.714,8.565-8.902c0.026,0.001,0.053,0.006,0.073,0.021
		c0.256-0.014,0.831-0.012,1.078,0c0.019-0.012,0.036-0.022,0.06-0.021c4.803,0.188,8.564,4.099,8.564,8.902
		C29.17,21.682,27.868,24.269,25.599,25.986z"/>
</g>
</svg>
