<?xml version="1.0" encoding="utf-8"?>
<!-- Generator: Adobe Illustrator 19.0.0, SVG Export Plug-In . SVG Version: 6.00 Build 0)  -->
<svg version="1.1" id="Livello_1" xmlns="http://www.w3.org/2000/svg" xmlns:xlink="http://www.w3.org/1999/xlink" x="0px" y="0px"
	 viewBox="0 0 40 40" enable-background="new 0 0 40 40" xml:space="preserve">
<g id="Livello_2_2_">
</g>
<g id="New_Symbol_232">
</g>
<g>
	<circle fill="#000200" cx="11.623" cy="29.184" r="1.022"/>
	<path fill="#000200" d="M32.88,20.217c0.003-0.051,0.004-0.069-0.008-0.119c-0.011-0.093-0.011-0.537-0.011-1.052
		c0-0.031-0.003-0.061-0.008-0.092c-0.08-0.456-0.273-0.831-0.589-1.148c-0.383-0.384-0.976-0.578-1.762-0.578h-6.99
		c0.268-0.473,0.436-0.996,0.504-1.567c0.026-0.265,0.043-1.343,0.043-2.746c0-0.026-0.002-0.052-0.006-0.078l-0.527-3.564
		c-0.08-0.404-0.272-0.759-0.568-1.056c-0.404-0.403-0.89-0.597-1.441-0.578c-0.57-0.02-1.072,0.183-1.441,0.579
		c-0.399,0.4-0.594,0.879-0.579,1.42l-0.666,3.626c-0.998,2.994-2.472,5.074-4.385,6.2c-0.057-0.102-0.123-0.198-0.206-0.279
		c-0.256-0.248-0.606-0.364-1.023-0.351l-4.645,0c-0.446-0.015-0.804,0.104-1.062,0.354c-0.26,0.251-0.391,0.608-0.391,1.061v10.692
		c0,0.887,0.537,1.416,1.435,1.416h4.663c0.666,0,1.138-0.317,1.325-0.855c0.786,0.416,1.691,0.675,2.705,0.771
		c0.017,0.002,0.033,0.002,0.05,0.002h11.255c0.608,0,1.119-0.215,1.56-0.657l0.121-0.12c0.015-0.014,0.028-0.029,0.041-0.045
		c0.303-0.379,0.47-0.84,0.498-1.397c0-0.548-0.177-1.016-0.535-1.427c0.224-0.1,0.435-0.235,0.628-0.416
		c0.017-0.015,0.032-0.032,0.046-0.049l0.092-0.111c0.326-0.376,0.505-0.842,0.532-1.386c0.001-0.016,0.001-0.033,0-0.049
		c-0.019-0.446-0.145-0.838-0.375-1.17c0.21-0.103,0.404-0.244,0.582-0.422c0.008-0.008,0.036-0.036,0.043-0.045
		c0.394-0.449,0.594-0.952,0.594-1.497c0-0.56-0.188-1.05-0.559-1.459c0.164-0.092,0.316-0.208,0.455-0.348
		C32.649,21.281,32.853,20.789,32.88,20.217z M13.57,30.944c0,0.287-0.066,0.354-0.353,0.354H8.553c-0.324,0-0.373-0.08-0.373-0.354
		V20.252c0-0.171,0.035-0.266,0.067-0.297c0.041-0.039,0.149-0.061,0.305-0.055l4.681,0c0.128-0.004,0.228,0.015,0.266,0.053
		c0.033,0.032,0.069,0.128,0.069,0.301v0v10.35v0V30.944z M31.511,20.942c-0.192,0.192-0.431,0.286-0.729,0.286
		c-0.013,0-0.025,0-0.038,0.001l-0.281,0.02c-0.278,0.02-0.493,0.251-0.493,0.53v0.081c0,0.256,0.182,0.475,0.433,0.522
		c0.231,0.044,0.412,0.141,0.586,0.315c0.223,0.223,0.327,0.475,0.327,0.79c0,0.283-0.108,0.543-0.326,0.79
		c-0.222,0.221-0.46,0.322-0.771,0.327l-0.217-0.018c-0.261-0.018-0.501,0.151-0.561,0.407c-0.061,0.256,0.075,0.518,0.319,0.615
		c0.136,0.055,0.246,0.131,0.345,0.243c0.01,0.011,0.021,0.022,0.032,0.033c0.209,0.197,0.316,0.439,0.334,0.758
		c-0.019,0.294-0.108,0.529-0.28,0.727l-0.077,0.093c-0.223,0.2-0.472,0.297-0.76,0.297c-0.049,0-0.095,0.009-0.141,0.021
		c-0.27-0.074-0.555,0.073-0.645,0.341c-0.085,0.255,0.033,0.528,0.267,0.644c0.053,0.039,0.219,0.177,0.525,0.484
		c0.243,0.243,0.347,0.485,0.348,0.782c-0.015,0.297-0.097,0.539-0.249,0.739l-0.099,0.098c-0.239,0.24-0.489,0.347-0.81,0.347
		H17.322c-1.151-0.113-2.127-0.463-2.903-1.04c-0.003-0.002-0.007-0.004-0.01-0.006c-0.007-0.005-0.014-0.008-0.021-0.012v-9.456
		c2.444-1.174,4.283-3.574,5.463-7.137c0.008-0.023,0.014-0.047,0.018-0.071l0.683-3.718c0.006-0.032,0.009-0.064,0.009-0.096
		c0-0.008,0-0.037,0-0.045c-0.013-0.266,0.068-0.464,0.279-0.677c0.174-0.186,0.382-0.266,0.652-0.254
		c0.017,0.001,0.033,0.001,0.05,0c0.266-0.011,0.464,0.067,0.665,0.267c0.147,0.147,0.237,0.314,0.272,0.486l0.517,3.499
		c0,1.629-0.023,2.448-0.037,2.592c-0.084,0.711-0.385,1.329-0.893,1.837c-0.152,0.152-0.198,0.38-0.116,0.579
		c0.082,0.199,0.276,0.328,0.491,0.328h8.06c0.487,0,0.837,0.092,1.01,0.266c0.152,0.152,0.242,0.32,0.287,0.539
		c0,0.695,0.001,0.967,0.018,1.119C31.793,20.509,31.69,20.751,31.511,20.942z"/>
</g>
</svg>
