<?xml version="1.0" encoding="utf-8"?>
<!-- Generator: Adobe Illustrator 19.0.0, SVG Export Plug-In . SVG Version: 6.00 Build 0)  -->
<svg version="1.1" id="Livello_1" xmlns="http://www.w3.org/2000/svg" xmlns:xlink="http://www.w3.org/1999/xlink" x="0px" y="0px"
	 viewBox="0 0 40 40" enable-background="new 0 0 40 40" xml:space="preserve">
<g>
	<g>
		<g>
			<g>
				<path fill="#1A171B" d="M32.31,38.017H7.691c-0.652,0-1.183-0.531-1.183-1.183V16.707c0-0.652,0.531-1.183,1.183-1.183H32.31
					c0.652,0,1.182,0.531,1.182,1.183v20.127C33.492,37.486,32.962,38.017,32.31,38.017z M7.691,16.424
					c-0.156,0-0.283,0.127-0.283,0.283v20.127c0,0.154,0.13,0.283,0.283,0.283H32.31c0.153,0,0.282-0.129,0.282-0.283V16.707
					c0-0.156-0.127-0.283-0.282-0.283H7.691z"/>
			</g>
		</g>
		<g>
			<path fill="#1A171B" d="M30.546,16.424c-0.249,0-0.45-0.201-0.45-0.45v-2.994c0-5.567-4.529-10.096-10.096-10.096
				c-5.566,0-10.095,4.529-10.095,10.096v2.994c0,0.249-0.201,0.45-0.45,0.45s-0.45-0.201-0.45-0.45v-2.994
				C9.005,6.916,13.937,1.983,20,1.983c6.064,0,10.996,4.932,10.996,10.996v2.994C30.996,16.222,30.795,16.424,30.546,16.424z"/>
		</g>
	</g>
	<g>
		<g>
			<path fill="#1A171B" d="M20,33.722c-0.249,0-0.45-0.201-0.45-0.45v-7.611c0-0.249,0.201-0.45,0.45-0.45s0.45,0.201,0.45,0.45
				v7.611C20.45,33.521,20.249,33.722,20,33.722z"/>
		</g>
		<g>
			<path fill="#1A171B" d="M20.025,28.973c-1.997,0-3.621-1.625-3.621-3.623c0-1.995,1.624-3.618,3.621-3.618
				c1.996,0,3.619,1.623,3.619,3.618C23.645,27.348,22.021,28.973,20.025,28.973z M20.025,22.631c-1.5,0-2.721,1.22-2.721,2.718
				c0,1.501,1.221,2.723,2.721,2.723c1.499,0,2.719-1.222,2.719-2.723C22.745,23.851,21.525,22.631,20.025,22.631z"/>
		</g>
	</g>
</g>
<g id="Livello_2_2_">
</g>
<g id="New_Symbol_232">
</g>
</svg>
