<?xml version="1.0" encoding="utf-8"?>
<!-- Generator: Adobe Illustrator 19.0.0, SVG Export Plug-In . SVG Version: 6.00 Build 0)  -->
<svg version="1.1" id="Livello_1" xmlns="http://www.w3.org/2000/svg" xmlns:xlink="http://www.w3.org/1999/xlink" x="0px" y="0px"
	 viewBox="0 0 40 40" enable-background="new 0 0 40 40" xml:space="preserve">
<g>
	<g>
		<path fill="#1A171B" d="M27.856,33.405H4.607c-0.982,0-1.781-0.798-1.781-1.781V8.375c0-0.982,0.799-1.781,1.781-1.781h23.249
			c0.982,0,1.781,0.798,1.781,1.781V14c0,0.255-0.206,0.461-0.461,0.461c-0.255,0-0.461-0.206-0.461-0.461V8.375
			c0-0.473-0.385-0.858-0.858-0.858H4.607c-0.473,0-0.858,0.385-0.858,0.858v23.25c0,0.473,0.385,0.858,0.858,0.858h23.249
			c0.473,0,0.858-0.385,0.858-0.858v-5.568c0-0.255,0.206-0.461,0.461-0.461c0.255,0,0.461,0.206,0.461,0.461v5.568
			C29.636,32.607,28.838,33.405,27.856,33.405z"/>
	</g>
	<g>
		<g>
			<path fill="#1A171B" d="M32.21,27.02c-0.115,0-0.231-0.043-0.32-0.129c-0.184-0.177-0.189-0.469-0.013-0.653l6.03-6.253
				l-6.005-6.225c-0.177-0.183-0.171-0.475,0.013-0.652c0.183-0.177,0.475-0.172,0.652,0.012l6.312,6.545
				c0.173,0.178,0.173,0.461,0.001,0.64l-6.339,6.573C32.452,26.973,32.331,27.02,32.21,27.02z"/>
		</g>
		<g>
			<path fill="#1A171B" d="M38.549,20.447H16.231c-0.255,0-0.461-0.206-0.461-0.461c0-0.255,0.206-0.461,0.461-0.461h22.318
				c0.255,0,0.461,0.206,0.461,0.461C39.01,20.241,38.804,20.447,38.549,20.447z"/>
		</g>
	</g>
</g>
<g id="Livello_2_2_">
</g>
<g id="New_Symbol_232">
</g>
</svg>
