<?xml version="1.0" encoding="utf-8"?>
<!-- Generator: Adobe Illustrator 19.0.0, SVG Export Plug-In . SVG Version: 6.00 Build 0)  -->
<svg version="1.1" id="Livello_1" xmlns="http://www.w3.org/2000/svg" xmlns:xlink="http://www.w3.org/1999/xlink" x="0px" y="0px"
	 viewBox="0 0 40 40" enable-background="new 0 0 40 40" xml:space="preserve">
<g>
	<g>
		<path fill="#1A171B" d="M32.666,13.25H7.334c-0.276,0-0.5-0.224-0.5-0.5c0-0.276,0.224-0.5,0.5-0.5h25.332
			c0.276,0,0.5,0.224,0.5,0.5C33.166,13.026,32.942,13.25,32.666,13.25z"/>
	</g>
	<g>
		<path fill="#1A171B" d="M32.666,20.5H7.334c-0.276,0-0.5-0.224-0.5-0.5c0-0.276,0.224-0.5,0.5-0.5h25.332
			c0.276,0,0.5,0.224,0.5,0.5C33.166,20.276,32.942,20.5,32.666,20.5z"/>
	</g>
	<g>
		<path fill="#1A171B" d="M32.666,27.75H7.334c-0.276,0-0.5-0.224-0.5-0.5c0-0.276,0.224-0.5,0.5-0.5h25.332
			c0.276,0,0.5,0.224,0.5,0.5C33.166,27.526,32.942,27.75,32.666,27.75z"/>
	</g>
</g>
<g id="Livello_2_2_">
</g>
<g id="New_Symbol_232">
</g>
</svg>
