<?xml version="1.0" encoding="utf-8"?>
<!-- Generator: Adobe Illustrator 19.0.0, SVG Export Plug-In . SVG Version: 6.00 Build 0)  -->
<svg version="1.1" id="Livello_1" xmlns="http://www.w3.org/2000/svg" xmlns:xlink="http://www.w3.org/1999/xlink" x="0px" y="0px"
	 viewBox="0 0 40 40" enable-background="new 0 0 40 40" xml:space="preserve">
<g id="Livello_2_2_">
</g>
<g id="New_Symbol_232">
</g>
<path fill="#1A171B" d="M20,1.595c-10.201,0-18.5,8.299-18.5,18.5c0,10.201,8.299,18.5,18.5,18.5c10.201,0,18.5-8.299,18.5-18.5
	C38.5,9.894,30.201,1.595,20,1.595z M25.334,14.404c0.552,0,1,0.447,1,1c0,0.553-0.448,1-1,1c-0.553,0-1-0.447-1-1
	C24.334,14.851,24.781,14.404,25.334,14.404z M14.667,14.404c0.552,0,1,0.447,1,1c0,0.553-0.448,1-1,1c-0.553,0-1-0.447-1-1
	C13.667,14.851,14.114,14.404,14.667,14.404z M27.208,26.404H12.792v-1h14.416V26.404z"/>
</svg>
