<?xml version="1.0" encoding="utf-8"?>
<!-- Generator: Adobe Illustrator 19.0.0, SVG Export Plug-In . SVG Version: 6.00 Build 0)  -->
<svg version="1.1" id="Livello_1" xmlns="http://www.w3.org/2000/svg" xmlns:xlink="http://www.w3.org/1999/xlink" x="0px" y="0px"
	 viewBox="0 0 40 40" enable-background="new 0 0 40 40" xml:space="preserve">
<g id="Livello_2_2_">
</g>
<g id="New_Symbol_232">
</g>
<g>
	<path d="M29.384,13.386c-0.045-0.015-0.141-0.047-0.092-0.215c0.135-0.477,0.179-0.969,0.179-1.452
		c0-3.277-2.664-5.943-5.942-5.943c-1.292,0-2.522,0.408-3.554,1.18c-0.999,0.748-1.75,1.812-2.121,2.995
		c-0.009,0.038-0.052,0.129-0.223,0.1c-0.013-0.002-0.029,0-0.046-0.002c-0.057-0.005-0.115-0.008-0.178-0.008
		c-1.943,0-3.677,1.257-4.342,3.136c-0.009,0.028-0.039,0.096-0.119,0.079c-0.009-0.002-0.018-0.002-0.026-0.005
		c-0.295-0.058-0.597-0.088-0.897-0.088c-2.523,0-4.574,2.051-4.574,4.574c0,2.523,2.051,4.574,4.574,4.574h15.955
		c2.52,0,4.574-2.052,4.574-4.574C32.551,15.761,31.258,13.992,29.384,13.386z M27.977,21.462H12.023
		c-2.055,0-3.724-1.67-3.724-3.724c0-2.053,1.669-3.723,3.724-3.723c0.252,0,0.503,0.025,0.749,0.075
		c0.081,0.016,0.162,0.026,0.242,0.026c0.396,0,0.708-0.219,0.829-0.584c0.527-1.578,1.957-2.638,3.564-2.638
		c0.05,0,0.107,0.002,0.168,0.008c0.065,0.005,0.132,0.009,0.206,0.01h0.013c0.492,0,0.785-0.228,0.868-0.674
		c0.003-0.014,0.005-0.026,0.005-0.033c0.668-2.141,2.619-3.578,4.862-3.578c2.808,0,5.091,2.284,5.091,5.092
		c0,0.483-0.069,0.969-0.208,1.449c-0.067,0.233-0.054,0.44,0.044,0.617c0.146,0.262,0.409,0.335,0.534,0.37l0.02,0.005
		c1.584,0.458,2.691,1.928,2.691,3.578C31.7,19.792,30.03,21.462,27.977,21.462z"/>
	<path d="M28.286,23.526H11.853c-0.276,0-0.5,0.224-0.5,0.5s0.224,0.5,0.5,0.5h16.434c0.276,0,0.5-0.224,0.5-0.5
		S28.562,23.526,28.286,23.526z"/>
	<path d="M28.286,26.084H11.853c-0.276,0-0.5,0.224-0.5,0.5s0.224,0.5,0.5,0.5h16.434c0.276,0,0.5-0.224,0.5-0.5
		S28.562,26.084,28.286,26.084z"/>
	<path d="M28.286,28.641H11.853c-0.276,0-0.5,0.224-0.5,0.5s0.224,0.5,0.5,0.5h16.434c0.276,0,0.5-0.224,0.5-0.5
		S28.562,28.641,28.286,28.641z"/>
</g>
</svg>
