<?xml version="1.0" encoding="utf-8"?>
<!-- Generator: Adobe Illustrator 19.0.0, SVG Export Plug-In . SVG Version: 6.00 Build 0)  -->
<svg version="1.1" id="Livello_1" xmlns="http://www.w3.org/2000/svg" xmlns:xlink="http://www.w3.org/1999/xlink" x="0px" y="0px"
	 viewBox="0 0 40 40" enable-background="new 0 0 40 40" xml:space="preserve">
<g id="Livello_2_2_">
</g>
<g id="New_Symbol_232">
</g>
<g>
	<path fill="#000200" d="M30.081,9.623h-2.179V8.924c0-0.945-0.774-1.714-1.726-1.714h-0.1c-0.952,0-1.726,0.769-1.726,1.714v0.699
		h-2.573V8.924c0-0.945-0.775-1.714-1.727-1.714h-0.1c-0.952,0-1.727,0.769-1.727,1.714v0.699H15.3V8.924
		c0-0.945-0.774-1.714-1.726-1.714h-0.1c-0.951,0-1.726,0.769-1.726,1.714v0.699H9.919c-1.282,0-2.325,1.035-2.325,2.307v18.552
		c0,1.272,1.043,2.307,2.325,2.307h20.162c1.282,0,2.325-1.035,2.325-2.307V11.93C32.406,10.658,31.363,9.623,30.081,9.623z
		 M25.406,8.924c0-0.362,0.3-0.657,0.67-0.657h0.1c0.369,0,0.67,0.295,0.67,0.657v0.699v0.528v0.945c0,0.362-0.3,0.657-0.67,0.657
		h-0.1c-0.369,0-0.67-0.295-0.67-0.657v-0.945V9.623V8.924z M19.28,8.924c0-0.362,0.301-0.657,0.67-0.657h0.1
		c0.369,0,0.67,0.295,0.67,0.657v0.699v0.528v0.945c0,0.362-0.301,0.657-0.67,0.657h-0.1c-0.369,0-0.67-0.295-0.67-0.657v-0.945
		V9.623V8.924z M12.805,8.924c0-0.362,0.3-0.657,0.669-0.657h0.1c0.369,0,0.669,0.295,0.669,0.657v0.699v0.528v0.945
		c0,0.362-0.3,0.657-0.669,0.657h-0.1c-0.369,0-0.669-0.295-0.669-0.657v-0.945V9.623V8.924z M9.919,10.68h1.829v0.417
		c0,0.945,0.774,1.714,1.726,1.714h0.1c0.951,0,1.726-0.769,1.726-1.714V10.68h2.924v0.417c0,0.945,0.775,1.714,1.727,1.714h0.1
		c0.952,0,1.727-0.769,1.727-1.714V10.68h2.573v0.417c0,0.945,0.774,1.714,1.726,1.714h0.1c0.952,0,1.726-0.769,1.726-1.714V10.68
		h2.179c0.699,0,1.268,0.561,1.268,1.25v3.724H8.651V11.93C8.651,11.241,9.22,10.68,9.919,10.68z M30.081,31.733H9.919
		c-0.699,0-1.268-0.561-1.268-1.251V16.71h22.699v13.772C31.349,31.172,30.78,31.733,30.081,31.733z"/>
	<path fill="#000200" d="M13.482,18.91c-1.045,0-1.894,0.843-1.894,1.879c0,1.037,0.85,1.88,1.894,1.88s1.894-0.843,1.894-1.88
		C15.376,19.753,14.526,18.91,13.482,18.91z M13.482,21.613c-0.462,0-0.838-0.37-0.838-0.824c0-0.454,0.376-0.823,0.838-0.823
		c0.462,0,0.838,0.369,0.838,0.823C14.319,21.244,13.944,21.613,13.482,21.613z"/>
	<path fill="#000200" d="M20,18.781c-1.044,0-1.894,0.844-1.894,1.881c0,1.036,0.85,1.879,1.894,1.879
		c1.045,0,1.894-0.843,1.894-1.879C21.894,19.625,21.044,18.781,20,18.781z M20,21.486c-0.462,0-0.837-0.369-0.837-0.823
		c0-0.455,0.376-0.825,0.837-0.825c0.462,0,0.838,0.37,0.838,0.825C20.837,21.116,20.462,21.486,20,21.486z"/>
	<path fill="#000200" d="M26.518,19.039c-1.045,0-1.895,0.843-1.895,1.879c0,1.036,0.85,1.879,1.895,1.879s1.894-0.843,1.894-1.879
		C28.413,19.882,27.563,19.039,26.518,19.039z M26.518,21.741c-0.462,0-0.838-0.369-0.838-0.823s0.376-0.823,0.838-0.823
		s0.838,0.369,0.838,0.823S26.981,21.741,26.518,21.741z"/>
	<path fill="#000200" d="M13.482,24.788c-1.045,0-1.894,0.843-1.894,1.88c0,1.037,0.85,1.88,1.894,1.88s1.894-0.843,1.894-1.88
		C15.376,25.631,14.526,24.788,13.482,24.788z M13.482,27.491c-0.462,0-0.838-0.37-0.838-0.824c0-0.454,0.376-0.823,0.838-0.823
		c0.462,0,0.838,0.369,0.838,0.823C14.319,27.122,13.944,27.491,13.482,27.491z"/>
	<path fill="#000200" d="M19.999,24.659c-1.044,0-1.894,0.843-1.894,1.88s0.85,1.881,1.894,1.881c1.045,0,1.895-0.844,1.895-1.881
		S21.044,24.659,19.999,24.659z M19.999,27.363c-0.462,0-0.837-0.37-0.837-0.824c0-0.454,0.376-0.824,0.837-0.824
		c0.462,0,0.838,0.37,0.838,0.824C20.837,26.994,20.461,27.363,19.999,27.363z"/>
	<path fill="#000200" d="M26.518,24.916c-1.045,0-1.894,0.843-1.894,1.879c0,1.037,0.85,1.88,1.894,1.88s1.894-0.843,1.894-1.88
		C28.413,25.759,27.563,24.916,26.518,24.916z M26.518,27.619c-0.462,0-0.838-0.37-0.838-0.824c0-0.454,0.376-0.823,0.838-0.823
		s0.838,0.369,0.838,0.823C27.356,27.25,26.98,27.619,26.518,27.619z"/>
</g>
</svg>
