<?xml version="1.0" encoding="utf-8"?>
<!-- Generator: Adobe Illustrator 19.0.0, SVG Export Plug-In . SVG Version: 6.00 Build 0)  -->
<svg version="1.1" id="Livello_1" xmlns="http://www.w3.org/2000/svg" xmlns:xlink="http://www.w3.org/1999/xlink" x="0px" y="0px"
	 viewBox="0 0 40 40" enable-background="new 0 0 40 40" xml:space="preserve">
<g id="Livello_2_2_">
</g>
<g id="New_Symbol_232">
</g>
<path d="M30.111,20.348c-0.049-0.016-0.152-0.051-0.099-0.231c0.145-0.514,0.193-1.044,0.193-1.565c0-3.531-2.871-6.403-6.403-6.403
	c-1.392,0-2.717,0.439-3.829,1.271c-1.076,0.806-1.886,1.952-2.286,3.227c-0.01,0.041-0.056,0.139-0.24,0.108
	c-0.014-0.002-0.032,0-0.05-0.002c-0.061-0.005-0.124-0.008-0.192-0.008c-0.98,0-1.904,0.306-2.69,0.829
	c-1.394-0.473-2.523-1.453-3.182-2.767c-0.611-1.219-0.751-2.616-0.394-3.934l0.194-0.715c0.011-0.039-0.003-0.08-0.035-0.104
	c-0.031-0.025-0.075-0.028-0.109-0.01l-0.65,0.355c-3.021,1.656-4.179,5.367-2.637,8.448c0.36,0.719,0.859,1.324,1.431,1.84
	c-1.572,0.824-2.658,2.453-2.658,4.349c0,2.718,2.21,4.929,4.928,4.929h17.191c2.716,0,4.928-2.211,4.928-4.929
	C33.524,22.907,32.13,21.001,30.111,20.348z M8.446,18.477c-1.188-2.371-0.55-5.203,1.506-6.827c-0.13,1.216,0.089,2.432,0.638,3.53
	c0.693,1.383,1.849,2.402,3.191,2.978c-0.548,0.536-0.983,1.204-1.254,1.967c-0.01,0.03-0.042,0.103-0.128,0.085
	c-0.01-0.002-0.019-0.003-0.028-0.006c-0.318-0.062-0.643-0.095-0.966-0.095c-0.501,0-0.976,0.097-1.432,0.237
	C9.35,19.858,8.823,19.23,8.446,18.477z M28.595,29.05H11.405c-2.214,0-4.012-1.8-4.012-4.012c0-2.212,1.798-4.012,4.012-4.012
	c0.272,0,0.542,0.027,0.807,0.081c0.088,0.017,0.174,0.028,0.26,0.028c0.427,0,0.762-0.236,0.893-0.629
	c0.568-1.7,2.108-2.843,3.84-2.843c0.054,0,0.115,0.003,0.182,0.008c0.07,0.005,0.143,0.009,0.222,0.01h0.014
	c0.531,0,0.846-0.245,0.935-0.726c0.003-0.015,0.006-0.028,0.006-0.035c0.719-2.307,2.822-3.855,5.239-3.855
	c3.025,0,5.485,2.461,5.485,5.487c0,0.52-0.075,1.044-0.224,1.561c-0.072,0.251-0.058,0.474,0.047,0.665
	c0.158,0.282,0.441,0.36,0.575,0.399l0.022,0.006c1.707,0.493,2.899,2.077,2.899,3.855C32.606,27.25,30.806,29.05,28.595,29.05z"/>
</svg>
