<?xml version="1.0" encoding="utf-8"?>
<!-- Generator: Adobe Illustrator 19.0.0, SVG Export Plug-In . SVG Version: 6.00 Build 0)  -->
<svg version="1.1" id="Livello_1" xmlns="http://www.w3.org/2000/svg" xmlns:xlink="http://www.w3.org/1999/xlink" x="0px" y="0px"
	 viewBox="0 0 40 40" enable-background="new 0 0 40 40" xml:space="preserve">
<g id="Livello_2_2_">
</g>
<g id="New_Symbol_232">
</g>
<g>
	<path fill="#000200" d="M30.743,15.073c-0.037-1.801-0.621-2.38-2.404-2.385c-0.687-0.002-1.375-0.002-2.062-0.003l0-6.081
		c-0.056-1.119-0.862-1.838-2.041-1.821c-1.144,0.013-1.869,0.718-1.94,1.888c-0.037,0.608-0.028,1.219-0.02,1.81
		c0.003,0.229,0.007,0.457,0.007,0.686c-0.005,0.028-0.008,0.058-0.008,0.088v3.424c-1.52-0.003-3.04-0.005-4.56-0.007
		c-0.004-0.631-0.002-1.397,0-2.196c0.004-1.35,0.008-2.746-0.017-3.691c-0.031-1.24-0.77-1.986-1.974-1.996
		c-1.186,0.005-2,0.799-2.055,2.061c-0.024,0.548-0.018,1.101-0.012,1.635c0.002,0.21,0.005,0.421,0.005,0.631
		c-0.005,0.026-0.007,0.052-0.007,0.08c0,0.214,0.015,1.095,0.031,1.975c0.01,0.556,0.019,1.11,0.025,1.496
		c-0.709-0.001-1.418-0.003-2.128-0.003c-0.001,0-0.003,0-0.004,0c-1.592,0-2.265,0.654-2.323,2.256
		c-0.015,0.412-0.006,0.831,0.003,1.192c0.041,1.639,0.676,2.3,2.234,2.337c0.01,0.232,0.021,0.494,0.036,0.797
		c0.014,0.771,0.024,1.768,0.026,2.995c0.005,4.245,1.815,6.958,5.699,8.538c0.377,0.154,0.436,0.275,0.43,0.585
		c-0.022,1.151-0.021,2.295,0,3.4c0.005,0.254,0.213,0.457,0.466,0.457c0.003,0,0.006,0,0.01,0c0.258-0.005,0.462-0.218,0.457-0.476
		c-0.022-1.093-0.022-2.225-0.001-3.364c0.013-0.724-0.298-1.176-1.011-1.466c-3.535-1.438-5.113-3.805-5.117-7.675
		c-0.001-1.019-0.009-1.88-0.019-2.586c0.008-0.038,0.011-0.078,0.009-0.119c-0.01-0.199,0.005-0.783,0.056-1.513
		c0.009-0.129-0.053-0.256-0.142-0.351c-0.088-0.095-0.236-0.153-0.359-0.148H11.97l-0.002,0l-0.001,0h-0.023h-0.001h-0.33
		c-1.152-0.004-1.391-0.245-1.421-1.435c-0.009-0.363-0.017-0.749-0.003-1.135c0.04-1.115,0.287-1.356,1.388-1.356
		c0.002,0,0.003,0,0.005,0c5.585,0.004,11.169,0.012,16.753,0.026c1.268,0.003,1.447,0.182,1.474,1.471
		c0.007,0.346,0.014,0.747-0.002,1.135c-0.043,1.047-0.29,1.289-1.322,1.293l-0.518,0c-0.124,0-0.243,0.05-0.33,0.138
		c-0.087,0.088-0.136,0.207-0.135,0.331l0.003,0.4c0.013,2.182,0.029,4.898-0.136,5.774c-0.514,2.73-2.124,4.642-4.787,5.684
		c-0.876,0.342-1.225,0.866-1.205,1.796v3.109c0,0.258,0.209,0.467,0.467,0.467c0.258,0,0.467-0.209,0.467-0.467l0-3.119
		c-0.011-0.521,0.068-0.704,0.612-0.917c2.982-1.166,4.787-3.313,5.364-6.38c0.18-0.955,0.166-3.562,0.152-5.883h0.051
		c1.536-0.006,2.188-0.64,2.251-2.187C30.757,15.85,30.75,15.432,30.743,15.073z M16.783,10.472
		c-0.002,0.775-0.004,1.525-0.001,2.147l-2.137,0.035c-0.006-0.388-0.015-0.945-0.025-1.501c-0.014-0.791-0.028-1.581-0.03-1.881
		c0.004-0.025,0.006-0.051,0.006-0.078c0-0.24-0.003-0.48-0.005-0.72c-0.006-0.522-0.011-1.061,0.011-1.584
		c0.033-0.759,0.427-1.168,1.115-1.168c0.706,0.005,1.03,0.341,1.049,1.086C16.79,7.739,16.786,9.129,16.783,10.472z M25.344,12.399
		h-2.136V9.343c0.005-0.029,0.008-0.059,0.008-0.089c0-0.262-0.004-0.525-0.008-0.788c-0.008-0.574-0.017-1.167,0.018-1.74
		c0.042-0.683,0.365-1.004,1.019-1.011c0.393-0.002,1.057,0.111,1.098,0.911V12.399z"/>
	<path fill="#000200" d="M22.898,25.602c0.018-0.018,0.044-0.032,0.044-0.067c-0.101,0.009-0.185,0.052-0.275,0.08
		c-0.258,0.082-0.516,0.162-0.774,0.245c-0.273,0.087-0.544,0.177-0.817,0.265c-0.077,0.025-0.078,0.023-0.058-0.058
		c0.01-0.042,0.022-0.084,0.033-0.126c0.217-0.786,0.435-1.571,0.652-2.357c0.157-0.569,0.311-1.139,0.468-1.708
		c0.207-0.751,0.414-1.503,0.621-2.254c0.005-0.019,0.018-0.041,0.002-0.058c-0.019-0.019-0.038,0.001-0.056,0.008
		c-0.219,0.098-0.438,0.196-0.655,0.296c-0.285,0.131-0.57,0.266-0.855,0.398c-0.703,0.325-1.406,0.65-2.109,0.975
		c-0.061,0.028-0.124,0.054-0.198,0.085c0.008-0.027,0.01-0.039,0.015-0.05c0.216-0.443,0.433-0.887,0.65-1.329
		c0.171-0.349,0.344-0.696,0.515-1.045c0.231-0.473,0.461-0.946,0.693-1.419c0.259-0.53,0.518-1.061,0.78-1.59
		c0.029-0.058,0.01-0.07-0.046-0.07c-0.813,0.001-1.626,0.001-2.439,0c-0.054,0-0.089,0.014-0.099,0.071
		c-0.004,0.025-0.017,0.048-0.024,0.073c-0.148,0.518-0.296,1.037-0.445,1.556c-0.222,0.774-0.444,1.548-0.667,2.321
		c-0.152,0.528-0.304,1.056-0.455,1.584c-0.158,0.55-0.316,1.101-0.472,1.651c-0.007,0.023-0.027,0.053-0.008,0.072
		c0.026,0.024,0.051-0.007,0.075-0.018c0.401-0.18,0.801-0.361,1.202-0.542c0.505-0.228,1.011-0.457,1.516-0.685
		c0.214-0.097,0.429-0.193,0.643-0.291c0.058-0.026,0.068-0.006,0.056,0.048c-0.017,0.083-0.032,0.166-0.046,0.249
		c-0.13,0.753-0.259,1.506-0.389,2.259c-0.105,0.612-0.212,1.224-0.319,1.835c-0.005,0.027,0.002,0.066-0.026,0.076
		c-0.028,0.01-0.046-0.026-0.065-0.045c-0.288-0.283-0.577-0.566-0.863-0.85c-0.11-0.109-0.215-0.224-0.322-0.336
		c-0.01,0.007-0.021,0.014-0.031,0.021c0.033,0.101,0.064,0.202,0.098,0.303c0.186,0.544,0.372,1.088,0.558,1.633
		c0.227,0.668,0.453,1.336,0.68,2.004c0.032,0.095,0.034,0.096,0.103,0.025c0.338-0.352,0.675-0.705,1.013-1.057
		c0.359-0.374,0.719-0.748,1.079-1.121C22.221,26.305,22.56,25.954,22.898,25.602z"/>
</g>
</svg>
