<?xml version="1.0" encoding="utf-8"?>
<!-- Generator: Adobe Illustrator 19.0.0, SVG Export Plug-In . SVG Version: 6.00 Build 0)  -->
<svg version="1.1" id="Livello_1" xmlns="http://www.w3.org/2000/svg" xmlns:xlink="http://www.w3.org/1999/xlink" x="0px" y="0px"
	 viewBox="0 0 40 40" enable-background="new 0 0 40 40" xml:space="preserve">
<g id="Livello_2_2_">
</g>
<g id="New_Symbol_232">
</g>
<g>
	<path fill="#000200" d="M22.158,9.956l4.092,7.123l-2.544-0.509c-0.359-0.072-0.707,0.161-0.778,0.519
		c-0.072,0.358,0.161,0.707,0.519,0.778l3.973,0.795c0.043,0.009,0.086,0.013,0.13,0.013l0,0l0,0c0.06,0,0.12-0.01,0.18-0.027
		c0.02-0.006,0.037-0.016,0.057-0.023c0.031-0.012,0.063-0.021,0.092-0.038c0.008-0.005,0.015-0.011,0.023-0.016
		c0.005-0.003,0.01-0.004,0.015-0.007c0.013-0.008,0.023-0.019,0.035-0.029c0.018-0.014,0.035-0.027,0.051-0.042
		c0.015-0.014,0.028-0.029,0.042-0.045c0.015-0.017,0.03-0.034,0.043-0.053c0.012-0.016,0.021-0.034,0.031-0.051
		c0.011-0.02,0.023-0.039,0.032-0.059c0.008-0.019,0.015-0.038,0.021-0.057c0.007-0.021,0.014-0.042,0.02-0.064
		c0.002-0.007,0.005-0.014,0.006-0.021l0.795-3.973c0.072-0.358-0.161-0.707-0.519-0.778c-0.358-0.07-0.707,0.161-0.778,0.519
		l-0.449,2.247l-3.942-6.863C22.454,7.829,21.281,7.021,20,7.021c-1.275,0-2.443,0.8-3.292,2.253l-2.422,3.602
		c-0.204,0.303-0.123,0.714,0.18,0.918c0.303,0.203,0.714,0.123,0.918-0.18l2.434-3.619c0.008-0.012,0.016-0.025,0.023-0.037
		c0.603-1.04,1.37-1.614,2.159-1.613C20.789,8.344,21.556,8.917,22.158,9.956z"/>
	<path fill="#000200" d="M13.141,17.942l1.08,2.701c0.104,0.258,0.352,0.416,0.614,0.416c0.082,0,0.165-0.016,0.245-0.047
		c0.339-0.136,0.504-0.521,0.369-0.86l-1.589-3.973c-0.004-0.009-0.009-0.016-0.012-0.024c-0.007-0.017-0.016-0.032-0.025-0.048
		c-0.011-0.02-0.023-0.04-0.036-0.059c-0.01-0.015-0.021-0.029-0.032-0.042c-0.015-0.019-0.032-0.036-0.049-0.052
		c-0.012-0.012-0.024-0.024-0.037-0.035c-0.021-0.018-0.044-0.033-0.067-0.048c-0.01-0.006-0.017-0.014-0.027-0.02
		c-0.002-0.001-0.005-0.002-0.007-0.003c-0.036-0.02-0.073-0.036-0.111-0.049c-0.011-0.004-0.022-0.005-0.033-0.008
		c-0.028-0.008-0.057-0.015-0.087-0.019c-0.016-0.002-0.032-0.002-0.047-0.003c-0.025-0.002-0.049-0.003-0.075-0.002
		c-0.017,0.001-0.034,0.003-0.051,0.005c-0.016,0.002-0.031,0.002-0.047,0.005L9.143,16.57c-0.358,0.072-0.591,0.42-0.519,0.778
		c0.072,0.358,0.42,0.589,0.778,0.519l2.548-0.51l-4.066,7.114c-0.86,1.495-0.946,3.057-0.237,4.285
		c0.677,1.174,1.993,1.849,3.612,1.852h3.576c0.365,0,0.661-0.296,0.661-0.661c0-0.365-0.296-0.661-0.661-0.661h-3.575
		c-1.15-0.002-2.026-0.425-2.468-1.191c-0.467-0.809-0.38-1.889,0.239-2.966L13.141,17.942z"/>
	<path fill="#000200" d="M32.134,24.524l-1.596-3.599c-0.148-0.334-0.539-0.485-0.873-0.337c-0.334,0.148-0.485,0.539-0.337,0.873
		l1.609,3.63c0.009,0.021,0.02,0.042,0.031,0.062c0.615,1.069,0.703,2.14,0.244,2.937c-0.439,0.76-1.317,1.18-2.473,1.182
		l-7.553,0.012l1.267-1.267c0.258-0.258,0.258-0.677,0-0.935c-0.258-0.258-0.677-0.258-0.936,0l-2.384,2.384
		c-0.131,0.131-0.195,0.304-0.193,0.476c0,0.003-0.001,0.005-0.001,0.008c0,0.222,0.111,0.417,0.278,0.536l2.299,2.299
		c0.129,0.129,0.298,0.194,0.468,0.194c0.169,0,0.338-0.065,0.468-0.194c0.258-0.258,0.258-0.677,0-0.935l-1.243-1.243l7.53-0.012
		c1.623-0.003,2.941-0.675,3.616-1.844C33.056,27.542,32.974,26.003,32.134,24.524z"/>
</g>
</svg>
