<?xml version="1.0" encoding="utf-8"?>
<!-- Generator: Adobe Illustrator 19.0.0, SVG Export Plug-In . SVG Version: 6.00 Build 0)  -->
<svg version="1.1" id="Livello_1" xmlns="http://www.w3.org/2000/svg" xmlns:xlink="http://www.w3.org/1999/xlink" x="0px" y="0px"
	 viewBox="0 0 40 40" enable-background="new 0 0 40 40" xml:space="preserve">
<g id="Livello_2_2_">
</g>
<g id="New_Symbol_232">
</g>
<g>
	<polygon points="22.39,27.563 22.39,28.137 23.744,27.289 22.39,26.441 22.39,27.015 11.193,27.015 11.193,26.1 14.862,23.209 
		17.26,25.301 21.162,20.4 21.709,20.829 22.198,18.578 19.897,19.408 20.514,19.892 17.152,24.116 14.889,22.141 11.193,25.053 
		11.193,16.109 11.767,16.109 10.919,14.755 10.071,16.109 10.645,16.109 10.645,27.563 	"/>
	<path d="M11.07,7.384h11.066c0.207,0,0.375-0.168,0.375-0.375s-0.168-0.375-0.375-0.375H11.07c-0.207,0-0.375,0.168-0.375,0.375
		S10.863,7.384,11.07,7.384z"/>
	<path d="M11.07,11.231h11.066c0.207,0,0.375-0.168,0.375-0.375s-0.168-0.375-0.375-0.375H11.07c-0.207,0-0.375,0.168-0.375,0.375
		S10.863,11.231,11.07,11.231z"/>
	<path d="M32.239,9.043h-5.521V2.928c0-0.701-0.57-1.271-1.271-1.271H7.761c-0.701,0-1.271,0.57-1.271,1.271v26.758
		c0,0.701,0.57,1.271,1.271,1.271h5.521v6.115c0,0.701,0.57,1.271,1.271,1.271h17.687c0.701,0,1.271-0.57,1.271-1.271V10.314
		C33.511,9.613,32.94,9.043,32.239,9.043z M7.239,29.686V2.928c0-0.287,0.234-0.521,0.521-0.521h17.687
		c0.287,0,0.521,0.234,0.521,0.521v6.49v20.268c0,0.287-0.234,0.521-0.521,0.521H13.656H7.761
		C7.474,30.207,7.239,29.973,7.239,29.686z M32.761,37.072c0,0.287-0.234,0.521-0.521,0.521H14.553
		c-0.287,0-0.521-0.234-0.521-0.521v-6.115h11.416c0.701,0,1.271-0.57,1.271-1.271V9.793h5.521c0.287,0,0.521,0.234,0.521,0.521
		V37.072z"/>
</g>
</svg>
