<?xml version="1.0" encoding="utf-8"?>
<!-- Generator: Adobe Illustrator 19.0.0, SVG Export Plug-In . SVG Version: 6.00 Build 0)  -->
<svg version="1.1" id="Livello_1" xmlns="http://www.w3.org/2000/svg" xmlns:xlink="http://www.w3.org/1999/xlink" x="0px" y="0px"
	 viewBox="0 0 40 40" enable-background="new 0 0 40 40" xml:space="preserve">
<g id="Livello_2_2_">
</g>
<g id="New_Symbol_232">
</g>
<g>
	<g>
		<path d="M18.405,35.849c-4.905,0-9.78-2.092-13.108-6.115c-0.211-0.256-0.175-0.634,0.08-0.845
			c0.255-0.213,0.633-0.175,0.845,0.079c5.417,6.55,15.244,7.594,21.905,2.326c6.821-5.39,7.985-15.323,2.597-22.144
			c-2.61-3.304-6.352-5.394-10.534-5.883c-4.184-0.489-8.305,0.679-11.608,3.288C8.32,6.761,7.943,6.717,7.738,6.457
			c-0.206-0.26-0.161-0.638,0.099-0.843c3.555-2.809,7.988-4.062,12.492-3.539c4.5,0.527,8.526,2.776,11.335,6.331
			c5.799,7.34,4.546,18.029-2.794,23.829C25.795,34.667,22.091,35.849,18.405,35.849z"/>
	</g>
	<g>
		<path d="M5.758,29.35"/>
	</g>
	<g>
		<path d="M6.141,37.716c-0.304,0-0.564-0.229-0.596-0.538l-0.853-8.215c-0.018-0.167,0.036-0.333,0.147-0.459
			s0.27-0.199,0.438-0.202l8.217-0.153c0.358-0.032,0.605,0.257,0.611,0.589c0.006,0.331-0.258,0.604-0.589,0.61l-7.564,0.142
			l0.785,7.565c0.034,0.329-0.205,0.624-0.535,0.658C6.182,37.715,6.161,37.716,6.141,37.716z"/>
	</g>
</g>
</svg>
