<?xml version="1.0" encoding="utf-8"?>
<!-- Generator: Adobe Illustrator 19.0.0, SVG Export Plug-In . SVG Version: 6.00 Build 0)  -->
<svg version="1.1" id="Livello_1" xmlns="http://www.w3.org/2000/svg" xmlns:xlink="http://www.w3.org/1999/xlink" x="0px" y="0px"
	 viewBox="0 0 40 40" enable-background="new 0 0 40 40" xml:space="preserve">
<g id="Livello_2_2_">
</g>
<g id="New_Symbol_232">
</g>
<g>
	<path d="M30.012,19.059c0.145-0.514,0.192-1.044,0.192-1.565c0-3.531-2.871-6.403-6.403-6.403c-1.392,0-2.717,0.439-3.829,1.272
		c-1.076,0.806-1.886,1.952-2.286,3.227c-0.01,0.041-0.056,0.139-0.24,0.108c-0.014-0.002-0.032-0.001-0.05-0.002
		c-0.061-0.005-0.124-0.008-0.192-0.008c-2.094,0-3.961,1.355-4.679,3.379c-0.01,0.03-0.042,0.103-0.128,0.085
		c-0.01-0.002-0.019-0.003-0.028-0.006c-0.318-0.062-0.643-0.095-0.966-0.095c-2.719,0-4.928,2.21-4.928,4.929
		c0,2.718,2.21,4.929,4.928,4.929h17.191c2.716,0,4.928-2.211,4.928-4.929c0-2.131-1.394-4.037-3.412-4.689
		C30.062,19.274,29.959,19.239,30.012,19.059z M28.595,27.992H11.405c-2.214,0-4.012-1.8-4.012-4.012
		c0-2.212,1.798-4.012,4.012-4.012c0.272,0,0.542,0.027,0.807,0.081c0.088,0.017,0.174,0.028,0.26,0.028
		c0.427,0,0.762-0.236,0.893-0.629c0.568-1.7,2.108-2.843,3.84-2.843c0.054,0,0.115,0.003,0.182,0.008
		c0.07,0.005,0.142,0.009,0.222,0.01h0.014c0.531,0,0.846-0.245,0.935-0.726c0.003-0.015,0.006-0.028,0.006-0.035
		c0.72-2.307,2.822-3.855,5.239-3.855c3.025,0,5.485,2.461,5.485,5.487c0,0.52-0.075,1.044-0.224,1.561
		c-0.072,0.251-0.058,0.474,0.047,0.665c0.158,0.282,0.441,0.36,0.575,0.399l0.022,0.006c1.707,0.493,2.899,2.077,2.899,3.855
		C32.606,26.192,30.806,27.992,28.595,27.992z"/>
</g>
</svg>
