<?xml version="1.0" encoding="utf-8"?>
<!-- Generator: Adobe Illustrator 19.0.0, SVG Export Plug-In . SVG Version: 6.00 Build 0)  -->
<svg version="1.1" id="Livello_1" xmlns="http://www.w3.org/2000/svg" xmlns:xlink="http://www.w3.org/1999/xlink" x="0px" y="0px"
	 viewBox="0 0 40 40" enable-background="new 0 0 40 40" xml:space="preserve">
<g id="Livello_2_2_">
</g>
<g id="New_Symbol_232">
</g>
<g>
	<path d="M24.477,2.682c-7.437,0-13.488,6.05-13.488,13.487c0,3.583,1.414,6.835,3.701,9.253L0.77,37.681
		c-0.249,0.219-0.273,0.598-0.054,0.847C0.835,38.662,1,38.73,1.167,38.73c0.141,0,0.283-0.049,0.396-0.149l13.993-12.323
		c2.381,2.107,5.499,3.399,8.921,3.399c7.438,0,13.489-6.05,13.489-13.487S31.915,2.682,24.477,2.682z M24.477,28.457
		c-6.775,0-12.288-5.513-12.288-12.288S17.702,3.881,24.477,3.881c6.776,0,12.289,5.513,12.289,12.288S31.253,28.457,24.477,28.457z
		"/>
	<path d="M24.477,5.953c-0.332,0-0.6,0.269-0.6,0.6s0.269,0.6,0.6,0.6c5.354,0,9.711,4.356,9.711,9.711c0,0.331,0.269,0.6,0.6,0.6
		s0.6-0.269,0.6-0.6C35.388,10.848,30.494,5.953,24.477,5.953z"/>
</g>
</svg>
