<?xml version="1.0" encoding="utf-8"?>
<!-- Generator: Adobe Illustrator 19.0.0, SVG Export Plug-In . SVG Version: 6.00 Build 0)  -->
<svg version="1.1" id="Livello_1" xmlns="http://www.w3.org/2000/svg" xmlns:xlink="http://www.w3.org/1999/xlink" x="0px" y="0px"
	 viewBox="0 0 40 40" enable-background="new 0 0 40 40" xml:space="preserve">
<g id="Livello_2_2_">
</g>
<g id="New_Symbol_232">
</g>
<g>
	<path fill="#000200" d="M29.015,36.869h-2.003V19.223c0-4.689-3.786-4.743-3.825-4.743h-3.373
		c-0.006-0.148-0.014-0.294-0.025-0.435c0.029-0.754,0.193-1.928,0.79-3.286c0.328,0.065,0.801,0.133,1.366,0.133
		c0.977,0,2.214-0.204,3.381-0.979c1.937-1.288,3.08-3.736,3.398-7.277c0.014-0.157-0.041-0.313-0.149-0.426
		c-0.109-0.114-0.26-0.18-0.419-0.169c-0.211,0.009-5.189,0.257-7.482,3.219c-1.004,1.296-1.327,2.901-0.976,4.767
		c-0.217,0.458-0.392,0.902-0.528,1.322c-0.104-0.246-0.221-0.467-0.343-0.678c0.001-0.518-0.106-2.181-1.446-3.459
		c-1.326-1.263-3.408-1.736-6.187-1.408c-0.161,0.019-0.306,0.109-0.394,0.245c-0.089,0.136-0.112,0.305-0.064,0.46
		c0.057,0.181,1.418,4.456,4.203,5.419c0.375,0.129,0.755,0.194,1.139,0.194c0.653,0,1.318-0.189,1.991-0.561
		c0.302,0.639,0.53,1.445,0.621,2.462c-0.005,0.171-0.005,0.322-0.001,0.457h-1.877c-1.327,0-2.356,0.41-3.06,1.22
		c-1.151,1.322-0.983,3.241-0.947,3.557v17.613h-1.822c-0.302,0-0.546,0.244-0.546,0.546c0,0.302,0.244,0.546,0.546,0.546h5.646
		h6.693h5.691c0.302,0,0.546-0.244,0.546-0.546C29.562,37.114,29.317,36.869,29.015,36.869z M21.536,5.93
		c1.537-1.989,4.68-2.575,6.029-2.739c-0.356,2.833-1.308,4.783-2.834,5.804c-1.323,0.884-2.8,0.856-3.632,0.74
		c0.756-1.311,1.934-2.729,3.77-4.077c0.243-0.179,0.296-0.521,0.117-0.764c-0.178-0.243-0.521-0.296-0.764-0.117
		C22.62,5.953,21.479,7.18,20.663,8.36C20.713,7.437,21.001,6.621,21.536,5.93z M15.298,10.894
		c-1.699-0.586-2.823-2.926-3.282-4.072c2.08-0.146,3.626,0.248,4.601,1.169c0.331,0.313,0.563,0.662,0.727,1.005
		c-1.204-0.88-2.399-0.961-2.424-0.962c-0.298-0.016-0.553,0.217-0.57,0.517c-0.016,0.3,0.215,0.557,0.515,0.575
		c0.097,0.006,1.538,0.115,2.633,1.503C16.721,11.046,15.998,11.135,15.298,10.894z M13.894,19.147
		c-0.002-0.017-0.209-1.705,0.683-2.731c0.487-0.56,1.24-0.844,2.236-0.844h6.375c0.111,0,2.732,0.042,2.732,3.651v17.646h-2.049
		v-6.127c0-0.302-0.244-0.546-0.546-0.546h-6.693c-0.302,0-0.546,0.244-0.546,0.546v6.127h-2.185V19.223
		C13.899,19.198,13.898,19.172,13.894,19.147z M17.177,36.869v-5.581h5.6v5.581H17.177z"/>
	<rect x="16.755" y="18.536" fill="#000200" width="2.073" height="2.343"/>
	<rect x="16.755" y="22.36" fill="#000200" width="2.073" height="2.343"/>
	<rect x="16.755" y="26.185" fill="#000200" width="2.073" height="2.343"/>
	<rect x="21.126" y="18.536" fill="#000200" width="2.073" height="2.343"/>
	<rect x="21.126" y="22.36" fill="#000200" width="2.073" height="2.343"/>
	<rect x="21.126" y="26.185" fill="#000200" width="2.073" height="2.343"/>
</g>
</svg>
