<?xml version="1.0" encoding="utf-8"?>
<!-- Generator: Adobe Illustrator 19.0.0, SVG Export Plug-In . SVG Version: 6.00 Build 0)  -->
<svg version="1.1" id="Livello_1" xmlns="http://www.w3.org/2000/svg" xmlns:xlink="http://www.w3.org/1999/xlink" x="0px" y="0px"
	 viewBox="0 0 40 40" enable-background="new 0 0 40 40" xml:space="preserve">
<g id="Livello_2_2_">
</g>
<g id="New_Symbol_232">
</g>
<g>
	<path d="M29.693,13.325c-0.047-0.016-0.146-0.049-0.095-0.222c0.139-0.493,0.185-1.001,0.185-1.5c0-3.385-2.752-6.138-6.138-6.138
		c-1.334,0-2.605,0.421-3.67,1.219c-1.031,0.772-1.808,1.871-2.191,3.094c-0.01,0.039-0.054,0.133-0.231,0.103
		c-0.014-0.002-0.03,0-0.048-0.002c-0.059-0.005-0.119-0.008-0.184-0.008c-2.007,0-3.797,1.299-4.485,3.239
		c-0.01,0.029-0.04,0.099-0.123,0.081c-0.01-0.002-0.018-0.002-0.026-0.005c-0.305-0.06-0.616-0.091-0.926-0.091
		c-2.606,0-4.724,2.118-4.724,4.725c0,2.606,2.118,4.725,4.724,4.725H28.24c2.603,0,4.724-2.119,4.724-4.725
		C32.964,15.777,31.628,13.951,29.693,13.325z M28.24,21.666H11.76c-2.123,0-3.846-1.725-3.846-3.846
		c0-2.121,1.724-3.846,3.846-3.846c0.26,0,0.519,0.026,0.773,0.078c0.084,0.017,0.167,0.027,0.25,0.027
		c0.409,0,0.731-0.227,0.856-0.603c0.545-1.63,2.021-2.725,3.681-2.725c0.052,0,0.11,0.002,0.174,0.008
		c0.068,0.005,0.137,0.009,0.212,0.01h0.014c0.509,0,0.811-0.235,0.896-0.696c0.003-0.015,0.005-0.027,0.005-0.034
		c0.69-2.211,2.706-3.696,5.022-3.696c2.9,0,5.258,2.359,5.258,5.26c0,0.499-0.071,1.001-0.215,1.497
		c-0.069,0.24-0.055,0.455,0.046,0.637c0.151,0.271,0.423,0.346,0.551,0.382l0.021,0.005c1.636,0.473,2.779,1.991,2.779,3.695
		C32.084,19.941,30.359,21.666,28.24,21.666z"/>
	<path d="M18.25,27.685h-0.429l0.352-0.352c0.101-0.103,0.101-0.268,0-0.368c-0.102-0.099-0.268-0.101-0.367,0l-0.721,0.72H15.5
		l0.801-1.387l0.96-0.257c0.067-0.019,0.124-0.062,0.158-0.122c0.035-0.061,0.044-0.131,0.026-0.197
		c-0.019-0.067-0.062-0.124-0.122-0.158c-0.06-0.035-0.129-0.044-0.197-0.026l-0.457,0.123l0.205-0.356
		c0.035-0.06,0.045-0.13,0.027-0.197s-0.061-0.124-0.121-0.159s-0.132-0.047-0.198-0.025c-0.067,0.019-0.123,0.062-0.157,0.121
		l-0.215,0.372l-0.128-0.48c-0.019-0.067-0.062-0.124-0.122-0.158c-0.062-0.036-0.133-0.045-0.197-0.026
		c-0.138,0.037-0.22,0.18-0.185,0.319l0.265,0.982l-0.793,1.373l-0.802-1.388l0.258-0.96c0.018-0.067,0.009-0.138-0.026-0.198
		c-0.035-0.06-0.091-0.103-0.157-0.12c-0.136-0.035-0.281,0.045-0.319,0.184l-0.122,0.457l-0.206-0.356
		c-0.034-0.06-0.091-0.104-0.158-0.121c-0.066-0.018-0.137-0.009-0.197,0.025c-0.06,0.034-0.104,0.091-0.121,0.158
		c-0.019,0.066-0.009,0.137,0.025,0.197l0.215,0.372l-0.479-0.128c-0.067-0.021-0.138-0.01-0.196,0.024
		c-0.061,0.035-0.104,0.091-0.122,0.158c-0.019,0.066-0.01,0.137,0.024,0.196c0.035,0.061,0.091,0.104,0.159,0.123l0.982,0.263
		l0.792,1.373h-1.602l-0.702-0.703c-0.102-0.1-0.266-0.1-0.369,0c-0.101,0.102-0.101,0.268,0.001,0.369l0.335,0.334h-0.413
		c-0.144,0-0.26,0.116-0.26,0.26s0.116,0.26,0.26,0.26h0.43l-0.353,0.352c-0.101,0.102-0.101,0.268,0,0.369
		c0.1,0.098,0.272,0.096,0.369,0l0.719-0.72h1.585l-0.801,1.387l-0.959,0.257c-0.14,0.038-0.222,0.182-0.185,0.318
		c0.035,0.137,0.183,0.216,0.318,0.186l0.458-0.123l-0.207,0.357c-0.035,0.061-0.044,0.131-0.025,0.198s0.062,0.123,0.121,0.157
		c0.117,0.066,0.283,0.023,0.355-0.096l0.214-0.371l0.13,0.48c0.031,0.114,0.132,0.191,0.251,0.191c0.022,0,0.044-0.003,0.066-0.008
		c0.139-0.038,0.222-0.182,0.185-0.319l-0.264-0.983l0.793-1.372l0.801,1.388l-0.258,0.961c-0.035,0.138,0.047,0.28,0.187,0.317
		c0.155,0.036,0.28-0.051,0.317-0.185l0.122-0.457l0.205,0.355c0.065,0.118,0.223,0.168,0.356,0.098
		c0.061-0.035,0.104-0.092,0.121-0.159s0.008-0.138-0.026-0.196l-0.215-0.372l0.482,0.129c0.156,0.037,0.28-0.051,0.317-0.185
		c0.018-0.067,0.009-0.138-0.026-0.198s-0.092-0.103-0.158-0.12l-0.983-0.264L15.5,28.204h1.603l0.704,0.705
		c0.1,0.097,0.264,0.097,0.366-0.002c0.101-0.103,0.101-0.268,0-0.367l-0.335-0.336h0.412c0.144,0,0.261-0.116,0.261-0.26
		S18.394,27.685,18.25,27.685z"/>
	<path d="M30.423,29.307c-0.001,0-0.002,0-0.003,0h-0.832l0.663-0.663c0.13-0.131,0.13-0.343,0-0.474
		c-0.131-0.128-0.344-0.13-0.473,0l-1.137,1.136h-2.606l1.315-2.279l1.517-0.405c0.087-0.023,0.159-0.079,0.204-0.157
		c0.045-0.077,0.056-0.168,0.033-0.253c-0.049-0.18-0.238-0.285-0.41-0.237l-0.87,0.233l0.403-0.698
		c0.045-0.077,0.057-0.167,0.034-0.253c-0.023-0.087-0.079-0.159-0.156-0.204c-0.155-0.092-0.363-0.04-0.458,0.122l-0.415,0.721
		l-0.242-0.906c-0.023-0.086-0.079-0.157-0.157-0.202c-0.076-0.045-0.166-0.059-0.252-0.033c-0.087,0.022-0.159,0.078-0.204,0.155
		s-0.058,0.168-0.034,0.255l0.417,1.552l-1.304,2.257l-1.316-2.279l0.407-1.518c0.046-0.177-0.06-0.36-0.236-0.409
		c-0.088-0.023-0.176-0.011-0.254,0.033c-0.078,0.045-0.134,0.117-0.157,0.204l-0.233,0.87l-0.402-0.698
		c-0.044-0.077-0.116-0.133-0.203-0.156c-0.088-0.024-0.176-0.012-0.254,0.033c-0.159,0.092-0.215,0.297-0.123,0.457l0.416,0.721
		l-0.905-0.243c-0.181-0.04-0.361,0.06-0.41,0.238c-0.046,0.177,0.06,0.36,0.237,0.409l1.553,0.415l1.302,2.257h-2.632l-1.109-1.11
		c-0.131-0.129-0.344-0.13-0.475,0.001c-0.129,0.13-0.129,0.343,0.001,0.474l0.637,0.636h-0.807c-0.185,0-0.335,0.149-0.335,0.334
		s0.15,0.335,0.335,0.335h0.833l-0.664,0.662c-0.13,0.131-0.13,0.344,0,0.475c0.127,0.125,0.349,0.125,0.474,0l1.137-1.136h2.605
		l-1.315,2.279l-1.517,0.406c-0.086,0.022-0.157,0.078-0.202,0.155s-0.058,0.168-0.034,0.254c0.046,0.173,0.214,0.291,0.41,0.237
		l0.869-0.232l-0.403,0.697c-0.045,0.078-0.057,0.168-0.033,0.254c0.023,0.087,0.079,0.158,0.154,0.201
		c0.148,0.092,0.369,0.036,0.459-0.12l0.415-0.721l0.243,0.905c0.04,0.146,0.173,0.248,0.323,0.248c0.028,0,0.056-0.004,0.087-0.012
		c0.178-0.047,0.284-0.23,0.237-0.41l-0.417-1.552l1.303-2.257l1.317,2.28l-0.407,1.517c-0.046,0.177,0.06,0.36,0.237,0.409
		c0.168,0.04,0.362-0.062,0.41-0.237l0.232-0.869l0.403,0.697c0.088,0.155,0.307,0.212,0.457,0.123
		c0.159-0.092,0.214-0.297,0.122-0.457l-0.417-0.721l0.906,0.243c0.178,0.045,0.365-0.063,0.41-0.237
		c0.022-0.086,0.011-0.177-0.033-0.254c-0.045-0.077-0.117-0.133-0.204-0.156l-1.552-0.415l-1.303-2.258h2.633l1.109,1.11
		c0.128,0.126,0.348,0.125,0.474,0c0.13-0.131,0.13-0.343,0-0.474l-0.638-0.637h0.807c0.185,0,0.335-0.149,0.335-0.334
		c0-0.09-0.035-0.175-0.099-0.237C30.594,29.341,30.51,29.307,30.423,29.307z"/>
</g>
</svg>
