<?xml version="1.0" encoding="utf-8"?>
<!-- Generator: Adobe Illustrator 19.0.0, SVG Export Plug-In . SVG Version: 6.00 Build 0)  -->
<svg version="1.1" id="Livello_1" xmlns="http://www.w3.org/2000/svg" xmlns:xlink="http://www.w3.org/1999/xlink" x="0px" y="0px"
	 viewBox="0 0 40 40" enable-background="new 0 0 40 40" xml:space="preserve">
<g id="Livello_2_2_">
</g>
<g id="New_Symbol_232">
</g>
<g>
	<path fill="#000200" d="M32.953,28.295V10.296H7.047v17.999H19.4v1.744l-4.724,2.616l0.581,1.049L20,31.077l4.743,2.628
		l0.581-1.049L20.6,30.039v-1.744H32.953z M31.753,11.495v15.601H8.246V11.495H31.753z"/>
	<path fill="#000200" d="M29.108,14.678c-0.564-0.143-1.138,0.198-1.281,0.762c-0.054,0.214-0.039,0.429,0.032,0.621l-5.451,5.2
		c-0.056-0.026-0.114-0.048-0.176-0.064c-0.205-0.052-0.41-0.039-0.596,0.025l-3.494-3.694c0.026-0.057,0.049-0.117,0.066-0.181
		c0.143-0.564-0.198-1.138-0.762-1.281c-0.564-0.143-1.138,0.198-1.281,0.762c-0.056,0.22-0.036,0.441,0.04,0.638l-4.36,4.154
		c-0.047-0.02-0.095-0.04-0.146-0.053c-0.564-0.143-1.138,0.198-1.281,0.762c-0.143,0.564,0.198,1.138,0.762,1.281
		c0.564,0.143,1.138-0.198,1.281-0.762c0.054-0.213,0.039-0.428-0.032-0.62l4.372-4.164c0.042,0.016,0.082,0.035,0.126,0.046
		c0.201,0.051,0.401,0.038,0.585-0.021l3.502,3.702c-0.024,0.054-0.046,0.11-0.062,0.169c-0.143,0.564,0.198,1.138,0.762,1.281
		c0.564,0.143,1.138-0.198,1.281-0.762c0.051-0.202,0.038-0.405-0.022-0.589l5.472-5.221c0.047,0.02,0.094,0.04,0.145,0.053
		c0.564,0.143,1.138-0.198,1.281-0.762C30.013,15.394,29.672,14.821,29.108,14.678z"/>
</g>
</svg>
