<?xml version="1.0" encoding="utf-8"?>
<!-- Generator: Adobe Illustrator 19.0.0, SVG Export Plug-In . SVG Version: 6.00 Build 0)  -->
<svg version="1.1" id="Livello_1" xmlns="http://www.w3.org/2000/svg" xmlns:xlink="http://www.w3.org/1999/xlink" x="0px" y="0px"
	 viewBox="0 0 40 40" enable-background="new 0 0 40 40" xml:space="preserve">
<g id="Livello_2_2_">
</g>
<g id="New_Symbol_232">
</g>
<g>
	<path d="M29.742,13.128c-0.047-0.016-0.147-0.049-0.095-0.223c0.14-0.495,0.185-1.006,0.185-1.508c0-3.402-2.766-6.169-6.169-6.169
		c-1.341,0-2.618,0.423-3.689,1.225c-1.037,0.776-1.817,1.881-2.202,3.109c-0.01,0.039-0.054,0.134-0.232,0.104
		c-0.014-0.002-0.031-0.001-0.048-0.002c-0.059-0.005-0.12-0.008-0.185-0.008c-2.017,0-3.817,1.305-4.508,3.256
		c-0.01,0.029-0.04,0.099-0.123,0.082c-0.01-0.002-0.018-0.002-0.027-0.005c-0.306-0.06-0.619-0.091-0.931-0.091
		c-2.619,0-4.748,2.129-4.748,4.749c0,2.619,2.129,4.749,4.748,4.749h5.704c0.366,1.384,0.798,2.457,0.976,2.411
		c0.171-0.044,0.045-1.101-0.276-2.411h6.489c0.048,0.34,0.113,0.686,0.171,0.911c0.148,0.57,0.412,0.995,0.591,0.949
		s0.203-0.546,0.055-1.117c-0.05-0.193-0.14-0.467-0.242-0.743h3.094c2.617,0,4.748-2.13,4.748-4.749
		C33.03,15.593,31.687,13.756,29.742,13.128z M28.281,21.511h-3.486c-0.072-0.12-0.135-0.191-0.18-0.18
		c-0.036,0.009-0.053,0.082-0.062,0.18h-6.663c-0.444-1.587-1.236-4.093-1.396-4.052c-0.154,0.04,0.331,2.444,0.709,4.052h-5.485
		c-2.133,0-3.866-1.734-3.866-3.866c0-2.131,1.732-3.865,3.866-3.865c0.262,0,0.522,0.026,0.777,0.078
		c0.085,0.017,0.168,0.027,0.251,0.027c0.411,0,0.735-0.228,0.86-0.606c0.548-1.638,2.031-2.739,3.7-2.739
		c0.052,0,0.111,0.002,0.175,0.008c0.068,0.005,0.137,0.009,0.214,0.01h0.014c0.511,0,0.815-0.236,0.901-0.699
		c0.003-0.015,0.005-0.027,0.005-0.034c0.693-2.222,2.719-3.715,5.047-3.715c2.915,0,5.285,2.371,5.285,5.287
		c0,0.501-0.072,1.006-0.216,1.504c-0.069,0.242-0.056,0.457,0.046,0.641c0.152,0.272,0.425,0.347,0.554,0.384l0.021,0.005
		c1.645,0.475,2.794,2.001,2.794,3.714C32.146,19.778,30.412,21.511,28.281,21.511z"/>
	<path d="M17.899,27.823c-0.178,0.046,0.019,1.404,0.167,1.974c0.148,0.57,0.412,0.995,0.591,0.949
		c0.179-0.046,0.203-0.546,0.055-1.117S18.078,27.776,17.899,27.823z"/>
	<path d="M23.054,25.612c-0.182,0.047,0.53,3.402,0.901,4.836c0.372,1.433,0.821,2.557,1.003,2.51
		c0.182-0.047,0.029-1.248-0.343-2.681C24.244,28.843,23.236,25.565,23.054,25.612z"/>
	<path d="M29.451,29.532c-0.178,0.046,0.019,1.404,0.167,1.974c0.148,0.57,0.412,0.995,0.591,0.949s0.203-0.546,0.055-1.117
		S29.63,29.485,29.451,29.532z"/>
</g>
</svg>
