<?xml version="1.0" encoding="utf-8"?>
<!-- Generator: Adobe Illustrator 19.0.0, SVG Export Plug-In . SVG Version: 6.00 Build 0)  -->
<svg version="1.1" id="Livello_1" xmlns="http://www.w3.org/2000/svg" xmlns:xlink="http://www.w3.org/1999/xlink" x="0px" y="0px"
	 viewBox="0 0 40 40" enable-background="new 0 0 40 40" xml:space="preserve">
<g id="Livello_2_2_">
</g>
<g id="New_Symbol_232">
</g>
<path fill="#000200" d="M28.833,21.991c0.501-1.716,1.002-3.431,1.503-5.153c1.049-0.157,1.859-1.035,1.881-2.079
	c0.025-1.194-0.807-2.164-1.98-2.306c-1.108-0.133-2.186,0.669-2.403,1.788c-0.106,0.546-0.024,1.059,0.25,1.517
	c-0.932,0.566-1.863,1.135-2.793,1.704l-1.588,0.97l-0.961-1.751c-0.964-1.758-1.928-3.515-2.905-5.287
	c0.659-0.507,0.956-1.367,0.782-2.312c-0.175-0.952-1.054-1.626-2.136-1.639c-0.011,0-0.021,0-0.032,0
	c-1.055,0-1.868,0.635-2.075,1.626c-0.192,0.919,0.105,1.794,0.781,2.323c-0.972,1.761-1.939,3.525-2.906,5.288l-0.96,1.751
	l-1.589-0.97c-0.927-0.567-1.854-1.134-2.79-1.702c0.269-0.449,0.354-0.967,0.247-1.519c-0.217-1.119-1.297-1.921-2.403-1.788
	c-1.172,0.142-2.005,1.111-1.98,2.305c0.022,1.044,0.832,1.922,1.881,2.079c0.688,2.364,1.378,4.728,2.069,7.092l0.647,2.214
	c0.205,0.702,0.546,0.963,1.26,0.963l7.864-0.001l2.416,0l0-0.001c-0.052,0.169-0.094,0.343-0.133,0.517l-2.283,0l-7.367-0.001
	c-0.119,0-0.275,0.006-0.436,0.045c-0.918,0.223-1.499,1.066-1.379,2.005c0.113,0.896,0.878,1.546,1.817,1.546l7.759,0.001l1.981,0
	c0.866,3.075,3.689,5.338,7.036,5.338c4.034,0,7.315-3.282,7.315-7.315C35.224,25.521,32.431,22.447,28.833,21.991z M11.132,30.092
	c-0.365,0-0.659-0.236-0.701-0.561c-0.047-0.372,0.165-0.681,0.528-0.769c0.047-0.011,0.122-0.013,0.173-0.013l7.365,0.001l2.121,0
	c-0.011,0.164-0.025,0.326-0.025,0.493c0,0.288,0.021,0.571,0.054,0.851L11.132,30.092z M23.783,23.216
	c-0.086,0.059-0.173,0.117-0.256,0.18c-0.042,0.032-0.082,0.066-0.123,0.099c-0.085,0.067-0.172,0.134-0.254,0.205
	c-0.051,0.044-0.098,0.091-0.147,0.136c-0.07,0.064-0.142,0.126-0.209,0.192c-0.035,0.034-0.067,0.071-0.102,0.107
	c-0.079,0.08-0.158,0.16-0.233,0.244c-0.028,0.032-0.054,0.066-0.082,0.098c-0.078,0.09-0.156,0.18-0.229,0.274
	c-0.029,0.036-0.054,0.075-0.082,0.112c-0.069,0.092-0.139,0.184-0.204,0.28c-0.027,0.04-0.051,0.082-0.077,0.122
	c-0.062,0.095-0.125,0.191-0.183,0.289c-0.029,0.05-0.055,0.102-0.083,0.153c-0.051,0.091-0.103,0.182-0.15,0.275h0
	c0,0.001-0.001,0.001-0.001,0.001l0-0.001l-2.872-0.001l-7.864,0.001c-0.06,0-0.101-0.002-0.129-0.004
	c-0.012-0.03-0.028-0.077-0.049-0.148l-0.647-2.215c-0.707-2.42-1.414-4.84-2.118-7.26c-0.14-0.482-0.493-0.602-0.764-0.618
	c-0.563-0.033-1.012-0.472-1.023-1c-0.013-0.622,0.384-1.09,0.988-1.163c0.525-0.065,1.057,0.342,1.163,0.884
	c0.068,0.352-0.01,0.647-0.24,0.903c-0.083,0.092-0.278,0.309-0.231,0.623c0.047,0.319,0.304,0.474,0.388,0.525
	c1.05,0.636,2.097,1.276,3.145,1.917l1.636,1c0.219,0.133,0.514,0.275,0.852,0.185c0.34-0.091,0.529-0.366,0.655-0.596l0.981-1.788
	c1.011-1.843,2.022-3.687,3.038-5.527c0.249-0.452,0.132-0.859-0.321-1.118c-0.49-0.28-0.568-0.844-0.477-1.278
	c0.144-0.686,0.795-0.733,0.991-0.73c0.439,0.006,0.953,0.232,1.042,0.717c0.04,0.216,0.123,0.949-0.475,1.291
	c-0.453,0.259-0.57,0.667-0.321,1.118c1.016,1.84,2.027,3.684,3.038,5.527l0.981,1.788c0.126,0.23,0.315,0.505,0.655,0.596
	c0.338,0.09,0.633-0.051,0.852-0.185l1.636-0.999c1.047-0.64,2.094-1.281,3.144-1.917c0.084-0.051,0.341-0.206,0.388-0.525
	c0.047-0.314-0.148-0.531-0.231-0.623c-0.23-0.255-0.308-0.55-0.24-0.903c0.105-0.543,0.638-0.95,1.163-0.884
	c0.605,0.073,1.002,0.541,0.989,1.164c-0.011,0.528-0.461,0.966-1.024,1c-0.271,0.016-0.624,0.136-0.764,0.618
	c-0.541,1.862-1.085,3.724-1.629,5.585c-0.473,0.015-0.934,0.078-1.38,0.179c-0.042,0.01-0.085,0.016-0.127,0.027
	c-0.08,0.02-0.158,0.045-0.238,0.067c-0.08,0.023-0.162,0.043-0.241,0.068c-0.086,0.027-0.169,0.06-0.253,0.091
	c-0.07,0.025-0.142,0.048-0.211,0.075c-0.111,0.044-0.219,0.094-0.328,0.143c-0.04,0.018-0.082,0.034-0.122,0.053
	c-0.088,0.042-0.174,0.089-0.26,0.135c-0.058,0.03-0.117,0.058-0.174,0.09c-0.064,0.036-0.125,0.076-0.187,0.114
	c-0.076,0.046-0.154,0.09-0.229,0.139C23.876,23.149,23.831,23.184,23.783,23.216z M31.705,30.437
	c-0.119,0.444-0.296,0.843-0.526,1.187c-0.335,0.492-0.773,0.893-1.305,1.196c-0.622,0.361-1.272,0.543-1.941,0.543
	c-0.343,0-0.691-0.047-1.043-0.143c-1.047-0.285-1.849-0.904-2.383-1.843c-0.077-0.129-0.153-0.276-0.229-0.444
	c-0.349-0.81-0.405-1.657-0.171-2.527c0.053-0.218,0.134-0.446,0.239-0.669c0.005-0.014,0.01-0.027,0.016-0.04
	c0.264-0.555,0.648-1.024,1.142-1.392c0.166-0.124,0.402-0.09,0.525,0.077c0.124,0.166,0.09,0.401-0.076,0.525
	c-0.385,0.287-0.687,0.651-0.898,1.081c-0.005,0.014-0.01,0.027-0.016,0.04c-0.091,0.19-0.158,0.374-0.205,0.565
	c-0.194,0.721-0.151,1.384,0.13,2.037c0.054,0.119,0.117,0.245,0.191,0.371c0.441,0.774,1.071,1.262,1.93,1.495
	c0.849,0.231,1.639,0.123,2.413-0.326c0.434-0.247,0.788-0.571,1.056-0.964c0.182-0.273,0.325-0.598,0.424-0.964
	c0.232-0.853,0.129-1.643-0.314-2.415c-0.344-0.591-0.795-1.011-1.379-1.28c-0.011-0.005-0.023-0.009-0.033-0.014l0.308,0.95
	c0.064,0.197-0.044,0.409-0.241,0.473c-0.039,0.012-0.078,0.018-0.116,0.018c-0.158,0-0.306-0.101-0.357-0.26l-0.537-1.656
	c0,0,0-0.002,0-0.003c0-0.001-0.001-0.002-0.001-0.003c-0.002-0.007,0-0.014-0.002-0.021c-0.006-0.023-0.006-0.047-0.008-0.072
	c-0.001-0.018-0.006-0.035-0.005-0.053c0.001-0.009,0.005-0.016,0.006-0.025c0.001-0.007-0.001-0.014,0.001-0.021
	c0.003-0.015,0.013-0.027,0.018-0.041c0.006-0.017,0.008-0.035,0.016-0.05c0.004-0.008,0.012-0.014,0.016-0.022
	c0.012-0.02,0.027-0.036,0.042-0.053c0.011-0.012,0.019-0.027,0.031-0.038c0.007-0.006,0.016-0.009,0.023-0.014
	c0.02-0.014,0.041-0.024,0.063-0.035c0.014-0.007,0.025-0.018,0.041-0.023c0,0,0.002,0,0.003,0c0.001,0,0.002-0.001,0.003-0.002
	l1.751-0.537c0.198-0.062,0.408,0.051,0.469,0.249c0.061,0.198-0.051,0.408-0.249,0.469l-0.714,0.219
	c0.615,0.333,1.125,0.82,1.502,1.468C31.857,28.393,31.988,29.397,31.705,30.437z"/>
</svg>
