<?xml version="1.0" encoding="utf-8"?>
<!-- Generator: Adobe Illustrator 19.0.0, SVG Export Plug-In . SVG Version: 6.00 Build 0)  -->
<svg version="1.1" id="Livello_1" xmlns="http://www.w3.org/2000/svg" xmlns:xlink="http://www.w3.org/1999/xlink" x="0px" y="0px"
	 viewBox="0 0 40 40" enable-background="new 0 0 40 40" xml:space="preserve">
<g>
	<g>
		<path fill="#1A171B" d="M19.494,21.456c-5.127,0-9.298-4.171-9.298-9.298c0-5.127,4.171-9.298,9.298-9.298
			c5.127,0,9.298,4.171,9.298,9.298C28.791,17.285,24.621,21.456,19.494,21.456z M19.494,3.745c-4.639,0-8.414,3.774-8.414,8.414
			c0,4.639,3.775,8.414,8.414,8.414c4.639,0,8.414-3.775,8.414-8.414C27.908,7.519,24.133,3.745,19.494,3.745z"/>
	</g>
	<g>
		<path fill="#1A171B" d="M36.322,37.139H2.666c-0.244,0-0.442-0.198-0.442-0.442V30.99c0.403-7.249,6.934-7.686,7-7.69
			l20.513-0.001c0.09,0.004,6.623,0.442,7.025,7.666l0.001,5.732C36.763,36.942,36.566,37.139,36.322,37.139z M3.108,36.256H35.88
			V30.99c-0.358-6.418-5.929-6.795-6.166-6.808L9.248,24.183c-0.212,0.013-5.784,0.41-6.141,6.831L3.108,36.256z"/>
	</g>
</g>
<g id="Livello_2_2_">
</g>
<g id="New_Symbol_232">
</g>
</svg>
