<?xml version="1.0" encoding="utf-8"?>
<!-- Generator: Adobe Illustrator 19.0.0, SVG Export Plug-In . SVG Version: 6.00 Build 0)  -->
<svg version="1.1" id="Livello_1" xmlns="http://www.w3.org/2000/svg" xmlns:xlink="http://www.w3.org/1999/xlink" x="0px" y="0px"
	 viewBox="0 0 40 40" enable-background="new 0 0 40 40" xml:space="preserve">
<g id="Livello_2_2_">
</g>
<g id="New_Symbol_232">
</g>
<g>
	<path fill="#000200" d="M39.864,19.3c-1.532-3.684-3.07-7.365-4.62-11.041c-0.356-0.845-1.037-1.114-1.917-0.756
		c-0.973,0.395-1.941,0.802-2.908,1.209l-0.832,0.35c-0.68,0.285-0.979,0.815-0.865,1.531c0.006,0.037,0.016,0.077,0.027,0.118
		c0.005,0.017,0.011,0.04,0.015,0.061c-0.096,0.027-0.19,0.061-0.285,0.094c-0.274,0.097-0.51,0.181-0.79,0.103
		c-1.63-0.453-3.143-0.845-4.624-1.198c-2.722-0.65-5.014-0.214-7.005,1.332c-0.029,0.022-0.057,0.05-0.086,0.078
		c-0.011,0.011-0.026,0.026-0.039,0.037c-0.432-0.148-0.796,0.002-1.118,0.136c-0.128,0.053-0.248,0.102-0.368,0.133
		c-0.09,0.023-0.18,0.048-0.269,0.074c-0.407,0.115-0.79,0.224-1.186,0.074c-0.539-0.205-1.07-0.385-1.659-0.582
		c-0.083-0.028-0.131-0.048-0.139-0.05c0-0.002-0.008-0.034,0.023-0.141c0.248-0.839-0.024-1.397-0.856-1.754
		c-1.148-0.493-2.3-0.977-3.452-1.458C5.745,7.161,5.129,7.416,4.639,8.587l-4.45,10.65c-0.417,0.999-0.153,1.635,0.859,2.062
		l3.213,1.35c0.402,0.171,0.859,0.366,1.379,0.242c0.485-0.115,0.728-0.479,0.918-0.843c0.419,0.332,0.852,0.566,1.273,0.794
		l0.128,0.07c0.431,0.234,0.855,0.539,1.333,0.961c0.217,0.191,0.294,0.354,0.284,0.602c-0.033,0.801,0.327,1.416,1.039,1.779
		c0.14,0.071,0.168,0.099,0.188,0.187c0.203,0.897,0.879,1.377,1.445,1.696c0.041,0.023,0.085,0.042,0.129,0.061
		c0.131,0.056,0.132,0.066,0.136,0.111c0.145,1.707,1.432,2.164,2.536,2.372c0.171,0.032,0.208,0.078,0.234,0.201
		c0.122,0.585,0.494,1.026,1.139,1.348c0.563,0.281,1.152,0.422,1.763,0.422c0.492,0,0.997-0.091,1.514-0.273l0.051-0.018
		c0.18-0.065,0.266-0.091,0.41-0.031c1.448,0.609,2.473,0.293,3.325-1.022c0.104-0.161,0.17-0.17,0.407-0.181
		c1.174-0.052,1.975-0.549,2.381-1.478c0.111-0.254,0.25-0.361,0.53-0.406c0.877-0.141,1.488-0.592,1.677-1.236
		c0.24-0.818,0.721-1.243,1.525-1.741c1.106-0.685,1.163-2.021,1.109-2.966c-0.004-0.068-0.02-0.128-0.034-0.182
		c-0.03-0.111-0.028-0.112,0.009-0.145c0.192-0.172,0.379-0.348,0.568-0.525c0.456-0.428,0.927-0.869,1.456-1.247l0.046,0.107
		c0.106,0.252,0.209,0.493,0.32,0.731c0.357,0.762,1.018,1.036,1.769,0.734c1.3-0.524,2.596-1.064,3.853-1.605
		C39.906,20.821,40.199,20.105,39.864,19.3z M34.239,8.818c0.894,2.142,1.792,4.282,2.689,6.422l1.023,2.439
		c0.249,0.592,0.498,1.184,0.744,1.777c0.048,0.115,0.084,0.234,0.111,0.321l0.019,0.059c0.004,0.189-0.064,0.239-0.204,0.299
		c-1.223,0.517-2.446,1.031-3.672,1.54c-0.258,0.107-0.369,0.059-0.479-0.203c-1.663-3.996-3.158-7.567-4.572-10.917
		c-0.055-0.131-0.07-0.228-0.045-0.291c0.025-0.062,0.107-0.122,0.242-0.179l0.717-0.3c1.005-0.42,2.009-0.839,3.012-1.264
		c0.049-0.021,0.111-0.042,0.163-0.042c0.017,0,0.033,0.002,0.047,0.008C34.115,8.521,34.19,8.699,34.239,8.818z M6.502,8.718
		c0.407,0.169,0.814,0.342,1.221,0.514c0.687,0.291,1.375,0.582,2.068,0.86c0.197,0.079,0.31,0.158,0.345,0.242
		c0.034,0.081,0.013,0.211-0.062,0.387c-1.03,2.425-2.049,4.855-3.067,7.284l-1.403,3.343c-0.221,0.527-0.222,0.526-0.741,0.309
		L3.459,21.07c-0.645-0.27-1.291-0.539-1.935-0.81L1.452,20.23c-0.272-0.11-0.317-0.153-0.295-0.304l0.045-0.126
		c0.035-0.099,0.069-0.198,0.11-0.295c1.46-3.49,2.921-6.979,4.383-10.468C5.928,8.479,5.928,8.479,6.502,8.718z M27.66,26.416
		c0.034,0.635-0.07,1.072-0.321,1.335c-0.246,0.258-0.662,0.381-1.279,0.378c-0.413-0.006-0.559,0.192-0.646,0.506
		c-0.31,1.121-0.901,1.5-1.974,1.265c-0.508-0.111-0.636,0.198-0.712,0.382l-0.03,0.071c-0.226,0.502-0.521,0.985-1.145,1.113
		c-0.144,0.03-0.267,0.034-0.4,0.014c-0.177-0.027-0.279-0.053-0.3-0.076c0,0-0.022-0.062,0.073-0.289
		c0.247-0.586,0.249-1.206,0.005-1.746c-0.253-0.562-0.745-0.99-1.385-1.205c-0.2-0.068-0.285-0.146-0.362-0.335
		c-0.425-1.037-1.057-1.709-1.93-2.055c-0.09-0.036-0.133-0.1-0.21-0.239c-0.261-0.472-0.586-1.058-1.281-1.28
		c-0.05-0.016-0.073-0.058-0.124-0.188c-0.017-0.043-0.034-0.085-0.053-0.125c-0.464-0.957-1.223-1.501-2.196-1.571l-0.347-0.028
		c-0.314-0.027-0.631-0.053-0.946-0.053c-0.712,0-1.412,0.137-2.034,0.726c-0.001,0.001-0.003,0.003-0.005,0.004
		c-0.528-0.516-1.157-0.876-1.766-1.224c-0.341-0.195-0.694-0.397-1.018-0.622c-0.239-0.165-0.265-0.26-0.15-0.532
		c1.28-3.009,2.503-5.944,3.53-8.417c0.066-0.16,0.102-0.175,0.104-0.176c0,0,0.039-0.01,0.157,0.047
		c0.213,0.102,0.434,0.179,0.648,0.254c0.146,0.051,0.292,0.102,0.434,0.161c1.003,0.414,1.982,0.421,2.909,0.022
		c-0.409,0.637-0.996,1.102-1.612,1.589c-0.174,0.138-0.349,0.276-0.519,0.418c-0.338,0.282-0.692,0.592-0.972,0.991
		c-0.477,0.681-0.387,1.394,0.24,1.908c0.744,0.61,1.677,0.785,2.771,0.52c1.073-0.26,1.867-0.955,2.526-1.586
		c0.668-0.639,1.397-0.966,2.23-1c0.224-0.007,0.394,0.042,0.516,0.155c0.5,0.464,1.103,0.726,1.686,0.98l0.102,0.045
		c2.479,1.083,4.719,2.541,6.659,4.333c1.255,1.16,1.683,2.357,1.307,3.659c-0.236,0.82-0.66,1.147-1.509,1.165
		c-0.2,0.004-0.405,0.028-0.54,0.174C27.659,26.031,27.65,26.236,27.66,26.416z M16.358,29.747
		c-0.097-0.125-0.251-0.147-0.373-0.147c-0.038,0-0.072,0.002-0.101,0.004c-0.505,0.029-0.984-0.059-1.421-0.268
		c-0.756-0.361-0.93-0.807-0.62-1.591l0.084-0.212l-0.215-0.076c-0.112-0.039-0.226-0.074-0.341-0.108
		c-0.338-0.101-0.656-0.197-0.892-0.421c-0.299-0.285-0.527-0.624-0.768-0.983c-0.27-0.403-0.548-0.819-0.944-1.17
		c-0.117-0.104-0.156-0.215-0.124-0.351c0.069-0.29,0.447-0.62,0.826-0.72c0.678-0.18,1.423-0.159,2.155,0.062
		c0.451,0.136,0.654,0.505,0.891,1.012l0.026,0.056c0.104,0.227,0.234,0.51,0.578,0.59c0.399,0.093,0.591,0.373,0.799,0.851
		c0.111,0.255,0.249,0.572,0.631,0.669c0.727,0.186,1.19,0.688,1.504,1.629c0.116,0.349,0.3,0.685,0.857,0.783
		c0.604,0.107,0.867,0.407,0.854,0.974c-0.013,0.549-0.36,0.976-0.907,1.115c-0.696,0.176-1.351,0.086-2.002-0.276
		c-0.651-0.362-0.512-0.801-0.466-0.945C16.433,30.091,16.475,29.897,16.358,29.747z M27.541,18.364
		c-1.729-1.327-3.59-2.401-5.532-3.194c-0.439-0.179-0.75-0.369-1.006-0.615c-0.367-0.352-0.83-0.527-1.406-0.527
		c-0.207,0-0.43,0.023-0.667,0.068c-0.935,0.178-1.742,0.586-2.4,1.212c-0.579,0.551-1.178,1.121-1.994,1.348
		c-0.623,0.173-1.093,0.135-1.522-0.125c-0.142-0.086-0.16-0.141-0.162-0.155c-0.005-0.03,0.021-0.097,0.107-0.193
		c0.391-0.439,0.836-0.83,1.323-1.162c0.895-0.611,1.584-1.435,2.105-2.522c0.145-0.302,0.366-0.499,0.652-0.702
		c1.54-1.089,3.336-1.41,5.492-0.984c1.055,0.209,2.11,0.505,3.131,0.791c0.47,0.131,0.94,0.263,1.412,0.387
		c0.507,0.133,1.174,0.246,1.85-0.065c0.155-0.071,0.215-0.067,0.238-0.058c0.019,0.008,0.073,0.045,0.147,0.225
		c0.936,2.273,1.89,4.54,2.843,6.806l0.444,1.054c0.072,0.166,0.072,0.166-0.031,0.236c-0.611,0.414-1.151,0.916-1.723,1.448
		l-0.107,0.099c-0.541-1.393-1.635-2.207-2.695-2.996C27.872,18.613,27.705,18.49,27.541,18.364z"/>
	<path fill="#000200" d="M35.458,20.493c0.014,0,0.028,0,0.042-0.001c0.614-0.019,0.984-0.381,1.014-0.993
		c0.015-0.309-0.074-0.575-0.257-0.769c-0.185-0.195-0.447-0.3-0.758-0.303c-0.315-0.007-0.58,0.093-0.767,0.277
		c-0.185,0.182-0.283,0.442-0.284,0.751c-0.001,0.313,0.101,0.578,0.295,0.768C34.926,20.4,35.172,20.493,35.458,20.493z"/>
	<path fill="#000200" d="M4.465,18.458c-0.614,0.082-0.971,0.463-0.981,1.046c-0.005,0.307,0.1,0.587,0.296,0.787
		c0.188,0.192,0.449,0.298,0.734,0.299c0.001,0,0.003,0,0.004,0c0.281,0,0.541-0.105,0.731-0.296c0.198-0.2,0.307-0.477,0.304-0.78
		c-0.003-0.308-0.149-0.617-0.39-0.828C4.954,18.507,4.707,18.424,4.465,18.458z"/>
</g>
</svg>
