<?xml version="1.0" standalone="no"?>
<!DOCTYPE svg PUBLIC "-//W3C//DTD SVG 1.1//EN" "http://www.w3.org/Graphics/SVG/1.1/DTD/svg11.dtd">
<svg xmlns="http://www.w3.org/2000/svg">
<metadata>Generated by Fontastic.me</metadata>
<defs>
<font id="iwapp" horiz-adv-x="512">
<font-face font-family="iwapp" units-per-em="512" ascent="480" descent="-32"/>
<missing-glyph horiz-adv-x="512" />

<glyph glyph-name="alarm" unicode="&#97;" d="M446 169c-5 5-10 9-13 14l-1 2c-9 14-12 46-15 75l-1 11c-5 32-16 79-45 118-19 26-43 44-71 53l-4 1-1 4c-3 19-20 33-39 33-19 0-36-14-39-33l-1-4-4-1c-27-9-52-28-71-53-29-39-40-86-45-119l-1-10c-3-29-6-61-15-76l-1 0c-3-6-8-11-13-15-14-12-38-33-17-72 3-6 10-10 18-10l71 0 0-6c2-27 26-49 53-49 27 0 50 22 53 49l0 6 201 0c8 0 15 4 18 10 21 39-4 61-17 72z m-217-90c-3-19-19-33-38-33-19 0-35 14-38 33l-2 8 80 0z m222 25l-3-3-3 0-382 0-2 3c-14 27-2 40 14 54 6 6 13 12 16 19 11 17 15 48 18 81l1 11c4 30 15 75 42 111 20 26 44 43 73 51l5 1 0 8c0 14 12 26 26 26 14 0 26-12 26-26l0-8 5-1c29-8 53-25 73-51 26-36 37-81 42-112l1-10c3-33 7-64 17-81 4-7 10-13 17-18 16-15 28-28 14-55z"/>
<glyph glyph-name="alarms-tip" unicode="&#98;" d="M399 399c-47 0-85-39-85-86 0-47 38-86 85-86 48 0 86 39 86 86 0 47-38 86-86 86z m-8-36l17 0 0-69-17 0z m18-94c0-1-1-2-2-3-1-1-2-2-4-2-1-1-2-1-4-1-1 0-3 0-4 1-1 0-2 1-3 2-1 1-2 2-3 3 0 2 0 3 0 4 0 2 0 3 0 4 1 2 2 3 3 4 1 1 2 2 3 2 1 1 3 1 4 1 2 0 3 0 4-1 2 0 3-1 4-2 1-1 2-2 2-4 1-1 1-2 1-4 0-1 0-2-1-4z m-22-78l0 1c-4 3-8 6-9 10l-1 1c-7 10-9 34-11 56l-1 8c-4 25-13 61-34 90-15 20-33 34-55 41l-2 0 0 2c-3 16-16 27-31 27-16 0-29-11-32-27l0-2-2 0c-21-7-40-21-55-41-21-29-30-65-34-90l-1-8c-2-22-4-46-11-56l0-1c-3-4-7-7-10-11-11-9-30-25-13-56 3-5 8-9 15-9l52 0 0-3c2-21 20-38 41-38 22 0 40 17 42 38l0 3 150 0c7 0 12 4 16 9 16 31-3 48-14 56z m-166-65l0-3c-2-14-14-24-28-24-13 0-25 10-27 24l-1 3 56 0z m167 16l-1-2-289 0-1 2c-11 19-2 29 10 39 5 4 10 9 13 14 8 14 11 37 13 63l1 7c3 23 11 57 32 84 14 19 32 32 53 37l6 2 0 7c0 10 8 18 18 18 10 0 18-8 18-18l0-7 5-2c21-5 39-18 54-37 20-27 28-61 31-84l1-7c2-26 5-50 13-62 4-6 8-10 13-15 12-10 21-20 10-39z"/>
<glyph glyph-name="alert" unicode="&#99;" d="M462 71l-412 0c-7 0-14 3-17 10-4 6-4 13 0 20l206 356c3 6 10 10 17 10 7 0 14-4 17-10l206-356c2-3 3-7 3-10 0-11-9-20-20-20z m-206 384c-3 0-6-1-7-4l-206-356c-2-3-2-6 0-9 1-2 4-4 7-4l412 0c4 0 8 4 8 9 0 1 0 3-1 5l-206 355c-1 3-4 4-7 4z m0-278c-3 0-6 3-6 6l0 203c0 3 3 5 6 5 3 0 6-2 6-5l0-203c0-3-3-6-6-6z m0-42c-3 0-6 2-6 6l0 15c0 3 3 6 6 6 3 0 6-3 6-6l0-15c0-4-3-6-6-6z"/>
<glyph glyph-name="badge" unicode="&#100;" d="M258 12c-10 0-19 5-26 8l-1 1c-11 6-40 22-73 49-19 14-34 28-45 42-12 14-21 28-26 42-4 11-5 22-5 23-1 4-2 14-2 21l0 203c0 9 8 17 17 17 0 0 16 0 23 0 59 0 125 76 126 77 3 3 7 5 12 5 4 0 8-2 11-5 1-1 65-77 125-77 7 0 22 0 22 0 9-1 16-8 16-17l0-208c0-6 0-11 0-16 0 0 0 0 0 0 0 0 0-8-3-17-3-8-7-17-12-26-5-9-12-18-20-27-5-5-11-11-17-17-10-10-22-20-36-30-21-16-43-29-60-39-6-4-16-9-26-9z m-164 166c0 0 2-10 5-20 5-12 13-25 23-37 12-14 26-28 44-41 33-26 61-42 71-48l1-1c6-2 13-6 20-6 7 0 15 4 20 7 17 9 37 23 59 39 13 9 24 19 35 28 5 6 11 11 15 17 8 8 14 17 19 25 5 8 8 15 11 23 2 7 2 14 2 14 0 4 0 10 0 14 0 3 0 5 0 7l0 202c0 2-1 4-3 4 0 0-15 0-22 0-66 0-132 78-135 81 0 1-1 1-1 1 0 0 0 0 0 0-1 0-2 0-2 0-3-4-71-82-136-82-7 0-23 0-23 0-2 0-4-2-4-4l0-203c0-6 1-17 1-20z m116-1c-1 0-3 0-4 1-2 1-3 4-2 6l8 50-36 35c-2 2-2 4-2 7 1 2 3 3 6 4l49 8 23 44c1 3 3 4 6 4 2 0 4-1 5-4l23-44 50-8c2-1 4-2 5-4 0-3 0-5-2-7l-35-35 8-50c0-2-1-5-3-6-2-2-5-2-7-1l-44 23-45-23c-1 0-2 0-3 0z m-16 92l29-29c1-1 2-3 2-5l-7-41 37 19c2 1 4 1 6 0l36-19-6 41c-1 2 0 4 1 5l29 29-40 7c-2 0-4 1-5 3l-18 36-19-36c-1-2-3-3-5-3z"/>
<glyph glyph-name="broken-clouds" unicode="&#101;" d="M451 230c-1 0-2 0-1 2 2 6 2 12 2 18 0 40-32 72-72 72-15 0-30-5-43-14-10-8-17-18-22-29-7 9-16 16-27 19-1 0-2 1-1 3 1 5 2 11 2 17 0 40-32 72-72 72-15 0-30-5-43-14-12-9-21-22-25-36-1-1-1-2-3-2 0 0-1 0-1 0 0 0-1 1-2 1-23 0-44-16-52-38-1-1-1-2-2-1 0 0 0 0 0 0-4 0-7 1-11 1-30 0-55-25-55-56 0-30 25-55 55-55l109 0c-1-4-1-8-1-13 0-30 25-55 55-55l193 0c30 0 55 25 55 55 0 24-15 46-38 53z m-373-30c-25 0-45 21-45 45 0 25 20 45 45 45 3 0 6 0 9 0 1-1 2-1 3-1 5 0 9 3 10 7 6 19 24 32 43 32 1 0 1 0 2 0 1 0 2 0 3 0l0 0c6 0 9 3 10 8 0 0 0 0 0 1 8 25 32 43 59 43 34 0 62-28 62-62 0-6-1-11-3-17-1-3 0-6 1-8 2-3 5-4 6-4l0 0c11-3 20-10 25-19 0 0 0 0 0 0 0 0-1 0-2 0-23 0-44-15-52-38 0 0-1-1-2-1 0 0 0 0 0 0-4 1-7 2-11 2-22 0-41-14-50-33z m356-68l-193 0c-25 0-45 20-45 45 0 5 1 9 2 13 1 4 3 7 5 10 8 13 22 22 38 22 3 0 6 0 9-1 1 0 2 0 3 0 5 0 9 3 10 7 6 19 24 32 43 32 1 0 1 0 2 0 1 0 2 0 3 0l0 0c1 0 2 0 2 0 5 1 7 3 8 8 0 0 0 0 0 0 0 0 0 0 0 0 8 26 32 44 59 44 34 0 62-28 62-62 0-6-1-12-3-18-1-2 0-5 1-7 2-3 5-4 6-4l0-1c20-5 33-23 33-43 0-25-20-45-45-45z"/>
<glyph glyph-name="buildings" unicode="&#102;" d="M433 71l0 216c0 28-21 36-32 36l-62 0 0 95c0 29-20 36-31 36l-143 0c-12 0-21-3-26-11-9-11-8-34-8-34l0-17-16 0c-15 0-27-5-35-14-13-15-11-37-11-41l0-266-27 0 0-13 428 0 0 13z m-13 216l0-216-138 0 0 207 0 2c0 0-3 15 4 24 4 4 9 6 16 6l99 0c3 0 19-1 19-23z m-93 54l-94 0c-1 10-2 18-5 24l99 0z m-58-109l-36 0 0 24 36 0z m0 46l0-10-36 0 0 24 36 0c-1-7 0-12 0-14z m-36-59l36 0 0-148-36 0z m69 104c-11 0-20-4-26-11-1-2-3-5-4-7l-39 0 0 24 94 0 0-6z m-154 112c3 5 9 6 17 6l143 0c3 0 19-1 19-23l0-40-107 0c-13 14-31 14-31 14l-45 0 0 18c0 0 0 17 4 25z m-28-364l0 89 64 0 0-89z m-13 102l0-102-25 0 0 266 0 1c0 0-3 20 8 32 5 6 14 9 25 9l74 0c1 0 31 0 31-42l0-266-23 0 0 102-90 0z m6 178l24 0 0-27-24 0z m0-42l24 0 0-27-24 0z m0-42l24 0 0-27-24 0z m0-42l24 0 0-27-24 0z m202 50l24 0 0-27-24 0z m0-57l24 0 0-27-24 0z m0-56l24 0 0-27-24 0z m51 113l24 0 0-27-24 0z m0-57l24 0 0-27-24 0z m0-56l24 0 0-27-24 0z"/>
<glyph glyph-name="chart" unicode="&#103;" d="M447 33l37 23-37 24 0-17-389 0 0 35 128 102 82-71 133 167 17-13 15 66-68-24 19-15-119-150-78 68-129-102 0 316 17 0-24 37-23-37 17 0 0-392 402 0z"/>
<glyph glyph-name="clear-sky" unicode="&#105;" d="M274 376c-66 10-128-36-138-102-5-32 3-64 22-90 19-26 48-43 80-48 6-1 12-2 18-2 59 0 111 44 120 104 5 32-3 64-22 90-19 26-48 43-80 48z m90-136c-9-59-65-101-124-92-29 5-54 20-72 43-17 24-24 52-20 81 8 54 55 93 108 93 5 0 11-1 16-1 29-5 54-20 72-43 17-24 24-52 20-81z m-10 115c10-10 19-22 25-34l20 40z m41-98c0-7 0-14-1-22-1-7-3-14-5-21l42 16z m-277 20c1 7 3 14 5 21l-42-16 36-27c0 7 0 14 1 22z m96-154l16-42 27 36c-7 0-14 0-22 1-7 1-14 3-21 5z m-101 28l45 6c-10 10-19 22-25 34z m78 228l-40 20 6-45c10 10 22 19 34 25z m130-246l40-20-6 45c-10-10-22-19-34-25z m-23 256l-16 42-27-36c7 0 14 0 22-1 7-1 14-3 21-5z"/>
<glyph glyph-name="clouds" unicode="&#106;" d="M422 265c-1 0-2 1-1 3 2 7 2 13 2 20 0 45-36 82-82 82-17 0-34-6-49-16-13-11-24-25-29-42 0 0-1-1-3-1 0 0 0 0-1 0 0 0-1 0-2 0-27 0-51-17-60-43 0 0-1-1-2-1 0 0 0 0 0 0-4 1-8 1-12 1-35 0-63-28-63-63 0-35 28-63 63-63l220 0c34 0 63 28 63 63 0 27-18 52-44 60z m-19-111l-220 0c-29 0-52 23-52 51 0 28 23 51 52 51 3 0 7 0 10-1 1 0 2 0 3 0 6 0 10 3 12 8 7 22 27 36 49 36 1 0 1 0 2 0 1 0 2 0 3 0l0 0c7 0 11 3 12 10 0 0 0 0 0 0 10 29 36 49 67 49 39 0 71-31 71-70 0-7-1-13-3-20-1-3-1-6 0-8 2-4 6-5 8-6l0 0c22-6 37-26 37-49 0-28-23-51-51-51z m-258 109c-3 11-4 23-2 35 3 22 15 41 32 54 15 10 32 16 49 16 4 0 8 0 12-1 16-2 30-9 41-19 3 4 6 7 10 9-14 12-31 20-49 23-25 3-50-3-70-18-21-15-34-37-38-62-2-16-1-31 4-45 4 3 7 6 11 8z m-56 43l28-21c0 6 0 11 1 17 1 5 2 10 4 16z m85 75l-31 14 5-34c8 8 17 14 26 20z m82 7l-12 33-20-28c5 0 11 0 16-1 6-1 11-2 16-4z"/>
<glyph glyph-name="cooling" unicode="&#107;" d="M433 278c-12 11-24 21-36 31-3 3-4 5-4 9 0 28 0 56 0 85 0 7-3 10-10 10-14 0-27 0-40 0-11 0-22 1-32 0-7 0-10-3-10-9 0-3 0-5 0-8 0-1 1-3-1-3-1-1-1 1-2 1-12 11-24 21-36 31-4 4-8 4-12 0-6-4-12-9-17-14-52-44-103-89-154-133-2-1-4-3-5-5 0-2 0-3 0-5 4-6 9-7 15-2 3 3 7 6 11 10 1 0 1 2 3 1 1-1 0-2 0-3 0-28 0-55 0-83 0-34 0-68 0-102 0-4 1-8 5-10 98 0 197 0 295 0 4 2 5 6 5 10 0 61 0 123 0 184 0 2 0 3 1 5 4-3 7-6 11-9 1-1 2-3 4-4 6-5 11-3 14 5 0 0 0 1 0 1-1 3-3 5-5 7z m-116 115c0 3 1 5 4 5 17-1 35-1 52 0 3 0 4-1 4-5 0-10 0-20 0-31 0-10 0-21 0-31 0-1 0-3-1-3-1 0-2 1-2 1-18 15-36 31-53 46-3 2-4 4-4 8 0 3 0 7 0 10z m71-299c-44 0-88 0-132 0l0 0c-44 0-88 0-131 0-5 0-5 0-5 5 0 63 0 125 0 187-1 5 1 8 4 11 43 36 86 73 129 110 2 2 4 2 6 0 28-24 55-48 83-71 15-14 31-27 47-41 2-2 3-4 3-7 0-63 0-126 0-189 0-4-1-5-4-5z m-59 74c1 2 1 4 1 5-1 2-2 3-3 4l-9 5 11 3c2 1 3 2 4 4 1 1 1 3 1 4-1 4-5 6-8 5l-24-7-34 19 33 20 24-6c2 0 3 0 5 1 1 1 2 2 3 4 0 2 0 3-1 5-1 1-2 2-4 3l-11 3 8 5c2 1 3 2 3 4 1 1 1 3 0 5-1 1-3 2-4 3-2 0-4 0-5-1l-9-5 3 11c1 4-2 7-5 8-4 1-7-1-8-5l-6-24-33-20-1 39 17 18c1 1 2 3 2 4 0 2-1 4-2 5-1 1-3 2-5 2-2 0-3-1-4-2l-8-8-1 9c0 2 0 4-2 5-1 1-2 2-4 2-4 0-7-3-7-7l1-10-9 8c-3 3-7 3-9 0-1-1-2-3-2-5 0-1 1-3 2-4l18-18 1-38-35 18-6 24c-1 3-5 5-8 4-2 0-3-1-4-3-1-1-1-3-1-5l3-11-8 5c-4 2-7 1-9-2-2-4-1-8 2-9l9-5-11-4c-4-1-6-4-5-8 1-3 5-5 9-4l24 7 34-19-34-20-24 6c-1 0-3 0-5-1-1-1-2-2-3-4 0-4 2-7 5-8l11-3-8-5c-2-1-3-2-3-4-1-2 0-3 1-5 1-3 6-4 9-2l8 5-2-11c-1-3 0-6 3-8 0 0 1 0 1 0 2-1 4 0 5 1 2 0 3 2 3 4l6 24 33 20 1-39-17-18c-2-2-2-7 0-9 2-1 3-2 5-2 2 0 3 1 5 2l8 8 0-10c0-1 0-3 2-4 1-1 3-2 4-2 2 0 4 1 5 2 1 1 2 3 2 5l0 10 8-8c1-1 3-2 5-2 2 0 3 1 4 2 2 1 2 3 2 5 0 1 0 3-2 4l-18 17-1 39 35-19 7-23c1-3 4-5 8-5 3 1 5 5 4 9l-3 10 9-4c3-2 7-1 8 2z"/>
<glyph glyph-name="daily" unicode="&#108;" d="M385 389l-28 0 0 9c0 12-10 22-22 22l-1 0c-12 0-22-10-22-22l0-9-33 0 0 9c0 12-10 22-22 22l-2 0c-12 0-22-10-22-22l0-9-37 0 0 9c0 12-10 22-22 22l-2 0c-12 0-22-10-22-22l0-9-23 0c-16 0-30-13-30-30l0-237c0-16 14-30 30-30l258 0c16 0 30 14 30 30l0 237c0 17-14 30-30 30z m-60 9c0 4 4 8 9 8l1 0c5 0 9-4 9-8l0-28c0-5-4-8-9-8l-1 0c-5 0-9 3-9 8z m-78 0c0 4 4 8 8 8l2 0c4 0 8-4 8-8l0-28c0-5-4-8-8-8l-2 0c-4 0-8 3-8 8z m-83 0c0 4 4 8 8 8l2 0c4 0 8-4 8-8l0-28c0-5-4-8-8-8l-2 0c-4 0-8 3-8 8z m-37-23l23 0 0-5c0-12 10-22 22-22l2 0c12 0 22 10 22 22l0 5 37 0 0-5c0-12 10-22 22-22l2 0c12 0 22 10 22 22l0 5 33 0 0-5c0-12 10-22 22-22l1 0c12 0 22 10 22 22l0 5 28 0c9 0 16-7 16-16l0-47-290 0 0 47c0 9 7 16 16 16z m258-269l-258 0c-9 0-16 7-16 16l0 176 290 0 0-176c0-9-7-16-16-16z m-161 159l-17 0-36-31 6-9c1-1 1-1 2-2 1 0 2 0 3 0 1 0 2 0 2 0 1 0 2 1 3 1l17 15c0-3-1-6-1-9l0-69-24 0 0-16 66 0 0 16-21 0 0 104z m110-101l-30 0c-3 0-5 0-8 0-2-1-5-1-7-2l26 27c4 4 7 7 10 10 2 3 5 7 7 10 2 3 4 7 5 11 2 3 2 7 2 12 0 5-1 10-2 14-2 4-5 8-8 10-3 3-7 6-12 7-4 2-9 3-15 3-5 0-10-1-15-2-4-2-8-4-12-7-3-3-6-6-9-11-2-4-4-9-4-15l10-2c1 0 2 0 3 0 2 0 3 1 5 2 1 0 2 2 2 4 2 4 4 7 7 10 3 2 7 4 12 4 3 0 5-1 7-1 2-1 4-2 6-4 1-1 2-3 3-5 1-2 1-5 1-8 0-3 0-6-1-9-1-3-2-5-4-8-1-3-3-6-6-8-2-3-5-6-8-9l-36-36c-1-2-2-3-3-5 0-1 0-2 0-4l0-7 81 0 0 13c0 2 0 3-2 5-1 1-3 1-5 1z"/>
<glyph glyph-name="demand-response" unicode="&#109;" d="M418 258c0 4-4 8-8 8l-64 0c-4 0-7-3-8-7-5-29-19-70-33-70-16 0-33 43-46 74-17 42-32 77-55 77-28 0-41-54-45-77l-49 0c0 26 9 108 115 133 48 11 92-1 130-37 15-13 26-27 33-39l-29 10c-4 2-9 0-10-5-2-4 0-9 5-10l50-18c0 0 0 0 0 0l0 0c1 0 1 0 2 0 0 0 0 0 0 0 0 0 1 0 1 0 0 0 0 0 0 0 0 0 0 0 1 0 0 0 0 0 1 0 0 0 0 0 0 0 0 0 1 0 1 0 0 0 0 0 0 0 0 0 0 0 0 0 1 1 1 1 2 1 0 0 0 0 0 0 0 1 1 1 1 1 0 1 0 1 0 1 1 0 1 1 1 1 0 0 0 0 0 0 1 1 1 1 1 2 0 0 0 0 0 0 0 1 0 1 0 2 0 0 0 0 0 0l0 52c0 4-4 8-8 8-5 0-9-4-9-8l0-22c-26 37-85 98-177 77-138-32-127-157-127-158 0-4 4-8 8-8l64 0c4 0 7 3 8 7 7 42 21 71 30 71 12 0 28-39 39-67 18-44 35-85 62-85 30 0 44 55 48 77l49 0c0-26-9-108-115-133-48-11-92 1-130 37-15 13-26 28-33 39l29-10c4-2 9 0 10 5 2 4 0 9-5 10l-50 18c0 0 0 0 0 0-1 0-1 0-2 0 0 0 0 0-1 0 0 0 0 0-1 0 0 0 0 0 0 0-1 0-1 0-1 0-1 0-1 0-1 0 0 0 0 0 0 0-1-1-1-1-1-1 0 0-1 0-1 0 0 0 0 0 0 0 0-1-1-1-1-1 0-1 0-1 0-1-1 0-1-1-1-1 0 0 0 0 0 0-1-1-1-1-1-2 0 0 0 0 0 0 0-1 0-1 0-2 0 0 0 0 0 0l0-52c0-5 4-8 8-8 5 0 9 3 9 8l0 22c22-32 69-81 140-81 12 0 24 1 37 4 138 32 127 157 127 158z"/>
<glyph glyph-name="demographics" unicode="&#110;" d="M143 327c23 0 41 19 41 43 0 24-18 43-41 43-22 0-41-19-41-43 0-24 19-43 41-43z m0 73c16 0 28-14 28-30 0-17-12-30-28-30-15 0-28 13-28 30 0 16 13 30 28 30z m115-54c26 0 47 22 47 49 0 27-21 48-47 48-25 0-46-21-46-48 0-27 21-49 46-49z m0 84c19 0 34-16 34-35 0-20-15-36-34-36-18 0-33 16-33 36 0 19 15 35 33 35z m-69-255c-3 0-6-2-7-6l-10-71c-2-2-10-8-29-8-10 0-15 3-17 5-2 2-2 5-2 5 0 1 0 1 0 2l-9 71c0 1 0 2-1 3l-17 20c-4 3-5 8-5 12l0 60c0 15 3 27 10 33 5 5 10 6 13 6l28-30c2-3 7-3 9 0l30 33c3 2 3 6 0 9-3 2-7 2-9-1l-25-27-26 27c-1 2-2 2-4 2-1 0-14 1-25-9-9-9-14-24-14-43l0-60c0-7 3-15 8-21l16-18 8-68c0-3 0-9 5-14 6-7 15-10 27-10 31 0 39 14 40 15 1 1 1 2 1 2l11 73c0 4-2 7-6 8z m180 152c22 0 41 19 41 43 0 24-19 43-41 43-23 0-41-19-41-43 0-24 18-43 41-43z m0 73c15 0 28-14 28-30 0-17-13-30-28-30-16 0-28 13-28 30 0 16 12 30 28 30z m50-89c-11 10-24 9-25 9-2 0-3 0-4-2l-26-27-25 27c-2 3-6 3-9 1-3-3-3-7 0-9l30-33c1-1 3-2 4-2 2 0 4 1 5 2l28 30c3 0 8-1 13-6 7-6 10-18 10-33l0-60c0-4-1-9-5-12l-17-20c-1-1-1-2-1-3l-9-71c0-1 0-1 0-2 0 0 0-2-2-5-3-3-9-5-17-5-19 0-27 6-29 8l-10 71c-1 4-4 6-7 6-4-1-6-4-6-8l11-73c0 0 0-1 1-2 0-1 9-15 40-15 12 0 21 3 27 10 5 5 5 11 5 14l8 68 16 18c5 6 8 14 8 21l0 60c0 19-5 34-14 43z m-99-119c5 6 8 15 8 23l0 67c0 22-5 39-16 48-10 10-22 10-23 10-1 0-3-1-4-2l-28-29-27 29c-1 1-3 2-5 2 0 0-12 0-23-10-10-9-16-26-16-48l0-67c0-8 3-17 8-23l16-20 9-78c-1-2 0-9 5-16 6-6 15-9 27-9 2 0 4 0 6 0 2 0 4 0 7 0 12 0 21 3 26 9 6 7 6 14 6 16l8 78z m-27-14c-1-1-1-2-1-3l-9-80c0 0 0-1 0-1 0 0 0-4-2-7-3-4-9-5-17-5-2 0-4 0-6 0 0 0-1 0-1 0 0 0 0 0 0 0-2 0-4 0-6 0-8 0-14 1-17 5-3 3-3 7-3 7 1 0 1 1 0 1l-8 80c0 1-1 2-1 3l-17 22c-4 4-6 9-6 15l0 67c0 18 4 31 12 39 4 4 9 5 11 6l31-32c2-3 7-3 9 0l30 32c3-1 7-2 12-6 7-8 11-21 11-39l0-67c0-6-2-11-5-15z"/>
<glyph glyph-name="edit" unicode="&#111;" d="M460 326l-138 139c-3 2-7 2-9 0l-257-257c-1-1-2-3-2-4l-4-152c0-2 1-3 2-5 1-1 3-1 4-1 0 0 0 0 1 0l143 13c1 0 2 0 3 1l257 257c3 3 3 7 0 9z m-264-255l-134-12 4 142 185 184 130-130z m193 193l-129 130 57 58 130-130z"/>
<glyph glyph-name="energetic-efficiency" unicode="&#112;" d="M105 277l102 0c2 0 3 2 3 4l0 1c0 2-1 3-3 3l-102 0c-2 0-4-1-4-3l0-1c0-2 2-4 4-4z m0-21l102 0c2 0 3 2 3 4l0 0c0 2-1 4-3 4l-102 0c-2 0-4-2-4-4l0 0c0-2 2-4 4-4z m105-19l0 1c0 2-1 4-3 4l-102 0c-2 0-4-2-4-4l0-1c0-2 2-3 4-3l102 0c2 0 3 1 3 3z m242 145c-2 4-5 6-9 6-84-12-136-40-157-85-23-53 7-111 16-127l1-1 0 0c-11-34-44-69-84-70-26 0-45 16-53 45 0 2-1 7-1 7l18 0c9 0 14 4 17 7 4 4 4 10 4 12l0 8 1 0c10 2 18 6 25 13 12 13 10 33 10 36l0 84 16 0c4 0 7 4 7 8l0 4c0 5-3 8-7 8l-58 0 0 77c0 5-4 8-8 8-4 0-8-3-8-8l0-77-57 0 0 77c0 5-4 8-8 8-4 0-8-3-8-8l0-77-52 0c-4 0-8-3-8-8l0-4c0-4 4-8 8-8l16 0 0-84c-1-3-2-23 10-36 6-7 15-11 25-13l1 0 0-8c0-2 0-8 4-12 3-3 8-7 17-7l17 0c0 0 3-8 4-11 10-36 35-56 68-56l0 0c42 0 82 33 98 77l0 1 1 0c53-2 93 13 117 43 49 62 18 167 17 171z m-322-209c-1 0-2 0-3 0l-2 2c0 0 0 0 0 1l0 15c0 5-4 8-8 8-10 0-17 3-22 8-8 9-7 23-7 25 0 0 0 1 0 1l0 85 137 0 0-85c0 0 0-1 0-1 0-2 1-16-7-25-5-5-12-8-22-8-4 0-8-3-8-8l0-15c0 0 0 0 0 0 0 0 0 0 0-1l0-1-1 0c0-1-1-1-4-1z m293 48c-20-25-52-37-95-37-1 0-3 0-4 0l-3 0 1 2c23 73 72 115 72 116 4 3 4 7 1 11-1 1-3 2-5 2-2 1-4 0-6-1-2-2-48-43-74-114l-1-4-2 4c-9 21-22 61-6 96 17 39 63 64 136 75l1 0 1-1c5-23 21-102-16-149z"/>
<glyph glyph-name="energetic-tip" unicode="&#113;" d="M382 235c-5 0-9-1-14-2 5 13 7 27 7 40 0 66-53 120-119 120-1 0-2-1-3-1-1 0-2 1-3 1-66 0-119-54-119-120 0-36 16-70 46-93 0-1 1-1 2-2 0 0 15-11 15-30 0-1 1-1 1-1 0-1-1-1-1-1l20-89c1-4 4-6 7-6l64 0c3 0 6 2 7 6l12 56c14-29 44-50 78-50 47 0 86 39 86 86 0 47-39 86-86 86z m-8-36l17 0 0-69-17 0z m-185-10c0 0-1 1-2 1-26 20-41 51-41 83 0 56 44 102 100 104l0 0c2 0 12 0 14 0l0 0c56-2 100-48 100-104 0-15-3-31-10-45-30-12-51-40-53-73l-88 0c-3 18-15 30-20 34z m90-123l-52 0-1 7 54 0z m5 22l-62 0-1 7 64 0z m4 22l-70 0-7 30 84 0z m104-5c-1-1-1-2-2-3-1-1-2-2-4-3-1 0-2 0-4 0-1 0-3 0-4 0-1 1-3 2-4 3-1 1-1 2-2 3 0 1-1 3-1 4 0 2 1 3 1 4 1 2 1 3 2 4 1 1 3 1 4 2 1 1 3 1 4 1 2 0 3 0 4-1 2-1 3-1 4-2 1-1 1-2 2-4 0-1 1-2 1-4 0-1-1-3-1-4z m-139 317c0 0 0 0 0 0 0 0 0 0 0 0 4 0 8 3 8 7l0 50c0 5-4 8-8 8 0 0 0 0 0 0 0 0 0 0 0 0-5 0-8-3-8-8l0-50c0-4 3-7 8-7z m-112-42c1-2 3-2 5-2 2 0 4 0 5 2 3 3 3 7 0 10l-35 36c-3 3-8 3-11 0-3-3-3-8 0-11z m-31-101c0 4-4 7-8 7l-50 0c-4 0-8-3-8-7 0-5 4-8 8-8l50 0c4 0 8 3 8 8z m31-102l-36-35c-3-3-3-8 0-11 2-1 4-2 6-2 2 0 3 1 5 2l35 36c3 3 3 8 0 10-2 3-7 3-10 0z m219 201c2 0 4 0 5 2l36 35c2 3 2 8 0 11-3 3-8 3-11 0l-35-36c-3-3-3-7 0-10 1-2 3-2 5-2z m36-99c0-5 4-8 8-8l50 0c4 0 8 3 8 8 0 4-4 7-8 7l-50 0c-4 0-8-3-8-7z"/>
<glyph glyph-name="equipment" unicode="&#114;" d="M429 136c0 0 0 1 0 1 0 0 0 1 0 1 0 0 0 0 0 0l-34 91 0 159c0 16-14 30-30 30l-218 0c-16 0-30-14-30-30l0-159-34-91c0 0 0 0 0 0 0 0 0-1 0-1 0 0 0-1 0-1 0 0 0 0 0 0l0-12c0-16 13-30 30-30l286 0c17 0 30 14 30 30l0 12c0 0 0 0 0 0z m-298 252c0 8 8 15 16 15l218 0c8 0 16-7 16-15l0-154-250 0z m-2-168l254 0 29-77-312 0z m286-96c0-8-7-15-16-15l-286 0c-9 0-16 7-16 15l0 5 318 0z m-275 119l232 0 0 152-232 0z m14 138l204 0 0-124-204 0z m51-181l-16-48 134 0-16 48z m4-34l6 20 82 0 6-20z"/>
<glyph glyph-name="few-clouds" unicode="&#115;" d="M456 218c0 0-1 0-1 2 2 6 2 12 2 18 0 39-32 72-71 72-16 0-31-5-43-15-10-7-18-17-23-28-7 9-16 15-27 19 0 0-1 0-1 2 2 6 2 12 2 18 0 40-32 72-71 72-16 0-31-5-43-14-13-9-22-22-26-37 0 0-1-1-3-1 0 0 0 0 0 0-1 0-2 0-3 0-23 0-44-15-52-38 0 0-1-1-1-1-1 0-1 0-1 1-3 0-7 1-11 1-30 0-55-25-55-56 0-30 25-55 55-55l110 0c-1-4-2-9-2-13 0-30 25-55 55-55l193 0c31 0 56 25 56 55 0 24-16 45-39 53z m-373-30c-25 0-45 20-45 45 0 25 20 45 45 45 3 0 6 0 9-1 1 0 2 0 3 0 5 0 9 3 10 7 7 19 24 32 43 32 1 0 2 0 2 0 1 0 2 0 3 0l0 0c6 0 10 3 11 8 0 0 0 0 0 0 8 26 31 44 59 44 33 0 61-28 61-62 0-6-1-12-2-17-1-3-1-6 0-8 2-3 5-4 7-4l0 0c10-4 19-10 25-19 0 0 0 0 0 0-1 0-2 0-2 0-24 0-45-15-53-38 0 0 0-1-1-1-1 0-1 0-1 0-3 1-7 1-11 1-22 0-41-13-50-32z m356-68l-193 0c-24 0-45 20-45 45 0 5 1 9 2 13 2 4 3 7 5 10 8 13 22 22 38 22 3 0 6 0 9-1 1 0 2 0 3 0 5 0 9 2 10 7 7 19 24 32 44 32 0 0 1 0 2 0 0 0 1 0 2 0l0 0c1 0 2 0 3 0 4 1 7 3 8 8 0 0 0 0 0 0 0 0 0 0 0 0 8 26 31 43 59 43 34 0 61-27 61-61 0-6-1-12-2-18-1-3-1-5 0-7 2-3 5-4 7-5l0 0c19-5 32-23 32-43 0-25-20-45-45-45z m-382 169c-2 8-2 17-1 26 3 15 12 29 25 38 11 8 24 12 36 11 3 0 7 0 10-1 11-2 21-7 29-14 2 2 5 4 7 6-9 9-21 15-35 17-18 4-37 0-52-11-15-10-25-26-29-45-2-11-1-22 2-33 3 2 5 4 8 6z m-19 29c1 4 2 8 4 12l-25-8 20-16c0 4 1 8 1 12z m43 57l-22 11 3-25c6 5 12 10 19 14z m60 3l-7 24-16-20c4 0 8 0 12-1 4 0 8-2 11-3z"/>
<glyph glyph-name="gauge" unicode="&#116;" d="M256 7c-137 0-249 112-249 249 0 137 112 249 249 249 137 0 249-112 249-249 0-137-112-249-249-249z m0 486c-130 0-237-107-237-237 0-130 107-237 237-237 130 0 237 107 237 237 0 130-107 237-237 237z m0-438c-88 0-167 59-192 142l12 4c24-78 98-133 180-133 83 0 156 54 180 133l12-4c-26-85-103-142-192-142z m194 195l-22 0c-4 0-7 2-7 6 0 4 3 6 7 6l16 0c-4 101-87 182-188 182-101 0-184-81-188-182l19 0c3 0 6-2 6-6 0-4-3-6-6-6l-25 0c-4 0-7 2-7 6 0 111 90 201 201 201 111 0 201-90 201-201 0-4-3-6-7-6z m-194 168c-4 0-6 3-6 7l0 25c0 4 2 7 6 7 4 0 6-3 6-7l0-25c0-4-2-7-6-7z m120-53c-2 0-3 1-5 2-2 3-2 7 0 9l20 20c2 2 6 2 9 0 2-3 2-7 0-9l-20-20c-1-1-2-2-4-2z m-236 0c-1 0-3 1-4 2l-20 20c-2 2-2 6 0 9 3 2 7 2 9 0l20-20c2-2 2-6 0-9-1-1-3-2-5-2z m116-272c-31 0-56 25-56 57l0 2 41 230c1 7 8 13 15 13 7 0 13-6 15-13 10-53 41-226 41-232 0-32-25-57-56-57z m-43 57c0-25 19-44 43-44 24 0 44 20 44 44-1 6-26 141-42 230 0 2-4 2-4 0z"/>
<glyph glyph-name="heating" unicode="&#117;" d="M433 281c-12 10-24 21-36 31-3 2-4 5-4 8 0 29 0 57 0 85 0 8-3 11-10 11-14 0-27 0-40 0-11 0-22 0-32 0-7 0-10-3-10-10 0-2 0-5 0-7 0-1 1-3-1-3-1-1-1 0-2 1-12 10-24 21-36 31-4 4-8 4-12 0-6-5-12-10-17-15-52-44-103-88-154-132-2-1-4-3-5-5 0-2 0-4 0-5 4-7 9-7 15-2 3 3 7 6 11 9 1 1 1 2 3 2 1-1 0-2 0-3 0-28 0-56 0-83 0-34 0-68 0-102 0-4 1-8 5-11 98 0 197 0 295 0 4 3 5 6 5 11 0 61 0 122 0 184 0 1 0 3 1 5 4-3 7-7 11-10 1-1 2-2 4-3 6-5 11-3 14 5 0 0 0 0 0 1-1 3-3 5-5 7z m-116 115c0 3 1 4 4 4 17 0 35 0 52 0 3 0 4-1 4-4 0-10 0-21 0-31 0-11 0-21 0-31 0-1 0-3-1-3-1-1-2 0-2 1-18 15-36 30-53 45-3 3-4 5-4 9 0 3 0 6 0 10z m71-299c-44 0-88 0-132 0l0 0c-44 0-88 0-131 0-5 0-5 0-5 5 0 62 0 124 0 187-1 4 1 7 4 11 43 36 86 73 129 109 2 3 4 3 6 0 28-23 55-47 83-71 15-13 31-27 47-40 2-2 3-4 3-7 0-63 0-126 0-190 0-3-1-4-4-4z m-92 181c-4-2-7 4-10 7-16 16-34 28-54 37-10 4-17 3-14-11 5-22-2-42-15-60-5-6-11-13-15-21-30-51 4-111 64-113 49-1 80 32 80 87 0 21-5 42-13 61-4 9-5 26-23 13z m-32-142c-7-6-12-3-18 1-20 17-22 51-2 76 5-12 11-22 26-15 3 1 5-1 7-4 8-16 1-46-13-58z m51 36c-4-16-14-28-33-35 10 23 11 44 5 65-3 10-6 18-19 9-12-8-11 3-12 10-2 8 4 20-5 22-10 2-13-11-17-19-20-34-21-55-5-89-24 6-45 37-41 63 3 14 9 27 18 38 21 31 23 36 27 71 21-8 36-21 51-37 5-5 8-13 18-6 4 3 6-2 7-5 11-29 16-58 6-87z"/>
<glyph glyph-name="innowatio-logo" unicode="&#118;" d="M321 94c-1 0-1 0-2 1-2 0-3 1-4 3l-62 124-233-116c-1-1-3-1-5 0-2 0-3 2-4 3-29 75 46 186 172 255 64 35 131 54 190 54 60 0 104-20 123-56 40-74-35-192-167-265l-5-2c-1 0-2-1-3-1z m-65 143c2 0 5-1 6-3l62-125c125 69 198 179 161 246-17 32-57 50-112 50-57 0-122-19-183-52-117-64-189-164-169-232l232 116c1 0 2 0 3 0z"/>
<glyph glyph-name="lightbulb" unicode="&#119;" d="M255 432c1 0 1 0 1 0 0 0 0 0 1 0 3 0 6 3 6 6l0 55c0 3-3 6-7 6 0 0 0 0 0 0 0 0-1 0-1 0-3 0-6-3-6-6l0-55c0-3 3-6 6-6z m-119-46c3-2 7-2 9 0 3 3 3 7 0 9l-38 39c-3 2-7 2-9 0-3-3-3-7 0-9z m-43-104l-54 0c-4 0-7-3-7-6 0-4 3-7 7-7l54 0c4 0 6 3 6 7 0 3-2 6-6 6z m43-116l-38-39c-3-2-3-6 0-9 2-2 6-2 9 0l38 38c3 3 3 7 0 10-2 2-6 2-9 0z m240 220l38 39c3 2 3 6 0 9-1 1-3 2-4 2-2 0-4-1-5-2l-38-39c-3-2-3-6 0-9 2-2 6-2 9 0z m97-104l-54 0c-4 0-6-3-6-6 0-4 2-7 6-7l54 0c4 0 7 3 7 7 0 3-3 6-7 6z m-97-116c-1 1-3 1-5 1-1 0-3 0-4-1-3-3-3-7 0-10l38-38c3-2 7-2 9 0 3 3 3 7 0 9z m-117 231c0 0-1 0-2 0 0 0 0 0-1 0-1 0-1 0-1 0-1 0-2 0-2 0-70 0-127-57-127-127 0-39 17-75 48-99 1 0 1-1 1-1 0 0 1-1 2-1 0-1 17-12 17-34 0-1 0-1 0-2 1 0 0 0 0 0l21-96c1-3 4-6 7-6l68 0c3 0 6 3 7 6l21 96c-1 0-1 0-1 1 0 0 1 0 1 1 0 22 17 33 17 34 1 0 2 1 2 1 0 0 0 1 0 1 32 24 49 60 49 99 0 70-57 127-127 127z m26-351c0-1-1-2-1-2l-56 0c0 0-1 1-1 2l-2 8c0 0 0 1 0 1 1 0 1 1 2 1l58 0c1 0 1-1 2-1 0 0 0-1 0-1z m6 24c-1-1-1-2-2-2l-66 0c-1 0-1 1-2 2l-1 8c0 0 0 1 0 1 0 0 1 1 1 1l70 0c0 0 1-1 1-1 0 0 0-1 0-1z m5 24c0-1-1-1-2-1l-76 0c-1 0-2 0-2 1l-7 32c0 0 0 1 0 1 1 1 1 1 2 1l90 0c1 0 1 0 2-1 0 0 0-1 0-1z m32 85c-1 0-1-1-2-1-5-5-18-17-21-36 0-1 0-1-1-1l-96 0c-1 0-1 0-1 1-3 19-16 31-21 36-1 0-1 1-2 1-29 22-45 55-45 91 0 62 48 112 109 114 1 0 1 0 1 0 3 0 11 0 14 0 0 0 0 0 1 0 61-2 109-52 109-114 0-36-16-69-45-91z"/>
<glyph glyph-name="lighting" unicode="&#120;" d="M319 174l-58 58c-1 1-5 2-5 2-2 0-4-1-5-2l-58-58c-2-2-2-7 1-10 3-3 7-3 10 0l38 39c2 1 6 0 6-1l-1-113c0-6 4-10 8-10 5 0 9 4 9 10l1 112c0 2 3 3 5 2l38-39c3-3 7-3 10 0 3 3 3 8 1 10z m-63 139c-61 0-110-49-110-110 0-5 3-9 8-9 5 0 8 4 8 9 0 51 42 93 94 93 52 0 94-42 94-93 0-5 3-9 8-9 5 0 8 4 8 9 0 61-49 110-110 110z m-3 29c4 0 7 3 7 7l0 77c0 4-3 7-7 7-5 0-8-3-8-7l0-77c0-4 3-7 8-7z m226-132l-77 0c-4 0-7-3-7-7 0-4 3-8 7-8l77 0c4 0 7 4 7 8 0 4-3 7-7 7z m-369 0l-77 0c-4 0-7-3-7-7 0-4 3-8 7-8l77 0c4 0 7 4 7 8 0 4-3 7-7 7z m248 98l55 54c1 1 2 3 2 5 0 2-1 4-2 5-2 2-4 3-6 3-2 0-4-1-5-3l-54-54c-3-3-3-8 0-10 3-3 8-3 10 0z m-225-10c3-3 8-3 11 0 3 2 3 7 0 10l-54 54c-2 2-4 2-6 2-2 0-3 0-5-2-1-1-2-3-2-5 0-2 1-4 2-5z"/>
<glyph glyph-name="like" unicode="&#121;" d="M162 138c0-7-6-13-13-13-7 0-13 6-13 13 0 8 6 14 13 14 7 0 13-6 13-14z m259 115c0 1 0 1 0 2 0 1 0 7 0 13 0 1 0 1 0 1-2 6-4 11-8 15-5 5-13 7-23 7l-89 0c3 7 6 13 6 21 1 3 1 17 1 35 0 0 0 0 0 1l-7 45c-1 5-3 10-7 14-5 5-12 7-19 7-7 0-13-2-18-7-5-5-8-11-7-18l-9-47c-13-38-32-65-56-79-1 1-2 2-3 3-3 4-7 5-13 5l-59 0c-6 0-11-1-14-5-3-3-5-7-5-13l0-137c0-11 7-18 18-18l60 0c9 0 15 4 17 11 10-6 22-9 35-10 0 0 0 0 0 0l144 0c8 0 15 3 20 8l2 2c0 0 0 0 1 0 3 5 6 11 6 18 0 7-2 13-7 19 3 1 6 3 8 5 0 0 0 0 1 0l1 2c4 5 6 11 7 18 0 0 0 0 0 0-1 6-2 11-5 15 3 2 5 3 7 6 0 0 1 0 1 0 5 6 7 12 7 19 0 8-2 14-7 19 2 1 4 3 6 5 5 5 8 11 8 18z m-247-137c0-4-1-5-5-5l-60 0c-4 0-4 1-4 5l0 137c0 2 0 3 1 4 0 0 1 0 3 0l60 0c2 0 3 0 4 0 0-1 1-2 1-4l0-137z m229 128c-2-3-5-4-9-4 0 0 0 0 0 0l-4 0c-4 0-6-3-6-7l0-1c0-3 2-6 5-6 3-1 5-2 8-5 3-2 4-6 4-10 0-3-2-7-4-10-3-3-6-4-10-4l-3 0c-3 1-6-2-7-5-1-3 1-7 4-8 2 0 3-1 4-3 0 0 1 0 1 0 2-3 4-6 4-10 0-4-1-7-4-9l-1-2c-2-2-6-3-9-3-1 0-1 0-2-1-4 1-7-1-8-4-1-3 0-7 3-8 1-1 3-2 7-6 3-3 4-7 4-10 0-4-1-7-3-10l-1-1c-3-3-6-5-11-5l-143 0c-15 2-28 6-37 14 0 0-1 0-1 0 0 0 0 0 0 0l0 121c31 15 55 46 70 91 0 1 0 1 0 1l9 48c0 0 0 1 0 1 0 0 0 1 0 1 0 3 1 6 4 8 2 3 5 4 8 4 0 0 1 0 1 0 3 0 6-1 8-4 2-2 3-4 4-6l6-45c0-21 0-31 0-33-1-9-5-17-12-24-1-1-2-4-1-7 1-2 3-4 6-4l103 0c7 0 11-1 13-4 2-1 3-4 4-6 0-9 0-13 0-15 0-4-1-7-4-9z"/>
<glyph glyph-name="lock" unicode="&#122;" d="M414 25l-316 0c-8 0-15 7-15 16l0 257c0 8 7 15 15 15l316 0c8 0 15-7 15-15l0-257c0-9-7-16-15-16z m-316 277c-2 0-3-2-3-4l0-257c0-2 1-4 3-4l316 0c2 0 3 2 3 4l0 257c0 2-1 4-3 4z m293 0c-3 0-6 2-6 6l0 38c0 71-58 129-129 129-71 0-129-58-129-129l0-38c0-4-3-6-6-6-3 0-6 2-6 6l0 38c0 77 63 141 141 141 78 0 141-64 141-141l0-38c0-4-3-6-6-6z m-135-222c-3 0-6 3-6 6l0 98c0 3 3 5 6 5 3 0 6-2 6-5l0-98c0-3-3-6-6-6z m0 61c-25 0-46 21-46 47 0 25 21 46 46 46 26 0 47-21 47-46 0-26-21-47-47-47z m0 81c-19 0-35-15-35-34 0-20 16-35 35-35 20 0 35 15 35 35 0 19-15 34-35 34z"/>
<glyph glyph-name="logout" unicode="&#65;" d="M357 84l-298 0c-13 0-23 11-23 23l0 298c0 12 10 23 23 23l298 0c12 0 22-11 22-23l0-72c0-3-2-6-6-6-3 0-5 3-5 6l0 72c0 6-5 11-11 11l-298 0c-6 0-11-5-11-11l0-298c0-6 5-11 11-11l298 0c6 0 11 5 11 11l0 71c0 4 2 6 5 6 4 0 6-2 6-6l0-71c0-12-10-23-22-23z m55 82c-1 0-3 1-4 2-2 2-2 6 0 8l77 80-77 80c-2 2-2 6 1 8 2 2 6 2 8 0l81-84c2-2 2-6 0-8l-81-84c-2-1-3-2-5-2z m81 84l-285 0c-4 0-6 3-6 6 0 3 2 6 6 6l285 0c4 0 6-3 6-6 0-3-2-6-6-6z"/>
<glyph glyph-name="menu" unicode="&#66;" d="M418 342l-324 0c-4 0-7 3-7 7 0 3 3 6 7 6l324 0c4 0 7-3 7-6 0-4-3-7-7-7z m0-92l-324 0c-4 0-7 2-7 6 0 4 3 6 7 6l324 0c4 0 7-2 7-6 0-4-3-6-7-6z m0-93l-324 0c-4 0-7 3-7 6 0 4 3 7 7 7l324 0c4 0 7-3 7-7 0-3-3-6-7-6z"/>
<glyph glyph-name="mist" unicode="&#67;" d="M376 341c0 0-2 0-1 2 2 7 2 13 2 19 0 42-34 76-76 76-16 0-32-5-45-15-13-10-23-23-27-38-1-1-1-2-3-2 0 0-1 0-1 0-1 0-1 0-2 0-25 0-47-16-56-40 0 0 0-1-1-1 0 0-1 0-1 0-3 1-7 2-11 2-32 0-59-27-59-59 0-32 27-59 59-59l204 0c32 0 59 27 59 59 0 25-17 48-41 56z m-18-104l-204 0c-26 0-48 22-48 48 0 26 22 48 48 48 3 0 6-1 9-1 2-1 3-1 4-1 5 0 9 3 10 8 7 20 25 34 46 34 0 0 1 0 2-1 1 0 2 0 3 0l0 0c6 0 10 3 11 9 0 0 0 0 0 0 8 28 33 46 62 46 36 0 65-29 65-65 0-6-1-12-2-19-1-3-1-5 0-7 2-4 5-5 7-5l0 0c21-6 35-25 35-46 0-26-22-48-48-48z m4-26l-210 0c-4 0-7-3-7-7 0-3 3-6 7-6l210 0c4 0 6 3 6 6 0 4-2 7-6 7z m0-33l-210 0c-4 0-7-3-7-6 0-4 3-7 7-7l210 0c4 0 6 3 6 7 0 3-2 6-6 6z m0-33l-210 0c-4 0-7-2-7-6 0-4 3-6 7-6l210 0c4 0 6 2 6 6 0 4-2 6-6 6z"/>
<glyph glyph-name="monthly" unicode="&#68;" d="M385 389l-28 0 0 9c0 12-10 22-22 22l-1 0c-12 0-22-10-22-22l0-9-33 0 0 9c0 12-10 22-22 22l-2 0c-12 0-22-10-22-22l0-9-37 0 0 9c0 12-10 22-22 22l-2 0c-12 0-22-10-22-22l0-9-23 0c-16 0-30-13-30-30l0-237c0-16 14-30 30-30l258 0c16 0 30 14 30 30l0 237c0 17-14 30-30 30z m-60 9c0 4 4 8 9 8l1 0c5 0 9-4 9-8l0-28c0-5-4-8-9-8l-1 0c-5 0-9 3-9 8z m-78 0c0 4 4 8 8 8l2 0c4 0 8-4 8-8l0-28c0-5-4-8-8-8l-2 0c-4 0-8 3-8 8z m-83 0c0 4 4 8 8 8l2 0c4 0 8-4 8-8l0-28c0-5-4-8-8-8l-2 0c-4 0-8 3-8 8z m-37-23l23 0 0-5c0-12 10-22 22-22l2 0c12 0 22 10 22 22l0 5 37 0 0-5c0-12 10-22 22-22l2 0c12 0 22 10 22 22l0 5 33 0 0-5c0-12 10-22 22-22l1 0c12 0 22 10 22 22l0 5 28 0c9 0 16-7 16-16l0-47-290 0 0 47c0 9 7 16 16 16z m258-269l-258 0c-9 0-16 7-16 16l0 176 290 0 0-176c0-9-7-16-16-16z m-212 164c-14 0-25-11-25-24 0-13 11-24 25-24 13 0 24 11 24 24 0 13-11 24-24 24z m0-35c-6 0-11 5-11 11 0 6 5 10 11 10 5 0 10-4 10-10 0-6-5-11-10-11z m83 37c-13 0-24-11-24-24 0-14 11-25 24-25 13 0 24 11 24 25 0 13-11 24-24 24z m0-35c-6 0-11 5-11 11 0 5 5 10 11 10 6 0 11-5 11-10 0-6-5-11-11-11z m83 31c-13 0-24-10-24-24 0-13 11-24 24-24 14 0 25 11 25 24 0 14-11 24-25 24z m0-34c-5 0-10 4-10 10 0 6 5 11 10 11 6 0 11-5 11-11 0-6-5-10-11-10z m-166-39c-14 0-25-11-25-24 0-14 11-24 25-24 13 0 24 10 24 24 0 13-11 24-24 24z m0-35c-6 0-11 5-11 11 0 5 5 10 11 10 5 0 10-5 10-10 0-6-5-11-10-11z m83 36c-13 0-24-10-24-24 0-13 11-24 24-24 13 0 24 11 24 24 0 14-11 24-24 24z m0-34c-6 0-11 4-11 10 0 6 5 11 11 11 6 0 11-5 11-11 0-6-5-10-11-10z m83 31c-13 0-24-11-24-24 0-13 11-24 24-24 14 0 25 11 25 24 0 13-11 24-25 24z m0-35c-5 0-10 5-10 11 0 6 5 11 10 11 6 0 11-5 11-11 0-6-5-11-11-11z"/>
<glyph glyph-name="overview" unicode="&#69;" d="M202 283l-144 0c-13 0-24 11-24 24l0 144c0 13 11 24 24 24l144 0c13 0 24-11 24-24l0-144c0-13-11-24-24-24z m-144 180c-7 0-12-5-12-12l0-144c0-7 5-12 12-12l144 0c7 0 12 5 12 12l0 144c0 7-5 12-12 12z m396-180l-144 0c-13 0-24 11-24 24l0 144c0 13 11 24 24 24l144 0c13 0 24-11 24-24l0-144c0-13-11-24-24-24z m-144 180c-7 0-12-5-12-12l0-144c0-7 5-12 12-12l144 0c7 0 12 5 12 12l0 144c0 7-5 12-12 12z m-108-426l-144 0c-13 0-24 11-24 24l0 144c0 13 11 24 24 24l144 0c13 0 24-11 24-24l0-144c0-13-11-24-24-24z m-144 180c-7 0-12-5-12-12l0-144c0-7 5-12 12-12l144 0c7 0 12 5 12 12l0 144c0 7-5 12-12 12z m396-180l-144 0c-13 0-24 11-24 24l0 144c0 13 11 24 24 24l144 0c13 0 24-11 24-24l0-144c0-13-11-24-24-24z m-144 180c-7 0-12-5-12-12l0-144c0-7 5-12 12-12l144 0c7 0 12 5 12 12l0 144c0 7-5 12-12 12z"/>
<glyph glyph-name="power" unicode="&#70;" d="M394 319c-1 23-8 31-31 31-9 0-18 0-27 0l0 77c0 15-11 24-26 24-14 0-24-9-25-24 0-8 0-16 0-24 0-2 0-5 0-8 0-1 0-1 0-1l0-44c-19 0-39 0-58 0 0 8 0 18 0 28 0 17 0 35 0 47-1 16-10 26-26 26-15 0-25-11-26-27 0-7 0-14 0-21 0-2 0-5 0-8 0 0 0 0 0-1 0-2 0-14 0-25 0-7 0-14 1-19-10 0-19 0-28 0 0 0 0 0 0 0-20 0-29-8-30-29 0-5 0-11 1-15 0-21 8-30 28-30 0-3 0-6 1-10 0-10 0-23 0-39 0-54 23-89 73-109 5-2 5-3 5-7 0-15 0-30 0-44 0-3 3-6 6-6 0 0 0 0 0 0 4 0 6 3 6 6 0 14 0 29 0 43 0 10-4 15-13 19-45 18-65 49-65 98 0 13 0 24 0 33 0 1 0 1 0 2 0 2 0 10 0 19 1 2 0 4-1 5-2 1-3 2-5 2l-5 0c-15 0-18 3-19 18 0 5 0 10 0 15 1 14 4 17 18 17 0 0 0 0 0 0 72 0 143 0 215 0 16 0 18-3 19-19 0-5 0-10 0-15-1-13-4-16-17-16l-7 0c-2 0-3-1-4-2-1-1-2-3-2-4l0-5c0-28 0-63-2-74-6-35-27-60-61-73-11-4-16-11-15-23l0-40c0-3 2-6 6-6 3 0 6 3 6 6l0 40c-1 7 0 9 7 12 39 15 62 42 69 81 2 13 2 46 2 76l1 0c19 0 28 8 28 28 1 5 1 10 1 15z m-179 59c0-10 0-20 0-28l-28 0c0 5 0 12 0 19 0 10 0 20 0 24 0 1 0 1 0 1 0 3 0 6 0 10 0 6 0 13 0 20 0 10 5 15 14 15 9 0 13-5 14-14 0-12 0-30 0-47z m109-25l-27 0 0 39c0 1 0 1 0 2 0 3 0 6 0 10 0 7 0 15 0 22 1 9 5 13 13 13 5 0 14-2 14-12l0-74z m-31-169c0 1 1 1 1 1-2 0-3-1-4-1-3-1-6-2-10-3-3-1-7-2-10-3-1-1-1-1-1 0 0 1 0 1 0 2 3 10 6 20 9 30 2 7 4 15 6 22 2 10 5 19 8 29 0 0 0 0 0 1 0 0-1 0-1-1-3-1-6-2-8-3-4-2-8-4-11-5-9-5-18-9-27-13-1 0-2-1-3-1 0 0 0 1 0 1 3 5 6 11 9 17 2 4 4 9 6 13 3 6 6 12 9 18 3 7 7 14 10 21 1 0 0 0 0 0-11 0-21 0-32 0 0 0-1 0-1 0 0-1 0-1 0-1-2-7-4-14-6-20-3-10-6-20-8-30-2-7-4-14-6-20-2-7-4-14-6-21 0-1-1-1 0-1 0-1 0 0 1 0 5 2 10 5 15 7 6 3 13 6 19 9 3 1 6 2 9 3 0 1 0 0 0 0 0-1 0-2 0-3-2-10-4-20-5-29-2-8-3-16-4-24 0 0 0-1-1-1 0 0 0 0-1 1-3 3-7 7-11 11-1 1-2 2-4 4 0 0 0 0 0 0 0-2 1-3 1-4 3-7 5-14 7-21 3-9 6-17 9-26 0-1 0-1 1 0 5 4 9 9 13 13 5 5 9 10 14 15 4 4 9 9 13 13z"/>
<glyph glyph-name="rain" unicode="&#71;" d="M385 353c0 0-2 0-1 3 2 6 3 13 3 20 0 45-37 82-82 82-18 0-35-6-49-17-14-10-24-25-30-41 0-1 0-2-3-1 0 0 0 0 0 0-1 0-2 0-3 0-27 0-50-18-60-44 0 0 0-1-1-1 0 0-1 0-1 0-4 1-8 2-12 2-35 0-63-29-63-63 0-35 28-63 63-63l220 0c35 0 63 28 63 63 0 27-18 51-44 60z m-19-112l-220 0c-28 0-51 23-51 52 0 28 23 51 51 51 3 0 7 0 10-1 1 0 3 0 4 0 5 0 9 3 11 8 7 21 27 36 49 36 1 0 2 0 3 0 0 0 1 0 2 0l1 0c6 0 10 3 12 9 0 0 0 0 0 1 9 29 36 49 67 49 38 0 70-32 70-70 0-7-1-14-3-20-1-4-1-6 1-9 2-3 5-4 7-5l0 0c22-6 37-27 37-49 0-29-23-52-51-52z m-34-74c0-14 1-25 3-25 1 0 3 11 3 25 0 13-2 45-3 45-2 0-3-32-3-45z m-162 0c0-14 2-25 4-25 1 0 3 11 3 25 0 13-2 45-3 45-2 0-4-32-4-45z m86 24c-2 0-3-13-3-18 0-6 1-10 3-10 2 0 3 4 3 10 0 5-1 18-3 18z m-46-112c0-14 1-25 3-25 2 0 3 11 3 25 0 14-1 45-3 45-2 0-3-31-3-45z m77 31c-2 0-3-13-3-18 0-5 1-10 3-10 2 0 3 5 3 10 0 5-1 18-3 18z"/>
<glyph glyph-name="recycling" unicode="&#72;" d="M284 385l52-92-33 7c-4 1-9-2-10-7 0-4 3-9 7-10l51-10c1 0 1 0 2 0 0 0 1 0 2 0 0 0 0 1 1 1 0 0 0 0 1 0 0 0 0 0 0 0 0 0 0 0 0 0 1 0 1 1 1 1 0 0 0 0 0 0 1 0 1 1 1 1 0 0 0 0 1 1 0 0 0 0 0 0 0 0 0 1 0 1 0 0 1 0 1 1 0 0 0 0 0 0 0 1 0 1 0 1l10 51c1 4-2 9-7 10-4 0-9-2-9-7l-6-29-51 88c-11 19-26 29-42 29-16 0-31-10-42-29l-31-46c-3-4-2-9 2-12 4-2 9-1 12 3l31 46c0 0 0 0 0 1 8 13 18 20 28 20 10 0 20-7 28-20z m-116-103l14-34c1-4 5-6 8-6 1 0 2 1 3 1 4 2 6 7 5 11l-21 51c0 0 0 0 0 0 0 0 0 1 0 1 0 0 0 0-1 1 0 0 0 0 0 0 0 0 0 1-1 1 0 0 0 0 0 0 0 0-1 1-1 1 0 0 0 0 0 0 0 0 0 0 0 0-1 0-1 1-2 1 0 0 0 0 0 0-1 0-1 0-1 0 0 0-1 0-1 0 0 0-1 0-1 0 0 0 0 0 0 0-1 0-1 0-1 0l-51-10c-5-1-8-5-7-10 1-5 6-8 10-7l33 7-52-91c-11-19-12-39-3-55 9-15 25-24 46-24l46 0c5 0 8 4 8 9 0 4-3 8-8 8l-46 0c-15 0-26 6-31 15-6 11-5 25 3 38z m243-84l-20 46c-2 4-7 6-11 4-5-1-6-6-5-11l21-46c0 0 0-1 0-1 8-14 9-27 4-38-6-9-17-15-32-15l-97 0 16 16c4 4 4 9 0 12-3 4-8 4-12 0l-30-30c-2-2-3-4-3-6 0 0 0 0 0 0 0-3 2-6 4-7l29-30c2-1 4-2 6-2 3 0 5 1 6 2 4 4 4 9 0 12l-16 16 97 0c21 0 38 9 46 24 9 15 8 35-3 54z"/>
<glyph glyph-name="report" unicode="&#73;" d="M287 159l0-7 17 11-17 11 0-8-144 0 0 12 47 37 31-27 50 63 7-6 6 29-29-10 8-7-43-54-29 26-48-38 0 115 8 0-11 17-11-17 7 0 0-147z m-145 258l141 0c3 0 5 3 5 5 0 3-2 5-5 5l-141 0c-3 0-5-2-5-5 0-2 2-5 5-5z m0-49l141 0c3 0 5 2 5 5 0 3-2 5-5 5l-141 0c-3 0-5-2-5-5 0-3 2-5 5-5z m271 28l-71 0 0 79c0 8-7 16-16 16l-227 0c-9 0-16-8-16-16l0-343c0-9 7-16 16-16l71 0 0-79c0-8 7-16 16-16l227 0c9 0 16 8 16 16l0 343c0 9-7 16-16 16z m-320-264l0 343c0 3 3 6 6 6l227 0c3 0 6-3 6-6l0-343c0-4-3-7-6-7l-227 0c-3 0-6 3-6 7z m326-95c0-3-3-6-6-6l-227 0c-3 0-6 3-6 6l0 79 146 0c9 0 16 7 16 16l0 255 71 0c3 0 6-3 6-7z"/>
<glyph glyph-name="scattered-clouds" unicode="&#74;" d="M384 268c2 7 3 13 3 20 0 45-37 82-82 82-18 0-35-6-49-16-14-11-24-25-30-42 0 0 0-1-3-1 0 0 0 0 0 0-1 0-2 0-3 0-27 0-50-17-60-43 0 0 0-1-1-1 0 0-1 0-1 0-4 1-8 1-12 1-35 0-63-28-63-63 0-35 28-63 63-63l220 0c35 0 63 28 63 63 0 27-18 52-44 60 0 0-2 1-1 3z m-18-114l-220 0c-28 0-51 23-51 51 0 28 23 51 51 51 3 0 7 0 10-1 1 0 3 0 4 0 5 0 9 3 11 8 7 22 27 36 49 36 1 0 2 0 3 0 0 0 1 0 2 0l1 0c6 0 10 3 12 10 0 0 0 0 0 0 9 29 36 49 67 49 38 0 70-31 70-70 0-7-1-13-3-20-1-3-1-6 1-8 2-4 5-5 7-6l0 0c22-6 37-26 37-49 0-28-23-51-51-51z"/>
<glyph glyph-name="smart-building" unicode="&#75;" d="M371 40l-25 0 0 226c0 60-49 61-49 61l-43 0c0 2-1 3-1 5 1 10 3 25 10 42 5-1 11-1 18-1 12 0 28 2 43 12 25 17 40 48 44 93 0 2-1 4-2 6-2 1-4 2-6 2-2 0-66-3-95-41-13-17-17-37-13-61-3-6-5-12-7-17-1 3-2 6-4 8 0 7-1 28-19 45-16 16-43 22-79 18-2-1-4-2-5-3-1-2-1-4-1-6 1-3 19-57 54-70 5-1 10-2 15-2 8 0 17 2 25 7 4-8 7-18 8-31 0-3 0-5 0-6l-24 0c-17 0-30-6-39-16-15-17-13-41-12-45l0-226-23 0c-4 0-7-3-7-7 0-4 3-7 7-7l230 0c4 0 7 3 7 7 0 4-3 7-7 7z m-95 396c19 26 60 33 77 35-5-36-17-61-36-74-17-11-36-11-47-10 10 17 25 35 48 53 3 2 4 6 2 9-2 3-7 4-10 2-20-15-35-31-46-46 1 12 5 22 12 31z m-80-63c-22 7-36 37-42 52 26 2 46-3 59-15 4-4 7-9 9-13-15 11-31 12-31 12-4 0-7-3-7-6-1-4 2-8 6-8 2 0 20-1 34-19-10-5-19-7-28-3z m-18-106c0 0-3 22 9 35 6 7 15 11 28 11l82 0c1 0 35-1 35-47l0-226-26 0 0 79c0 3-4 6-7 6l-86 0c-4 0-7-3-7-6l0-79-28 0 0 226c0 0 0 1 0 1z m42-227l0 72 72 0 0-72z m-6 235l27 0 0-30-27 0z m0-49l27 0 0-30-27 0z m0-49l27 0 0-30-27 0z m56 98l27 0 0-30-27 0z m0-49l27 0 0-30-27 0z m0-49l27 0 0-30-27 0z"/>
<glyph glyph-name="snow" unicode="&#76;" d="M380 341c-1 1-2 1-1 3 2 7 2 13 2 19 0 44-35 79-78 79-17 0-34-5-47-16-14-9-23-24-28-39 0-1-1-2-3-1 0 0-1 0-1 0-1 0-1 0-2 0-26 0-49-17-58-42 0 0 0-1-1-1 0 0-1 0-1 0-4 1-7 1-11 1-34 0-61-27-61-60 0-33 27-61 61-61l210 0c34 0 61 28 61 61 0 26-17 49-42 57z m-19-106l-210 0c-28 0-50 22-50 49 0 27 22 49 50 49 3 0 6 0 9-1 1 0 3 0 4 0 5 0 9 3 11 8 7 20 25 34 47 34 0 0 1 0 2 0 1 0 2 0 3 0l0 0c6 0 10 3 11 9 0 0 0 0 0 0 9 29 35 48 65 48 37 0 67-30 67-68 0-6-1-12-3-19-1-3-1-6 1-8 2-3 5-4 7-5l0 0c21-6 36-25 36-47 0-27-22-49-50-49z m-127-77l-6 0 5 4c1 1 1 4 0 5-2 1-4 1-5 0l-9-9-21 0 11 17 12 4c1 0 2 0 2 1 0 1 1 2 0 3 0 1 0 1-1 2-1 0-2 0-3 0l-6-1 3 4c0 1 1 2 0 3 0 0 0 1-1 2-1 0-2 0-3 0-1 0-1-1-2-2l-3-4-1 6c0 1-1 1-2 2-1 0-1 0-2 0-2 0-3-2-3-4l4-12-10-18-11 18 4 12c0 1 0 2-1 3 0 0-1 1-2 1-1 1-3-1-4-2l-1-6-3 4c0 1-1 2-2 2-1 0-2 0-2 0-1-1-2-2-2-2 0-1 0-2 0-3l3-5-6 2c-1 0-2 0-3 0 0-1-1-2-1-2 0-1 0-2 0-3 1-1 1-1 2-1l13-4 10-17-21 0-9 9c-1 1-3 1-4 0-2-2-2-4 0-5l4-4-5 0c-2 0-4-2-4-4 0-2 2-3 4-3l5 0-4-5c-2-1-2-3 0-4 1-2 3-1 4 0l10 9 20 0-10-18-13-3c-1-1-2-2-2-4 0-2 2-3 4-3l6 2-3-5c0 0 0-1 0-2 0-1 1-2 1-2 2-1 4 0 5 1l3 5 1-6c1-2 2-3 4-3 0 0 0 0 1 0 1 1 2 3 2 4l-4 13 11 18 10-18-3-12c-1-2 0-4 2-4 2-1 4 0 4 2l2 6 2-5c1-1 3-2 5-1 1 0 1 1 1 2 1 1 0 2 0 2l-3 5 6-1c2-1 4 0 4 2 1 1 1 2 0 2 0 1-1 2-2 2l-12 3-11 18 21 0 9-9c1-1 3-1 5 0 1 1 1 3 0 5l-5 4 6 0c1 0 3 1 3 3 0 2-2 4-3 4z m155-21c0 0 0 0 0 0l-10 0 8 8c2 2 2 5 0 6-1 2-4 2-6 0l-14-14-34 0 17 29 19 5c2 1 3 1 3 2 1 1 1 2 1 3-1 3-4 4-6 4l-11-3 5 8c1 1 1 3 1 4-1 1-1 2-2 2-2 1-5 1-6-1l-5-9-4 11c0 1-1 2-2 3-1 0-2 0-3 0-1 0-2-1-2-2-1-1-1-2-1-3l6-20-17-29-17 29 5 20c1 2-1 4-3 5-1 0-2 0-3 0-1-1-2-2-2-3l-3-11-5 9c-1 1-2 1-3 2-1 0-2 0-3-1-2-1-3-3-2-6l6-9-12 3c-2 1-5 0-5-3-1-2 1-4 3-5l20-5 16-29-33 0-14 14c-2 2-5 2-7 0-1-2-1-4 0-6l9-8-11 0c-2 0-4-2-4-4 0-3 2-5 4-5l11 0-9-8c-1-2-1-5 0-6 2-2 5-2 7 0l14 14 33 0-16-29-20-5c-1 0-2-1-2-2-1-1-1-2-1-3 1-3 3-4 5-3l12 3-6-9c0-1 0-2 0-4 0-1 1-2 2-2 2-1 5-1 6 1l5 10 3-12c1-2 2-3 4-3 1 0 1 0 1 0 3 1 4 3 4 5l-6 20 17 29 17-29-6-20c0-2 1-4 4-5 2 0 4 1 5 3l3 11 5-9c1-2 4-2 6-1 2 1 2 4 1 6l-5 9 12-3c2-1 4 1 5 3 0 1 0 2-1 3 0 1-1 2-2 2l-20 5-17 29 34 0 14-14c2-2 5-2 6 0 2 2 2 4 0 6l-8 8 10 0c3 0 5 2 5 5 0 1-1 2-2 3 0 0-1 1-3 1z"/>
<glyph glyph-name="statistics" unicode="&#77;" d="M422 150l0 230-332 0 0-230 158 0 0-23-60-33 7-13 61 33 61-33 7 13-60 33 0 23z m-16 215l0-200-300 0 0 200z m-33-41c-8 2-15-2-17-10-1-2 0-5 1-8l-70-66c-1 0-2 0-2 1-3 0-6 0-8-1l-45 48c1 0 1 1 1 2 2 7-2 15-10 16-7 2-14-2-16-9-1-3-1-6 0-9l-55-53c-1 1-2 1-2 1-7 2-15-3-17-10-1-7 3-14 10-16 7-2 15 2 17 10 0 2 0 5-1 7l56 54c1 0 1-1 2-1 2 0 5 0 7 0l45-47c0-1-1-1-1-2-2-7 3-15 10-16 7-2 15 2 16 9 1 3 1 5 0 8l70 67c1-1 1-1 2-1 7-2 15 2 16 10 2 7-2 14-9 16z"/>
<glyph glyph-name="thunderstorm" unicode="&#78;" d="M381 344c-1 0-2 1-2 3 2 6 3 13 3 19 0 44-36 79-79 79-17 0-34-5-47-16-14-10-24-24-29-39 0-1 0-2-2-2-1 0-1 0-1 0-1 0-2 0-2 0-26 0-49-16-58-41 0-1-1-2-2-1 0 0 0 0 0 0-4 1-8 1-12 1-34 0-61-27-61-61 0-33 27-61 61-61l73 0c5-17 10-31 12-31 3 1 1 15-3 31l83 0c1-4 1-8 2-11 2-8 5-13 8-12 2 0 2 7 0 14 0 2-1 6-3 9l40 0c33 0 61 28 61 61 0 26-17 50-42 58z m-19-107l-45 0c-1 1-1 2-2 2 0 0-1-1-1-2l-85 0c-6 20-16 52-18 52-2-1 4-32 9-52l-70 0c-27 0-49 22-49 49 0 27 22 50 49 50 3 0 7-1 10-1 1-1 2-1 3-1 5 0 10 3 11 8 7 21 26 35 48 35 0 0 1 0 2 0 1 0 2 0 2 0l1 0c6 0 10 3 11 9 0 0 0 0 0 0 9 29 35 48 65 48 37 0 68-31 68-68 0-6-1-13-3-19-1-3-1-6 0-8 2-4 6-5 7-5l1 0c21-6 35-26 35-48 0-27-22-49-49-49z m-133-81c-2-1 0-18 2-25 2-8 6-13 8-13 2 1 2 7 1 15-2 7-9 23-11 23z m66 28c-2 0 7-43 12-62 4-18 10-32 12-32 3 1 1 16-4 34-5 19-18 61-20 60z m82-50c-2-1 0-18 2-25 2-8 5-13 8-12 2 0 2 7 0 14-2 7-8 24-10 23z"/>
<glyph glyph-name="upgrade" unicode="&#79;" d="M369 231c6 21 13 43 19 65 14 2 24 14 24 27 1 15-10 28-25 30-14 1-28-9-31-23-1-7 0-14 3-20-11-7-23-14-35-22l-21-12-12 22c-12 23-25 45-37 68 8 7 12 18 10 30-2 12-14 21-27 21-1 0-1 0-1 0-13 0-24-8-26-21-3-12 1-23 10-30-13-22-25-45-38-68l-12-22-20 12c-12 8-24 15-36 22 4 6 5 13 3 20-3 14-16 24-31 23-15-2-25-15-25-30 0-13 11-24 24-27 9-30 18-60 27-90l8-29c3-9 7-12 16-12l101 0 31 0 0 0c-1-2-2-4-2-7l-29 0-95 0c-1 0-3 0-5 0-12-3-19-14-18-26 2-11 11-20 23-20l100 0 25 0c11-39 47-68 90-68 52 0 94 42 94 94 0 47-36 87-82 93z m-227-104c-4 0-8 3-8 7-1 5 2 9 6 10 1 0 2 0 2 0l95 0 27 0c0-2 0-4 0-6 0-4 0-8 0-11z m162 88c-1-1-2-2-3-2 0-1-1-1-1-2-2-1-3-1-4-2 0-1-1-2-2-2 0-1-1-2-2-3-1 0-1 0-2-1-1-1-2-2-3-3 0 0 0-1-1-1-1-1-2-3-3-4 0 0 0-1-1-1 0-1-1-3-2-4-1 0-1-1-1-1-1-2-2-3-2-4-1-1-1-1-2-2 0-1-1-2-1-4 0 0 0 0 0 0l0 0-37 0-101 0c-1 0-1 0-2 0 0 1 0 1 0 2l-8 29c-10 31-19 62-28 93-1 6-6 7-9 8-8 0-13 6-13 12-1 8 4 14 12 15 7 1 14-4 15-11 1-5 0-8-3-12-1-1-4-4-3-8 1-4 4-6 5-6 13-8 27-17 40-25l21-13c3-1 7-3 11-2 4 1 7 5 9 8l12 22c13 24 26 48 39 71 3 6 2 11-4 15-6 3-7 10-6 16 2 9 10 9 12 9 6 0 13-3 14-9 0-3 1-12-6-16-6-4-8-9-4-15 13-23 26-47 38-71l13-22c2-3 4-7 8-8 5-1 8 1 11 2l21 13c14 8 27 17 40 25 2 0 5 2 5 6 1 4-1 7-3 8-2 4-3 7-3 12 2 7 9 12 15 11 8-1 13-7 13-15 0-6-6-12-13-12-4-1-8-2-10-8-7-24-14-48-21-72-6 0-12-1-17-2-1 0-2 0-2 0-1-1-2-1-3-1-1-1-2-1-3-1-1-1-2-1-3-1-1-1-2-1-3-1-2-1-3-2-4-2-1 0-1-1-2-1-1 0-2-1-3-2-1 0-2 0-2-1-1 0-2-1-3-1-1-1-2-1-3-2 0 0-1-1-2-1z m102-93c-2-5-4-10-7-15-4-6-10-11-17-15-8-5-16-7-24-7-5 0-9 1-14 2-13 3-23 11-30 23-1 2-2 4-3 6-5 10-5 21-2 32 0 3 1 6 3 9 0 0 0 0 0 0 3 8 8 14 14 18 3 2 6 1 7-1 2-2 1-5-1-6-5-4-9-9-11-14 0 0 0-1 0-1-2-2-3-5-3-7-3-9-2-18 2-26 0-2 1-3 2-5 6-10 14-16 25-19 11-3 21-2 31 4 5 3 10 8 13 13 2 3 4 7 6 12 2 11 1 21-4 31-5 7-11 13-18 16 0 0 0 0-1 0l4-12c1-2 0-5-3-6 0 0-1 0-1 0-2 0-4 1-5 3l-7 21c0 0 0 0 0 0 0 1 0 1 0 1 0 0 0 0 0 0 0 0 0 0 0 1 0 0 0 0 0 0 0 1 0 1 0 1 0 0 0 0 0 0 0 0 0 0 0 1 1 0 1 0 1 0 0 0 0 0 0 0 0 1 0 1 0 1 1 0 1 0 1 1 0 0 0 0 0 0 0 0 1 0 1 0 0 0 0 0 0 1 0 0 0 0 0 0 0 0 1 0 1 0l22 6c2 1 5 0 6-3 1-2-1-5-3-6l-9-3c7-4 14-10 19-18 7-12 8-25 5-39z"/>
<glyph glyph-name="user" unicode="&#80;" d="M250 237c-66 0-119 54-119 119 0 66 53 119 119 119 65 0 119-53 119-119 0-65-54-119-119-119z m0 227c-60 0-108-48-108-108 0-59 48-107 108-107 59 0 107 48 107 107 0 60-48 108-107 108z m215-427l-431 0c-3 0-6 2-6 5l0 73c6 93 89 99 90 99l263 0c1 0 84-6 90-98l0-74c0-3-3-5-6-5z m-425 11l419 0 0 67c-4 82-76 87-79 87l-262 0c-2 0-74-5-78-87z"/>
<glyph glyph-name="welcome" unicode="&#81;" d="M510 265c-19 47-39 94-59 141-4 11-13 15-24 10-13-5-25-10-38-16l-10-4c-9-4-13-10-11-20 0 0 0-1 0-1 0 0 0-1 0-1-1 0-2-1-3-1-4-1-7-2-11-1-20 5-40 10-59 15-35 8-64 3-89-17-1 0-1-1-2-1 0 0 0 0 0-1-6 2-10 0-14-1-2-1-4-2-5-2-1 0-2-1-3-1-6-1-11-3-16-1-7 3-13 5-21 8-1 0-2 0-2 0 0 0 0 1 1 2 3 11-1 18-11 22-15 7-30 13-45 19-14 6-22 3-29-12l-57-136c-5-13-2-21 11-27l42-17c5-2 11-5 17-3 6 1 10 6 12 11 5-4 11-7 16-10l2-1c5-3 11-7 17-13 3-2 4-4 4-7-1-11 4-18 13-23 2-1 2-1 2-2 3-12 12-18 19-22 0 0 1-1 1-1 2-1 2-1 2-1 2-22 18-28 33-31 2 0 2-1 3-2 1-8 6-13 14-18 7-3 15-5 23-5 6 0 13 1 19 4l1 0c2 1 3 1 5 0 19-8 32-4 43 13 1 2 2 2 5 3 15 0 25 7 30 18 2 4 3 5 7 6 11 1 19 7 22 16 3 10 9 15 19 22 14 9 15 26 14 38 0 1 0 1 0 2-1 2-1 2 0 2 2 2 5 4 7 7 6 5 12 11 19 16l0-2c2-3 3-6 5-9 4-10 13-13 22-9 17 6 33 13 49 20 11 4 15 14 10 24z m-72 134c12-27 23-55 35-82l13-31c3-8 6-15 9-23 1-2 1-3 2-4l0-1c0-2-1-3-3-4-15-6-31-13-47-19-3-2-4-1-6 2-21 51-40 97-58 140-1 2-1 3-1 4 0 0 1 1 3 2l9 4c13 5 26 10 39 16 1 0 1 0 2 0 0 0 0 0 1 0 1 0 2-2 2-4z m-355 1c5-2 11-4 16-6 9-4 17-8 26-11 3-1 4-2 5-3 0-1 0-3-1-5-13-31-26-62-39-93l-18-43c-3-7-3-7-10-4l-18 7c-8 4-16 7-24 11l-1 0c-4 1-4 2-4 4l0 2c1 1 1 2 2 3 18 45 37 90 56 134 3 7 3 7 10 4z m271-226c0-8-1-14-4-17-3-4-9-5-16-5-6 0-8-3-9-7-4-14-11-19-25-16-6 2-8-2-9-5l0-1c-3-6-7-12-15-14-2 0-4 0-5 0-3 0-4 1-4 1 0 0 0 1 1 4 3 7 3 15 0 22-3 7-10 13-18 15-2 1-3 2-4 5-6 13-14 22-25 26-1 1-2 1-3 3-3 6-7 14-16 17-1 0-1 0-2 2 0 0 0 1 0 2-6 12-16 19-29 20l-4 0c-4 0-8 1-12 1-9 0-18-2-26-10 0 0 0 0 0 0-7 7-15 12-23 16-4 3-9 5-13 8-3 2-3 3-2 7 17 38 32 76 45 108 1 2 2 2 2 2 0 0 0 0 2-1 2-1 5-2 8-3 2-1 4-1 6-2 12-5 25-6 37 0-5-9-13-15-21-21-2-2-4-3-6-5-5-4-9-8-13-13-6-9-5-18 3-24 10-8 22-10 36-7 13 3 24 12 32 20 9 9 18 13 28 13 3 0 6 0 7-2 7-6 14-9 22-12l1-1c32-14 60-32 85-55 16-15 22-31 17-47-3-11-8-15-19-15-3 0-6 0-7-2-2-2-2-5-2-7z m-145-43c-1 2-3 2-4 2-1 0-1 0-2 0-6 0-12 1-18 3-10 5-12 11-8 21l1 3-2 1c-2 0-3 0-5 1-4 1-8 2-11 5-4 4-7 8-10 13-4 5-7 10-12 15-2 1-2 3-2 4 1 4 6 8 11 10 8 2 18 2 27-1 6-2 9-7 12-13l0-1c1-3 3-6 8-7 5-2 7-5 10-11 1-4 3-8 8-9 9-2 15-9 19-21 2-4 4-9 11-10 8-1 11-5 11-12 0-7-5-13-12-14-9-3-17-2-25 3-9 5-7 10-6 12 0 2 1 4-1 6z m144 146c-23 17-46 31-71 41-6 2-10 5-13 8-5 4-11 6-18 6-3 0-6 0-9 0-12-3-22-8-30-16-8-7-15-14-26-17-8-2-14-2-19 1-2 2-2 2-2 2-1 1 0 2 1 3 5 5 11 10 17 15 11 8 20 18 27 32 2 4 4 6 8 9 20 14 43 18 70 13 14-3 27-7 40-11 6-1 13-3 19-4 6-2 15-4 23 0 2 1 3 1 3 1 1 0 1 0 2-3 12-29 24-58 37-87l5-13c1-3 1-3 0-3-8-6-15-12-22-19l-2-1c-7 18-21 28-34 38-2 2-4 3-6 5z m101-27c0 0 0 0 0 0 8 0 13 5 13 12 1 4-1 8-3 10-2 3-6 4-10 4-4 0-7-1-9-3-3-3-4-6-4-10 0-4 1-7 4-10 2-2 5-3 9-3z m-397 26c-8-1-12-6-12-14 0-4 1-7 3-10 3-2 6-4 10-4 0 0 0 0 0 0 3 0 7 2 9 4 3 3 4 6 4 10 0 4-2 8-5 11-3 2-6 3-9 3z"/>
<glyph glyph-name="check" unicode="&#104;" d="M432 400l-252-252-100 100-24-24 124-124 276 276z"/>
<glyph glyph-name="bad" unicode="&#82;" d="M256 492c-131 0-237-107-237-237 0-131 106-237 237-237 131 0 237 106 237 237 0 130-106 237-237 237z m68-164c7 0 13-6 13-13 0-7-6-13-13-13-7 0-13 6-13 13 0 7 6 13 13 13z m-136 0c7 0 13-6 13-13 0-7-6-13-13-13-7 0-13 6-13 13 0 7 6 13 13 13z m177-188c-24 38-64 60-109 60-45 0-85-22-109-61l-11 7c26 42 71 67 120 67 49 0 94-25 120-66z"/>
<glyph glyph-name="badge-buildings" unicode="&#83;" d="M204 323l28 0 0-28-28 0z m45-45l27 0 0-27-27 0z m0-44l27 0 0-27-27 0z m-45 44l28 0 0-27-28 0z m22-94l28 0 0-44-28 0z m114 72c-2 3-4 6-4 10l-13 0 0-25 7 0c1 6 5 11 10 15z m-91 67l27 0 0-28-27 0z m85-98l-11 0 0-25 21 0c-1 2-1 4-1 6 0 4 1 8 4 12-5 1-10 4-13 7z m-130 9l28 0 0-27-28 0z m119 47l18 0c2 2 5 4 7 5l0 20-25 0 0-25z m-191-15l25 0 0-25-25 0z m0 40l25 0 0-25-25 0z m124 187c-131 0-237-106-237-237 0-131 106-237 237-237 131 0 237 106 237 237 0 131-106 237-237 237z m185-268c-6-14-18-13-18-14 1-2 2-5 2-8 0-11-9-20-20-20-8 0-15 5-18 11l0-54 51 0 0-13-366 0 0 13 38 0 0 189 60 0 0-149-18 0 0-40 28 0 0 207 120 0 0-207 28 0 0 40-18 0 0 149 60 0 0-21c2 0 3 1 5 1 7 0 14-4 17-10 4 6 10 10 17 10 12 0 21-9 21-21 0-2-1-5-2-7 9-2 15-10 15-19 0-6-2-11-6-15 4-4 7-14 4-22z m-309 0l25 0 0-25-25 0z m238-39l0-46 12 0 0 56c-3-5-7-8-12-10z"/>
<glyph glyph-name="badge-green" unicode="&#84;" d="M306 87c3 3 2 8-3 8l-28 3c-2 0-4 1-4 3l-10 25c-1 2-3 2-4 2 0 1-1 1-1 1 0 0-1 0-1-1-1 0-3 0-4-2l-10-25c0-2-2-3-4-3l-28-3c-5 0-6-5-3-8l21-19c2-1 2-3 2-5l-6-26c-1-5 3-8 7-6l24 14c1 1 3 1 4 0l24-14c4-2 8 1 7 6l-6 26c0 2 0 4 2 5z m-71 190c1-3 1-5 1-7 0-10-7-18-16-18-6 0-14 4-14 9l0-42c10 7 27 12 44 13l0 59c0-7-15-14-15-14z m26 14l0-59c17-1 35-6 45-13l0 42c0-5-8-9-14-9-10 0-17 8-17 18 0 2 1 4 2 7 0 0-16 7-16 14z m-4 201c0 0-2 0-2 0-130-1-236-108-236-239 0-117 84-214 194-235-14 6-27 16-37 27 0 0 0 0 0 0-1 1-2 1-2 2-18 20-29 46-29 74 0 41 21 76 53 95l0 47c0-1 0-3-2-4-1-1-1-2-2-2-2-1-3-2-4-2-2-1-3-1-5-1 0 0 0 0 0 0-10 1-18 8-18 18 0 3 1 7 3 9-8 2-14 9-14 18 0 6 4 11 9 15-2 2-3 6-3 9 0 9 7 17 15 18 0 0 0 0 0 0 0 1 0 1 0 2 2-2 3-3 4-5 3-3 7-6 13-8 0 0 0 0 0 0 0 0 0 0 0 0-3-4-3-8-3-13 0-2 0-3 0-5 0-18 13-33 32-33 11 0 27 6 27 15l0 8c0-9-16-15-27-15-17 0-30 13-30 31 0 6 3 12 6 17-14 3-24 15-24 30 0 11 6 21 14 26-3 5-5 11-5 17 0 13 12 28 28 30 0 0 0 0 0 1 0 13 16 20 26 19 11-1 18-10 18-10 0 0 6 9 17 10 11 1 27-5 27-19 0-1 0-1 0-1 16-2 28-18 28-30 0-6-2-12-5-17 8-5 14-15 14-26 0-15-10-27-24-30 3-5 6-11 6-17 0-18-13-31-30-31-11 0-27 6-27 15l0-8c0-9 16-15 27-15 19 0 32 15 32 33 0 2 0 3 0 5 0 5 0 9-3 13 0 0 0 0 0 0 0 0 0 0 0 0 6 2 10 5 13 8 1 2 2 3 4 5 0-1 0-1 0-2 0 0 0 0 0 0 9-1 15-9 15-18 0-3-1-7-3-9 5-4 9-9 9-15 0-9-6-16-14-18 2-2 3-6 3-9 0-10-8-17-18-18 0 0 0 0 0 0-2 0-3 0-5 1-1 0-2 1-4 2-1 0-1 1-2 2-2 1-2 3-2 4l0-47c32-19 53-54 53-95 0-28-11-54-29-74 0-1-1-1-2-2 0 0 0 0 0 0-10-11-23-21-37-27 110 21 194 118 194 235 0 131-106 238-236 239z"/>
<glyph glyph-name="middling" unicode="&#85;" d="M256 492c-131 0-237-107-237-237 0-131 106-237 237-237 131 0 237 106 237 237 0 130-106 237-237 237z m68-164c7 0 13-6 13-13 0-7-6-13-13-13-7 0-13 6-13 13 0 7 6 13 13 13z m-136 0c7 0 13-6 13-13 0-7-6-13-13-13-7 0-13 6-13 13 0 7 6 13 13 13z m160-154l-184 0 0 13 184 0z"/>
<glyph glyph-name="good" unicode="&#86;" d="M256 492c-131 0-237-107-237-237 0-131 106-237 237-237 131 0 237 106 237 237 0 130-106 237-237 237z m65-142c7 0 13-6 13-13 0-7-6-13-13-13-7 0-13 6-13 13 0 7 6 13 13 13z m-136 0c7 0 12-6 12-13 0-7-5-13-12-13-8 0-13 6-13 13 0 7 5 13 13 13z m71-241c-49 0-94 25-120 67l11 7c24-39 64-61 109-61 45 0 85 22 109 60l11-7c-26-41-71-66-120-66z"/>
<glyph glyph-name="reset" unicode="&#87;" d="M236 53c-63 0-126 27-168 78-3 4-2 9 1 11 3 3 8 2 11-1 69-84 195-97 280-30 87 69 102 197 33 284-33 42-81 69-135 75-53 6-106-9-148-42-4-3-8-2-11 1-3 4-2 9 1 11 46 36 103 52 160 45 58-6 109-35 145-81 75-94 58-230-35-305-40-31-87-46-134-46z m-157-24c-4 0-8 3-8 7l-11 105c0 2 1 5 2 6 1 2 3 3 6 3l105 2c4 0 7-4 8-8 0-4-4-8-8-8l-97-1 10-97c1-5-2-8-7-9 0 0 0 0 0 0z"/>
</font>
</defs>
</svg>
